<svg xmlns="http://www.w3.org/2000/svg" xml:space="preserve" width="594.128" height="725.366" viewBox="-75 -35 594.128 725.366"><path fill="#987381" stroke="#987381" d="m353.722 411.22 18.6 49.5-18.9-7.9z"/><path fill="#c6b8b7" stroke="#c6b8b7" d="m377.822 455.22-4.1 4 .2-3.2z"/><path fill="#baabb4" stroke="#baabb4" d="m382.522 442.62 6.3 12.1-3.4 5.3z"/><path fill="#60588b" stroke="#60588b" d="m382.522 442.62-.8 21.8 3.7-4.4z"/><path fill="#b899a2" stroke="#b899a2" d="m388.822 454.72 21-31.4-21.5 15.5z"/><path fill="#ba929c" stroke="#ba929c" d="m409.822 423.32 13.3-34.5-28.1 25.7z"/><path fill="#b2888c" stroke="#b2888c" d="m409.822 423.32-14.8-8.8-12.5 28.1z"/><path fill="#8b718f" stroke="#8b718f" d="m423.122 388.82 7.6-34.6-13.9-.5z"/><path fill="#a07c91" stroke="#a07c91" d="m423.022 388.82-8.3-3.7 5.4-12.2z"/><path fill="#997687" stroke="#997687" d="m354.422 411.52 24.5 23.3-6 6.2z"/><path fill="#ca9f9b" stroke="#ca9f9b" d="m372.922 441.02 2.8.2 3.2-6.4z"/><path fill="#9d7d8a" stroke="#9d7d8a" d="m379.922 417.42-1 17.4 16.1-20.3z"/><path fill="#956c86" stroke="#956c86" d="m430.722 354.22-9.9-27.5-2.3 12.5z"/><path fill="#8a687a" stroke="#8a687a" d="m420.822 326.72-5.2-10.8 2.9 23.3z"/><path fill="#bb8183" stroke="#bb8183" d="m400.822 307.22-21.9 1.1 10.4 6.9z"/><path fill="#a37b8c" stroke="#a37b8c" d="m389.322 315.22-10.4-6.9-10.1 8.5z"/><path fill="#775c77" stroke="#775c77" d="m389.322 315.22-16.1 24-4.4-22.4z"/><path fill="#a07a8c" stroke="#a07a8c" d="m346.822 335.52 6.9 14.3 15.1-33z"/><path fill="#85637f" stroke="#85637f" d="m368.822 316.82-15.1 33 19.5-10.6z"/><path fill="#5e517c" stroke="#5e517c" d="m389.322 315.22-16.1 24 40.1-12.9z"/><path fill="#886e87" stroke="#886e87" d="m373.222 339.22 20.9 12.5 2-20z"/><path fill="#5b4e78" stroke="#5b4e78" d="m406.122 342.02 8.6 43.3 5.4-12.4z"/><path fill="#54487a" stroke="#54487a" d="m406.122 342.02 10.7 11.7 3.3 19.2z"/><path fill="#614e79" stroke="#614e79" d="m413.322 326.32 3.5 27.4 1.7-14.5z"/><path fill="#9d7687" stroke="#9d7687" d="m368.622 354.72 38 27.6-12.5-30.6z"/><path fill="#9c6d81" stroke="#9c6d81" d="m396.122 331.72-2 20 12.5 30.6z"/><path fill="#6a517e" stroke="#6a517e" d="m406.622 382.32-.5-40.3-10-10.3z"/><path fill="#88627d" stroke="#88627d" d="m406.122 342.02 8.6 43.1-8.1-2.8z"/><path fill="#7b647c" stroke="#7b647c" d="m406.622 382.32 8.1 2.8-2.1 13.3z"/><path fill="#a57996" stroke="#a57996" d="m414.722 385.12 8.4 3.7-10.5 9.6z"/><path fill="#775f7e" stroke="#775f7e" d="M406.622 382.32v21.6l6-5.5z"/><path fill="#846382" stroke="#846382" d="M395.022 414.52c.1-.3-1.3-11.9-1.3-11.9l12.9 1.3z"/><path fill="#7c6485" stroke="#7c6485" d="m393.722 402.62 12.9-8.4v9.7z"/><path fill="#e1a29a" stroke="#e1a29a" d="m353.722 411.22 25.9-7.4-9.3 11.3z"/><path fill="#c2888b" stroke="#c2888b" d="m379.622 403.82.3 13.6-9.6-2.3z"/><path fill="#bb8a8a" stroke="#bb8a8a" d="m379.622 403.82 15.4 10.7-15.1 2.9z"/><path fill="#b1858c" stroke="#b1858c" d="m379.622 403.82 15.4 10.7-1.3-11.9z"/><path fill="#554e7b" stroke="#554e7b" d="m368.622 354.72 25.1 47.9 3.6-27z"/><path fill="#9e7a90" stroke="#9e7a90" d="m397.322 375.62 9.3 6.7v11.9z"/><path fill="#866c82" stroke="#866c82" d="m397.322 375.62-3.6 27 12.9-8.4z"/><path fill="#745a83" stroke="#745a83" d="m393.722 402.62-14.1 1.2-.4-14.6z"/><path fill="#7a6983" stroke="#7a6983" d="m363.122 374.32 16.1 14.9.4 14.6z"/><path fill="#a0838d" stroke="#a0838d" d="m353.722 411.22 25.9-7.4-25.8-4.6z"/><path fill="#7d5b7c" stroke="#7d5b7c" d="m353.722 349.82 19.5-10.6-10.1 34.9z"/><path fill="#3d5271" stroke="#3d5271" d="m366.522 461.42 2.9 5.4-8.1-.5z"/><path fill="#44537e" stroke="#44537e" d="m357.522 459.72 3.8 6.6 5.2-4.9z"/><path fill="#415484" stroke="#415484" d="m353.422 452.82 4.1 6.9 9 1.7z"/><path fill="#9b8291" stroke="#9b8291" d="m353.822 367.32-.4 85.5-37.8-95z"/><path fill="#596580" stroke="#596580" d="m353.822 367.32-38.2-9.5 10.2-54.3z"/><path fill="#938791" stroke="#938791" d="m353.822 367.32-17.6-39.9 17.5 22.4z"/><path fill="#7e7886" stroke="#7e7886" d="m346.822 335.52-2.6 2.2 9.5 12.1z"/><path fill="#4e5d8a" stroke="#4e5d8a" d="m336.222 327.42 8 10.3 14.4-32.5z"/><path fill="#445a83" stroke="#445a83" d="m336.222 327.42-10.4-23.9 18.5-10z"/><path fill="#385480" stroke="#385480" d="m344.322 293.52-8.1 33.9 22.4-22.2z"/><path fill="#425680" stroke="#425680" d="m315.622 357.82-7.9-70.8 18.1 16.5z"/><path fill="#1b4377" stroke="#1b4377" d="m307.722 287.02 18.1 16.5 18.5-10z"/><path fill="#2f3a69" stroke="#2f3a69" d="m344.322 293.52 26.4 21.7 4.4-3.6z"/><path fill="#1a437d" stroke="#1a437d" d="m378.922 308.32 21.9-1.1 3.7-29z"/><path fill="#1e3f6e" stroke="#1e3f6e" d="m375.122 311.62 3.8-3.3-33.1-21.5z"/><path fill="#073370" stroke="#073370" d="m346.022 287.02 29.1 24.6-30.8-18.1z"/><path fill="#173d79" stroke="#173d79" d="m345.822 286.82-1.5 6.7-38.1-12.7z"/><path fill="#183d75" stroke="#183d75" d="m306.222 280.82 1.5 6.2 36.6 6.5z"/><path fill="#1a456f" stroke="#1a456f" d="m306.222 280.82 1.5 6.2-36.7-1.7z"/><path fill="#1f4672" stroke="#1f4672" d="m306.422 280.72-32-3.8-3.4 8.4z"/><path fill="#475e86" stroke="#475e86" d="m271.022 285.32-37.3-4.6 40.7-3.8z"/><path fill="#2e446b" stroke="#2e446b" d="M233.722 280.72v-14.2l40.7 10.4z"/><path fill="#12427a" stroke="#12427a" d="m221.922 259.82 11.8 6.7v14.2z"/><path fill="#053270" stroke="#053270" d="m233.722 280.72-17.2 15.6 5.4-36.5z"/><path fill="#083077" stroke="#083077" d="m221.922 259.82-31.3-1.3 27.7 25.4z"/><path fill="#0b2b63" stroke="#0b2b63" d="m195.022 262.62 21.5 33.7 1.8-12.4z"/><path fill="#01306f" stroke="#01306f" d="m204.222 276.92 3.2 54.2 9.1-34.8z"/><path fill="#17376f" stroke="#17376f" d="m216.522 296.32-9.1 34.8 5.8-5.1z"/><path fill="#133675" stroke="#133675" d="m206.322 312.62 1.1 18.5-13.4 4.9z"/><path fill="#152b62" stroke="#152b62" d="m198.722 327.12-4.7 8.9-12.5 4.1z"/><path fill="#0c1953" stroke="#0c1953" d="m190.622 333.22-9.1 6.9-12.7-2.2z"/><path fill="#001b42" stroke="#001b42" d="m168.822 337.92 12.7 2.2-32.4 4.4z"/><path fill="#102774" stroke="#102774" d="m165.722 338.92-25.3 4.2 8.7 1.4z"/><path fill="#9b7a8a" stroke="#9b7a8a" d="m271.022 285.32 36.7 1.7 7.9 70.8-28-46.6z"/><path fill="#6e647c" stroke="#6e647c" d="m271.022 285.32 16.6 25.9-46.4-17.3z"/><path fill="#555978" stroke="#555978" d="m241.222 293.92 29.8-8.6-37.3-4.6z"/><path fill="#c19391" stroke="#c19391" d="m400.822 307.22 5.6 2.2 6.9 16.9z"/><path fill="#b6818b" stroke="#b6818b" d="m406.422 309.42 9.2 6.5 2.9 23.3z"/><path fill="#815a7f" stroke="#815a7f" d="m363.122 374.12-9.3 25.1 10.5 1.9z"/><path fill="#f4dfbb" stroke="#f4dfbb" d="M377.822 455.22v-5.8l-4.9-8.4z"/><path fill="#cab6ab" stroke="#cab6ab" d="M373.922 451.12v4.9l3.9-.8z"/><path fill="#2c344d" stroke="#2c344d" d="m373.722 459.22-.3 2h2.7z"/><path fill="#6c5c77" stroke="#6c5c77" d="m372.922 441.02-.8 22.2 1.8-12.1z"/><path fill="#233757" stroke="#233757" d="m381.722 464.42-9.6-1.2 4-2z"/><path fill="#505680" stroke="#505680" d="m353.422 452.82 13.1 8.6 5.8-.7z"/><path fill="#6f7b9a" stroke="#6f7b9a" d="m372.122 463.22 1.3-2 .3-2 .2-3.2v-4.9z"/><path fill="#938b9a" stroke="#938b9a" d="m372.122 463.22-2.2 27.2-.5-23.6z"/><path fill="#becce7" stroke="#becce7" d="m372.122 463.22.2-2.5-2.9 6.1z"/><path fill="#8172a9" stroke="#8172a9" d="m381.722 464.42.8-21.8-4.7 12.6z"/><path fill="#bf8e8c" stroke="#bf8e8c" d="m375.722 441.22 6.8 1.4-4.7 6.8z"/><path fill="#a6848c" stroke="#a6848c" d="M377.822 455.22v-5.8l4.7-6.8z"/><path fill="#4d5e7f" stroke="#4d5e7f" d="m376.122 461.22 1.7-6 3.9 9.2z"/><path fill="#bb9190" stroke="#bb9190" d="m395.022 414.52-12.5 28.1-3.6-7.8z"/><path fill="#b3808a" stroke="#b3808a" d="m375.722 441.22 3.2-6.4 3.6 7.8z"/><path fill="#2c447a" stroke="#2c447a" d="M233.722 280.72v4.6l-17.2 11z"/><path fill="#4e5881" stroke="#4e5881" d="m241.222 293.92-7.5-13.2v4.6z"/><path fill="#061d4c" stroke="#061d4c" d="m140.422 343.12-31.2 3.9 39.9-2.5z"/><path fill="#111a56" stroke="#111a56" d="m101.922 343.62 38.5-.5-31.2 3.9z"/><path fill="#203c7f" stroke="#203c7f" d="M93.422 347.02h15.8l-7.3-3.4z"/><path fill="#16386d" stroke="#16386d" d="m87.722 326.22 14.2 17.4-8.5 3.4z"/><path fill="#022656" stroke="#022656" d="m77.022 318.62 16.4 28.4-5.7-20.8z"/><path fill="#11376f" stroke="#11376f" d="m82.922 309.42 4.8 16.8-10.7-7.6z"/><path fill="#0e2d62" stroke="#0e2d62" d="m82.922 309.42-1.3-25.5-4.6 34.7z"/><path fill="#072f73" stroke="#072f73" d="m71.222 307.22 5.8 11.4 4.6-34.7z"/><path fill="#103a73" stroke="#103a73" d="m55.922 291.92 25.7-8-10.4 23.3z"/><path fill="#07306f" stroke="#07306f" d="m82.122 293.52 12.7-16.8-13.2 7.2z"/><path fill="#153168" stroke="#153168" d="m87.922 285.82 24.9-12.4-18 3.3z"/><path fill="#1a3260" stroke="#1a3260" d="m112.422 267.92-17.6 8.8 18-3.3z"/><path fill="#051f4e" stroke="#051f4e" d="m132.122 268.22-19.3 5.2-.4-5.5z"/><path fill="#1b3569" stroke="#1b3569" d="m144.722 260.42-32.3 7.5 19.7.3z"/><path fill="#1e3a66" stroke="#1e3a66" d="m171.822 258.42-27.1 2-12.6 7.8z"/><path fill="#13285b" stroke="#13285b" d="m171.822 258.42 18.8.1-58.5 9.7z"/><path fill="#0d377a" stroke="#0d377a" d="m189.622 266.72 8.8 1.2-7.8-9.4z"/><path fill="#043477" stroke="#043477" d="m195.022 262.62-4.4-4.1 7.8 9.4z"/><path fill="#03295e" stroke="#03295e" d="m189.622 266.72-19.5-1.1 20.5-7.1z"/><path fill="#183f7a" stroke="#183f7a" d="m164.122 293.92-2.2-12.1 6.9-6.5z"/><path fill="#174279" stroke="#174279" d="m150.722 285.82 2.5-4 .9 6.7z"/><path fill="#1d427a" stroke="#1d427a" d="m164.122 293.92-6-9.3 3.8-2.8z"/><path fill="#103973" stroke="#103973" d="m162.722 272.32-.8 9.5-3.8 2.8z"/><path fill="#08346f" stroke="#08346f" d="m148.422 274.82-7 4.2 9.3 6.8z"/><path fill="#012f67" stroke="#012f67" d="m153.222 281.82-4.8-7 2.3 11z"/><path fill="#05346e" stroke="#05346e" d="m158.122 284.62-9.7-9.8 4.8 7z"/><path fill="#0e3776" stroke="#0e3776" d="m154.122 288.52-10.6 5.9-2.1-15.4z"/><path fill="#103672" stroke="#103672" d="m158.122 284.62-4 3.9 10 5.4z"/><path fill="#0b3373" stroke="#0b3373" d="m143.522 294.42 10.6-5.9 10 5.4z"/><path fill="#2b457b" stroke="#2b457b" d="m150.722 304.02 10.4.9 3-11z"/><path fill="#475b7a" stroke="#475b7a" d="m161.122 304.92 9-.9 1.7-13.2z"/><path fill="#416188" stroke="#416188" d="m168.822 275.32 20.8 14-17.8 1.5z"/><path fill="#6c7588" stroke="#6c7588" d="m171.822 290.82 17.8-1.5v11.4z"/><path fill="#143e75" stroke="#143e75" d="m162.722 272.32 28.7 1.1-22.6 1.9z"/><path fill="#2d4279" stroke="#2d4279" d="m196.522 295.52 6.1-9.7-13 3.5z"/><path fill="#183f74" stroke="#183f74" d="m191.422 273.42 11.2 12.4-33.8-10.5z"/><path fill="#2d4679" stroke="#2d4679" d="m189.622 289.32 13-3.5-33.8-10.5z"/><path fill="#34558c" stroke="#34558c" d="m170.122 265.62-3.5 2.4-34.5.2z"/><path fill="#3c5786" stroke="#3c5786" d="m198.422 267.92-28.3-2.3-3.5 2.4z"/><path fill="#1c4075" stroke="#1c4075" d="m132.122 268.22 9.3 10.8 14.3-8.7z"/><path fill="#11346b" stroke="#11346b" d="m155.722 270.32 7 2-14.3 2.5z"/><path fill="#113771" stroke="#113771" d="m191.422 273.42-28.7-1.1-7-2z"/><path fill="#31477d" stroke="#31477d" d="m141.422 279.02-28.6-5.6 19.3-5.2z"/><path fill="#1b3f73" stroke="#1b3f73" d="m143.522 294.42-24.2 9.1 31.4.5z"/><path fill="#153d75" stroke="#153d75" d="m141.422 279.02-22.1 24.5 24.2-9.1z"/><path fill="#29467d" stroke="#29467d" d="m112.822 273.42 6.5 30.1 22.1-24.5z"/><path fill="#3c4a7b" stroke="#3c4a7b" d="m82.122 293.52 37.2 10-6.5-30.1z"/><path fill="#466485" stroke="#466485" d="m87.922 285.82-5.8 7.7 30.7-20.1z"/><path fill="#254478" stroke="#254478" d="m150.722 304.02-21.6 9.7-9.8-10.2z"/><path fill="#7e6b8a" stroke="#7e6b8a" d="m119.322 303.52-31.6 22.7-4.8-16.8z"/><path fill="#615f81" stroke="#615f81" d="m82.122 293.52.8 15.9 36.4-5.9z"/><path fill="#3a477a" stroke="#3a477a" d="m109.422 310.62 19.7 3.1-9.8-10.2z"/><path fill="#52577c" stroke="#52577c" d="m161.122 304.92-9.7 13.7-.7-14.6z"/><path fill="#4b547c" stroke="#4b547c" d="m129.122 313.72 22.3 4.9-.7-14.6z"/><path fill="#7a6b7e" stroke="#7a6b7e" d="m109.422 310.62-21.7 15.6 14.2 17.4z"/><path fill="#7f6f8a" stroke="#7f6f8a" d="m129.122 313.72-27.2 29.9 7.5-33z"/><path fill="#837088" stroke="#837088" d="m151.422 318.62-49.5 25 27.2-29.9z"/><path fill="#aa888f" stroke="#aa888f" d="m140.422 343.12 11-24.5-49.5 25z"/><path fill="#695e7e" stroke="#695e7e" d="m165.722 338.92-14.3-20.3-11 24.5z"/><path fill="#72637f" stroke="#72637f" d="m168.822 337.92-7.7-33-9.7 13.7z"/><path fill="#7d6880" stroke="#7d6880" d="m165.722 338.92 3.1-1-17.4-19.3z"/><path fill="#605a7c" stroke="#605a7c" d="m170.122 304.02-1.3 33.9-7.7-33z"/><path fill="#756c81" stroke="#756c81" d="m189.622 300.72 1 32.5-20.5-29.2z"/><path fill="#856d89" stroke="#856d89" d="m170.122 304.02 20.5 29.2-21.8 4.7z"/><path fill="#314b74" stroke="#314b74" d="m204.222 276.92-1.6 8.9-11.2-12.4z"/><path fill="#405388" stroke="#405388" d="m198.422 267.92-7 5.5 12.8 3.5z"/><path fill="#465c8b" stroke="#465c8b" d="m206.322 312.62-3.7-26.8 1.6-8.9z"/><path fill="#90768b" stroke="#90768b" d="m189.622 300.72 9.1 26.4-8.1 6.1z"/><path fill="#877989" stroke="#877989" d="m196.522 295.52 9.8 17.1-7.6 14.5z"/><path fill="#7f7589" stroke="#7f7589" d="m189.622 300.72 6.9-5.2 2.2 31.6z"/><path fill="#525374" stroke="#525374" d="m202.622 285.82-6.1 9.7 9.8 17.1z"/><path fill="#0f3472" stroke="#0f3472" d="m71.222 307.22-15.3-2.3v-13z"/><path fill="#193f7a" stroke="#193f7a" d="m30.922 290.12 25 1.8v13z"/><path fill="#0d3973" stroke="#0d3973" d="m38.822 313.72 17.1-8.8-25-14.8z"/><path fill="#0a2d66" stroke="#0a2d66" d="m36.822 332.82 13.3-24.9-11.3 5.8z"/><path fill="#092b5b" stroke="#092b5b" d="m32.822 295.62-31-2.1 29.1-3.4z"/><path fill="#264176" stroke="#264176" d="m1.822 293.52-34 8.4 23.1-11.8z"/><path fill="#2d4b70" stroke="#2d4b70" d="m-54.178 305.62 19.6-8.1 2.4 4.4z"/><path fill="#204375" stroke="#204375" d="m-9.078 290.12-25.5 7.4 2.4 4.4z"/><path fill="#2e4e67" stroke="#2e4e67" d="m-49.878 311.52 17.7-9.6-22 3.7z"/><path fill="#1d4e84" stroke="#1d4e84" d="m-73.878 317.82 24-6.3-4.3-5.9z"/><path fill="#234379" stroke="#234379" d="M-49.878 344.02v-32.5l-24 6.3z"/><path fill="#234d7e" stroke="#234d7e" d="m-73.278 331.82-.6-14 13.7 15z"/><path fill="#0d3f77" stroke="#0d3f77" d="m-62.678 339.52-10.6-7.7 13.1 1z"/><path fill="#214577" stroke="#214577" d="m-49.878 344.02-12.8-4.5 2.5-6.7z"/><path fill="#4c6d8a" stroke="#4c6d8a" d="m-62.678 339.52 1.6 2 12.3 14.9-1.1-12.4z"/><path fill="#113866" stroke="#113866" d="m-55.778 359.12 7-2.7-12.8-15.6z"/><path fill="#5d6786" stroke="#5d6786" d="m-43.178 364.92-5.6-8.5-2.3 10.6z"/><path fill="#435e8a" stroke="#435e8a" d="m-55.778 359.12 4.7 7.9 2.3-10.6z"/><path fill="#082161" stroke="#082161" d="m-43.178 364.92 27.4 4.1h-29z"/><path fill="#113653" stroke="#113653" d="m-51.078 367.02 6.3 2 1.6-4.1z"/><path fill="#05204e" stroke="#05204e" d="m-15.778 369.02 7.4-4.1h-34.8Z"/><path fill="#061e42" stroke="#061e42" d="m-15.778 369.02 18.6-1.2-11.2-2.9z"/><path fill="#032866" stroke="#032866" d="m6.722 361.72 10.6-4.2-14.5 10.3z"/><path fill="#fadaa5" stroke="#fadaa5" d="m12.822 370.52 26.1-7.4-19.3-8.6-2.3 3z"/><path fill="#efaaa1" stroke="#efaaa1" d="m49.222 367.82-36.4 2.7 26.1-7.4z"/><path fill="#fbd7a8" stroke="#fbd7a8" d="m71.222 307.22-34.4 25.6 13.3-24.9z"/><path fill="#9c8090" stroke="#9c8090" d="m55.922 304.92-5.8 3 21.1-.7z"/><path fill="#f7bba7" stroke="#f7bba7" d="m77.022 318.62-35.2 28.4 29.4-39.8z"/><path fill="#f9db9e" stroke="#f9db9e" d="m36.822 332.82 5 14.2 29.4-39.8z"/><path fill="#f2b095" stroke="#f2b095" d="m93.422 347.02-44.2 20.8 27.8-49.2z"/><path fill="#f6d4ae" stroke="#f6d4ae" d="m41.822 347.02 7.4 20.8 27.8-49.2z"/><path fill="#a77786" stroke="#a77786" d="m12.822 370.52 9.8 27 26.6-29.7z"/><path fill="#554f7b" stroke="#554f7b" d="m65.322 388.62-16.1-20.8-26.6 29.7z"/><path fill="#444876" stroke="#444876" d="m55.222 399.02 4.2-9.2-36.8 7.7z"/><path fill="#41457c" stroke="#41457c" d="m25.222 404.52 16.6 16.6-12.4-23.6z"/><path fill="#5b4e73" stroke="#5b4e73" d="m22.622 397.52 2.6 7 4.2-7z"/><path fill="#404b76" stroke="#404b76" d="m55.222 399.02-7.3 10.3-18.5-11.8z"/><path fill="#143976" stroke="#143976" d="m59.422 389.82 26.4 15.5-20.5-16.7z"/><path fill="#213e72" stroke="#213e72" d="m55.222 399.02 23.3 2-19.1-11.2z"/><path fill="#002a71" stroke="#002a71" d="m85.222 386.82 8.2 5.2-7.6 13.9z"/><path fill="#143774" stroke="#143774" d="M93.422 401.82v-9.8l-7.6 13.9z"/><path fill="#243e73" stroke="#243e73" d="m78.522 401.02 7.3 4.9-30.6-6.9z"/><path fill="#3c4477" stroke="#3c4477" d="m47.922 409.32 24.7 8.3-17.4-18.6z"/><path fill="#424e7e" stroke="#424e7e" d="m41.822 421.12 30.8-3.5-24.7-8.3z"/><path fill="#d68e91" stroke="#d68e91" d="m93.422 347.02 11.8 22.6-56-1.8z"/><path fill="#9d7180" stroke="#9d7180" d="m65.322 388.62 39.9-19-56-1.8z"/><path fill="#936d82" stroke="#936d82" d="m65.322 388.62 39.9-19-20 17.2z"/><path fill="#755a7d" stroke="#755a7d" d="m85.222 386.82 8.2 5.2 24.5-5.2z"/><path fill="#544b71" stroke="#544b71" d="m93.422 401.82 24.5 4.1-24.5-13.9z"/><path fill="#444674" stroke="#444674" d="m85.822 405.92 7.6-4.1 24.5 4.1z"/><path fill="#494d7b" stroke="#494d7b" d="m72.622 417.62 26-1.1-12.8-10.6z"/><path fill="#556097" stroke="#556097" d="m-20.078 298.92.7 9 21.2-14.4z"/><path fill="#1c437e" stroke="#1c437e" d="m-9.078 327.82-10.3-19.9 21.2-14.4z"/><path fill="#294680" stroke="#294680" d="m-1.878 318.62 2.6 7.6 10.2-5.8z"/><path fill="#1d4279" stroke="#1d4279" d="m1.822 311.72 9.1 8.7-12.8-1.8 3.7-6.9 12.1-3.8-3 12.5z"/><path fill="#274b7e" stroke="#274b7e" d="m8.922 335.62 7-6.6-5-8.6z"/><path fill="#193f76" stroke="#193f76" d="m13.922 307.92-3 12.5h7.8z"/><path fill="#3d5481" stroke="#3d5481" d="m8.922 335.62 19.7-13.2-12.7 6.6z"/><path fill="#3a5e81" stroke="#3a5e81" d="m15.922 329.02 2.8-8.6 9.9 2z"/><path fill="#34487e" stroke="#34487e" d="m-9.078 327.82 3.8 17.5 7.1-9.7z"/><path fill="#61546a" stroke="#61546a" d="m8.922 335.62-9.2 2.8 2.1-2.8z"/><path fill="#6c7d93" stroke="#6c7d93" d="m.722 326.22 1.1 9.4h7.1z"/><path fill="#254a80" stroke="#254a80" d="m-9.078 327.82 9.8-1.6 1.1 9.4z"/><path fill="#1b3f79" stroke="#1b3f79" d="m-1.878 318.62-7.2 9.2 9.8-1.6z"/><path fill="#244376" stroke="#244376" d="m-4.378 312.92 2.5 5.7-7.2 9.2z"/><path fill="#0f3b76" stroke="#0f3b76" d="m1.822 293.52 12.1 14.4-12.1 3.8z"/><path fill="#1d3f76" stroke="#1d3f76" d="m-1.878 318.62 3.7-6.9-6.2 1.2z"/><path fill="#123b76" stroke="#123b76" d="m1.822 293.52-6.2 19.4 6.2-1.2z"/><path fill="#1a4178" stroke="#1a4178" d="m32.822 314.12 6-.4-6-18.1z"/><path fill="#163b74" stroke="#163b74" d="m13.922 307.92 18.9-12.3-31-2.1z"/><path fill="#1c3e78" stroke="#1c3e78" d="m32.822 314.12-18.9-6.2 18.9-12.3z"/><path fill="#234b78" stroke="#234b78" d="m18.722 320.42-4.8-12.5 18.9 6.2z"/><path fill="#cbb5b2" stroke="#cbb5b2" d="m-5.278 345.32 1.6 18.6 10.4-2.2z"/><path fill="#9d8790" stroke="#9d8790" d="m8.922 335.62-2.2 26.1-12-16.4z"/><path fill="#a49cb8" stroke="#a49cb8" d="m-.278 338.42-5 6.9 14.2-9.7z"/><path fill="#3d4c83" stroke="#3d4c83" d="m38.822 313.72-10.2 8.7 8.2 10.4z"/><path fill="#2b4172" stroke="#2b4172" d="m32.822 314.12-4.2 8.3 10.2-8.7z"/><path fill="#606084" stroke="#606084" d="m8.922 335.62 20.5 6.5-.8-19.7z"/><path fill="#7b6e7e" stroke="#7b6e7e" d="m36.822 332.82-7.4 9.3-.8-19.7z"/><path fill="#807d83" stroke="#807d83" d="m17.322 357.52-8.4-21.9-2.2 26.1z"/><path fill="#63657d" stroke="#63657d" d="m29.422 342.12-12.1 15.4-8.4-21.9z"/><path fill="#07100f" stroke="#07100f" d="m-49.878 333.42 27.6 4.2-27.6-10.5z"/><path fill="#0e1440" stroke="#0e1440" d="m-6.478 339.82-15.8-2.2 14.3-4.5z"/><path fill="#364d75" stroke="#364d75" d="m-44.278 329.02 33.3 5-11.3 3.6z"/><path fill="#836286" stroke="#836286" d="m37.322 452.42 17 5.9-26.2 6z"/><path fill="#3d4173" stroke="#3d4173" d="m85.622 454.22 18.9 11.6-50.2-7.5z"/><path fill="#68547b" stroke="#68547b" d="m28.122 464.32-2.9 8 29.1-14z"/><path fill="#194173" stroke="#194173" d="m145.522 479.82-22-4.3 19.6 11z"/><path fill="#213c6f" stroke="#213c6f" d="m104.522 465.82 19 9.7 1.5 9.7z"/><path fill="#2d396d" stroke="#2d396d" d="m54.322 458.32 5.1 21.5 45.1-14z"/><path fill="#0c3677" stroke="#0c3677" d="m97.522 478.82-38.1 1 45.1-14z"/><path fill="#4f4a77" stroke="#4f4a77" d="m54.322 458.32-10.4 22.7-18.7-8.7z"/><path fill="#304178" stroke="#304178" d="m59.422 479.82-15.5 1.2 10.4-22.7z"/><path fill="#90718a" stroke="#90718a" d="m143.122 486.52-22.1 18.3 4-19.6z"/><path fill="#967194" stroke="#967194" d="m97.522 478.82 23.5 26 4-19.6z"/><path fill="#c28197" stroke="#c28197" d="m59.422 479.82-1.1 21.7 39.2-22.7z"/><path fill="#946d8d" stroke="#946d8d" d="m114.222 497.32-55.9 4.2 39.2-22.7z"/><path fill="#7e5f7e" stroke="#7e5f7e" d="m121.022 504.82-15.4 10.4 8.6-17.9z"/><path fill="#866385" stroke="#866385" d="m86.222 510.52 19.4 4.7 8.6-17.9z"/><path fill="#60507c" stroke="#60507c" d="m58.322 511.72 27.9-1.2 28-13.2z"/><path fill="#7c577f" stroke="#7c577f" d="m114.222 497.32-55.9 14.4v-10.2z"/><path fill="#946d84" stroke="#946d84" d="m23.322 502.32 2.7 9.4 32.3-10.2z"/><path fill="#c08995" stroke="#c08995" d="m33.622 486.52 24.7 15-35 .8z"/><path fill="#dc94a5" stroke="#dc94a5" d="m59.422 479.82-15.5 1.2 14.4 20.5z"/><path fill="#bca5a7" stroke="#bca5a7" d="m23.322 502.32-2.8 4.3 5.5 5.1z"/><path fill="#99878a" stroke="#99878a" d="m38.722 442.52-16.1 19.3 19.2-40.7z"/><path fill="#f6d7b3" stroke="#f6d7b3" d="m-6.478 369.02-2.6 24.3 14.9-20.1z"/><path fill="#b69797" stroke="#b69797" d="m12.822 370.52-7 2.7-12.3-4.2z"/><path fill="#a18484" stroke="#a18484" d="m14.222 366.42-20.7 2.6 19.3 1.5z"/><path fill="#d9b09c" stroke="#d9b09c" d="M-9.078 393.32v37.9l50.9-10.1z"/><path fill="#f1cea4" stroke="#f1cea4" d="m12.822 370.52 9.8 27-31.7-4.2z"/><path fill="#dab59f" stroke="#dab59f" d="m5.822 373.22 7-2.7-21.9 22.8z"/><path fill="#cd9f95" stroke="#cd9f95" d="m22.622 397.52 5.5 16.2-37.2-20.4z"/><path fill="#8e728f" stroke="#8e728f" d="m41.822 421.12-16.6-16.6 2.9 9.2z"/><path fill="#c18c93" stroke="#c18c93" d="m-9.078 431.22 16.2 25.3 34.7-35.4z"/><path fill="#cba29d" stroke="#cba29d" d="m-5.878 464.32 13-7.8-16.2-25.3z"/><path fill="#be9899" stroke="#be9899" d="m1.822 507.72-7.7-43.4 13-7.8z"/><path fill="#b7a5a0" stroke="#b7a5a0" d="m26.022 511.72 2.1 18.5-7.6-23.6z"/><path fill="#fed1b8" stroke="#fed1b8" d="m38.722 442.52-1.4 9.9-14.7 9.4z"/><path fill="#d1afa7" stroke="#d1afa7" d="m25.222 472.32-2.6-10.5 5.5 2.5z"/><path fill="#a69497" stroke="#a69497" d="m24.122 482.32-17-25.8 15.5 5.3z"/><path fill="#a48899" stroke="#a48899" d="m25.222 472.32-2.6-10.5 1.5 20.5z"/><path fill="#54597d" stroke="#54597d" d="m23.322 502.32-16.2-45.8 17 25.8z"/><path fill="#84788f" stroke="#84788f" d="m1.822 507.72 21.5-5.4-15.9-45.4z"/><path fill="#606081" stroke="#606081" d="m20.522 506.62-18.7 1.1 21.5-5.4z"/><path fill="#946d84" stroke="#946d84" d="m28.122 530.22 9.7-18.5h-11.8z"/><path fill="#927f8e" stroke="#927f8e" d="m1.822 507.72 6.4 31.2 12.3-32.3z"/><path fill="#74768c" stroke="#74768c" d="m19.822 565.42.7-58.8-12.3 32.3z"/><path fill="#887e8a" stroke="#887e8a" d="m28.122 530.22-8.3 35.2.7-58.8z"/><path fill="#163e76" stroke="#163e76" d="m86.222 510.52-19.2 33.8-29.2-32.6z"/><path fill="#234174" stroke="#234174" d="m105.622 515.22-38.6 29.1 19.2-33.8z"/><path fill="#234674" stroke="#234674" d="m94.822 544.32.8-21.5-28.6 21.5z"/><path fill="#334173" stroke="#334173" d="m95.622 522.82 7.1-5.4-7.9 26.9z"/><path fill="#525079" stroke="#525079" d="m46.022 547.62-15-4.3 6.8-31.6z"/><path fill="#6a6187" stroke="#6a6187" d="m47.822 555.32-16.8-12 15 4.3z"/><path fill="#755e7d" stroke="#755e7d" d="m37.822 511.72-9.7 18.5 2.9 13.1z"/><path fill="#766b81" stroke="#766b81" d="m24.822 544.32 6.2-1-2.9-13.1z"/><path fill="#596b7e" stroke="#596b7e" d="M24.822 560.72v-16.4l-5 21.1z"/><path fill="#596787" stroke="#596787" d="m29.022 583.82-9.2-18.4 5-4.7z"/><path fill="#5b7182" stroke="#5b7182" d="m36.322 597.52-7.3-13.7 4-5z"/><path fill="#686f82" stroke="#686f82" d="m24.822 560.72 8.2 18.1-4 5z"/><path fill="#7a788c" stroke="#7a788c" d="m31.022 543.32-6.2 17.4v-16.4z"/><path fill="#8c7d89" stroke="#8c7d89" d="m47.822 555.32-23 5.4 6.2-17.4z"/><path fill="#373c6f" stroke="#373c6f" d="m33.622 486.52 10.3-5.5-19.8 1.3z"/><path fill="#e1aeaf" stroke="#e1aeaf" d="m58.322 501.52-14.4-20.5-10.3 5.5z"/><path fill="#9b8b8d" stroke="#9b8b8d" d="m33.022 578.82 14.8-23.5-23 5.4z"/><path fill="#777c97" stroke="#777c97" d="m94.822 544.32-47 11 19.2-11z"/><path fill="#1d467e" stroke="#1d467e" d="m36.322 597.52 17.7 26.5 4.3-27.4z"/><path fill="#666380" stroke="#666380" d="m33.022 578.82 25.3 17.8-22 .9z"/><path fill="#0b3770" stroke="#0b3770" d="m54.022 624.02 14.6 8.2 16.7-34.7z"/><path fill="#1a3f77" stroke="#1a3f77" d="m58.322 596.62 27 .9-31.3 26.5z"/><path fill="#08346e" stroke="#08346e" d="m68.622 632.22 24.2 1.3-7.5-36z"/><path fill="#b59995" stroke="#b59995" d="m33.022 578.82 14.8-23.5-8.4 28z"/><path fill="#706e83" stroke="#706e83" d="m60.022 571.22-1.7 25.4-18.9-13.3z"/><path fill="#dbaba3" stroke="#dbaba3" d="m68.122 550.52-8.1 20.7-12.2-15.9z"/><path fill="#052f6f" stroke="#052f6f" d="m92.822 633.52 26.1-7.2-33.6-28.8z"/><path fill="#0c3771" stroke="#0c3771" d="m148.622 618.02-29.7 8.3-33.6-28.8z"/><path fill="#143b75" stroke="#143b75" d="m187.822 599.72-39.2 18.3-63.3-20.5z"/><path fill="#374c77" stroke="#374c77" d="m166.122 566.22 21.7 33.5-102.5-2.2z"/><path fill="#52567f" stroke="#52567f" d="m60.022 571.22 25.3 26.3-27-.9z"/><path fill="#b48d8e" stroke="#b48d8e" d="m68.122 550.52-8.1 20.7 34.8-26.9z"/><path fill="#a5858e" stroke="#a5858e" d="m94.822 544.32 10.8 25 8.6-31.8z"/><path fill="#515675" stroke="#515675" d="m113.322 586.62-7.7-17.3-20.3 28.2z"/><path fill="#af898c" stroke="#af898c" d="m94.822 544.32-4.7 26.6 15.5-1.6z"/><path fill="#736081" stroke="#736081" d="m85.322 597.52 4.8-26.6 15.5-1.6z"/><path fill="#52587d" stroke="#52587d" d="m113.322 586.62 33.3-37.3 19.5 16.9z"/><path fill="#676380" stroke="#676380" d="m105.622 569.32 41-20-33.3 37.3z"/><path fill="#685779" stroke="#685779" d="m121.022 504.82-6.8 32.7-11.5-20.1z"/><path fill="#8f6d81" stroke="#8f6d81" d="m121.022 504.82 22.1-18.3-26.4 39z"/><path fill="#595479" stroke="#595479" d="m141.022 512.72 5.6 36.6-29.9-23.8z"/><path fill="#5e5f7e" stroke="#5e5f7e" d="m114.222 537.52 2.5-12 29.9 23.8z"/><path fill="#0b3670" stroke="#0b3670" d="m92.822 633.52 43 55.5 12.8-71z"/><path fill="#0f3872" stroke="#0f3872" d="m68.622 632.22 67.2 56.8-43-55.5z"/><path fill="#103873" stroke="#103873" d="m187.822 599.72 47.5 59.6-86.7-41.3z"/><path fill="#0a3572" stroke="#0a3572" d="m135.822 689.02 99.5-29.7-86.7-41.3z"/><path fill="#645b7d" stroke="#645b7d" d="m77.422 639.62 1.6 35.2 56.8 14.2z"/><path fill="#82677e" stroke="#82677e" d="m68.022 689.02 11-14.2 56.8 14.2z"/><path fill="#253a6e" stroke="#253a6e" d="M235.322 659.32v29.7h-99.5z"/><path fill="#153d78" stroke="#153d78" d="m58.122 626.32-19.8 14.4 40.7 34.1z"/><path fill="#1a366a" stroke="#1a366a" d="m77.422 639.62-8.8-7.4 10.4 42.6z"/><path fill="#0f3473" stroke="#0f3473" d="m58.122 626.32 10.5 5.9 10.4 42.6z"/><path fill="#1a3f76" stroke="#1a3f76" d="m38.322 640.72-14.7 17 55.4 17.1z"/><path fill="#143b77" stroke="#143b77" d="M68.022 689.02h-65.7l21.3-31.3z"/><path fill="#002669" stroke="#002669" d="m79.022 674.82-11 14.2-44.4-31.3z"/><path fill="#64597a" stroke="#64597a" d="m85.322 597.52-25.3-26.3 30.1-.3z"/><path fill="#0d3872" stroke="#0d3872" d="m235.322 659.32 61.2-41.3-108.7-18.3z"/><path fill="#274376" stroke="#274376" d="m327.822 547.62-31.3 70.4-108.7-18.3z"/><path fill="#334475" stroke="#334475" d="m166.122 566.22 161.7-18.6-140 52.1z"/><path fill="#414c7a" stroke="#414c7a" d="m143.122 486.52 96.6 71.2-73.6 8.5z"/><path fill="#7b6d82" stroke="#7b6d82" d="m141.022 512.72 2.1-26.2 12.9 44.5z"/><path fill="#585379" stroke="#585379" d="m146.622 549.32 9.4-18.3-15-18.3z"/><path fill="#4d547a" stroke="#4d547a" d="m166.122 566.22-19.5-16.9 9.4-18.3z"/><path fill="#48517c" stroke="#48517c" d="m302.822 525.52-63.1 32.2 88.1-10.1z"/><path fill="#334173" stroke="#334173" d="m296.522 618.02-61.2 71v-29.7z"/><path fill="#7b6d86" stroke="#7b6d86" d="m373.522 588.22 13.6 27.3-28.3 25.2z"/><path fill="#837080" stroke="#837080" d="m369.122 543.32 4.4 44.9-45.7 30.8z"/><path fill="#7f7789" stroke="#7f7789" d="m369.922 490.42-.8 52.9-26.6-31.4z"/><path fill="#7d7982" stroke="#7d7982" d="m361.322 466.32 8.6 24.1-27.4 21.5z"/><path fill="#808a96" stroke="#808a96" d="m369.422 466.82.5 23.6-8.6-24.1z"/><path fill="#8a7688" stroke="#8a7688" d="m342.522 511.92-14.7 107.1 41.3-75.7z"/><path fill="#5e5979" stroke="#5e5979" d="m296.522 618.02 31.3 1 14.7-107.1z"/><path fill="#6e617f" stroke="#6e617f" d="m358.822 640.72-31-21.7 45.7-30.8z"/><path fill="#5c5778" stroke="#5c5778" d="m263.622 656.22 95.2-15.5-62.3-22.7z"/><path fill="#635d7a" stroke="#635d7a" d="m327.822 619.02-31.3-1 62.3 22.7z"/><path fill="#7f6a81" stroke="#7f6a81" d="m361.322 689.02-2.5-48.3 28.3-25.2z"/><path fill="#695c7c" stroke="#695c7c" d="m263.622 656.22 97.7 32.8-2.5-48.3z"/><path fill="#555373" stroke="#555373" d="m235.322 689.02 28.3-32.8 97.7 32.8z"/><path fill="#123d74" stroke="#123d74" d="m401.622 601.02 3.5 32.5 16-31.3z"/><path fill="#103b75" stroke="#103b75" d="m443.122 614.42-22-12.2-16 31.3z"/><path fill="#09336d" stroke="#09336d" d="m401.622 601.02-21.1 1.2 24.6 31.3z"/><path fill="#1b254a" stroke="#1b254a" d="m387.122 615.52-6.6-13.3 24.6 31.3z"/><path fill="#0c3774" stroke="#0c3774" d="m443.122 614.42 13.9 14.9-51.9 4.2z"/><path fill="#05336e" stroke="#05336e" d="m475.322 649.82-92.1 11.5 73.8-32z"/><path fill="#03306e" stroke="#03306e" d="m405.122 633.52-21.9 27.8 73.8-32z"/><path fill="#012b6c" stroke="#012b6c" d="M432.122 655.22v33.8h-70.8z"/><path fill="#012d6e" stroke="#012d6e" d="m383.222 661.32-21.9 27.7 70.8-33.8z"/><path fill="#022f6d" stroke="#022f6d" d="m475.322 649.82-43.2 39.2v-33.8z"/><path fill="#073470" stroke="#073470" d="m493.822 662.52-18.5-12.7-43.2 39.2z"/><path fill="#143c77" stroke="#143c77" d="m517.822 672.62-24-10.1-16.2 26.5z"/><path fill="#0a356f" stroke="#0a356f" d="M432.122 689.02h45.5l16.2-26.5z"/><path fill="#133b75" stroke="#133b75" d="M517.822 672.62v16.4h-40.2z"/><path fill="#efabb1" stroke="#efabb1" d="M54.322 451.02v7.3l-17-5.9z"/><path fill="#e6a5a9" stroke="#e6a5a9" d="m38.722 442.52 15.6 8.5-16.4-3z"/><path fill="#e9afad" stroke="#e9afad" d="m37.322 452.42.6-4.4 16.4 3z"/><path fill="#d89998" stroke="#d89998" d="m54.322 451.02 19-4.5-19 11.8z"/><path fill="#bc9499" stroke="#bc9499" d="m72.622 437.02.7 9.5-19 4.5z"/><path fill="#cba9ab" stroke="#cba9ab" d="m38.722 442.52 5.2-.8-4-7.8z"/><path fill="#7b7586" stroke="#7b7586" d="m41.822 421.12 11.1-1.2-13 14z"/><path fill="#565980" stroke="#565980" d="M72.622 417.62v19.4l-19.7-17.1z"/><path fill="#776480" stroke="#776480" d="m43.922 441.72 28.7-4.7-19.7-17.1z"/><path fill="#b87c8b" stroke="#b87c8b" d="m72.622 437.02 13 17.2-12.3-7.7z"/><path fill="#a47486" stroke="#a47486" d="m104.522 465.82-8.6-14.8-10.3 3.2z"/><path fill="#c7888f" stroke="#c7888f" d="m95.922 451.02-23.3-14 13 17.2z"/><path fill="#5b5f84" stroke="#5b5f84" d="m98.622 416.52-26 20.5v-19.4z"/><path fill="#847589" stroke="#847589" d="m95.922 451.02 2.7-34.5-26 20.5z"/><path fill="#666d88" stroke="#666d88" d="m98.622 416.52 19.3-10.6-22 45.1z"/><path fill="#77697d" stroke="#77697d" d="m95.922 451.02 49.6 28.8-41-14z"/><path fill="#4a4a76" stroke="#4a4a76" d="m123.522 475.52-19-9.7 41 14z"/><path fill="#6c6981" stroke="#6c6981" d="m160.122 437.02-64.2 14 49.6 28.8z"/><path fill="#606283" stroke="#606283" d="m187.822 481.02 51.9 76.7-96.6-71.2z"/><path fill="#52547d" stroke="#52547d" d="m145.522 479.82-2.4 6.7 44.7-5.5z"/><path fill="#565775" stroke="#565775" d="m302.822 525.52-115-44.5 51.9 76.7z"/><path fill="#6f6b7f" stroke="#6f6b7f" d="m361.322 466.32-173.5 14.7 115 44.5z"/><path fill="#876e80" stroke="#876e80" d="m160.122 437.02 164-57.9-136.3 101.9z"/><path fill="#877b8c" stroke="#877b8c" d="m361.322 466.32-37.2-87.2-136.3 101.9z"/><path fill="#665e7e" stroke="#665e7e" d="m241.222 293.92 46.4 17.3-71.1-14.9z"/><path fill="#907b87" stroke="#907b87" d="m213.222 326.02 56.1-2.7-52.8-27z"/><path fill="#cda191" stroke="#cda191" d="m226.322 350.32 43-27-56.1 2.7z"/><path fill="#a57d86" stroke="#a57d86" d="m149.122 344.52 77.2 5.8-44.8-10.2z"/><path fill="#a88788" stroke="#a88788" d="m207.422 331.12-6 13.4-19.9-4.4z"/><path fill="#c19494" stroke="#c19494" d="m226.322 350.32-18.9-19.2 5.8-5.1z"/><path fill="#c8948e" stroke="#c8948e" d="m201.422 344.52 6-13.4 18.9 19.2z"/><path fill="#5e597e" stroke="#5e597e" d="M93.422 347.02h15.8l-4 22.6z"/><path fill="#795f84" stroke="#795f84" d="m121.122 366.52-3.2 20.3-12.7-17.2z"/><path fill="#665a7c" stroke="#665a7c" d="m117.922 405.92 10.1-8.4-10.1-10.7z"/><path fill="#73607b" stroke="#73607b" d="m121.122 366.52 6.9 31-10.1-10.7z"/><path fill="#a57c8a" stroke="#a57c8a" d="m160.122 437.02-32.1-39.5-10.1 8.4z"/><path fill="#a98790" stroke="#a98790" d="m121.122 366.52 28-22-39.9 2.5z"/><path fill="#ca9693" stroke="#ca9693" d="m226.322 350.32-105.2 16.2 28-22z"/><path fill="#9e7485" stroke="#9e7485" d="m128.022 397.52 98.3-47.2-105.2 16.2z"/><path fill="#aa7d86" stroke="#aa7d86" d="m204.222 421.52-21.6-50.2-22.5 65.7z"/><path fill="#b4858a" stroke="#b4858a" d="m128.022 397.52 54.6-26.2-22.5 65.7z"/><path fill="#a97e85" stroke="#a97e85" d="m283.622 393.42-101-22.1 21.6 50.2z"/><path fill="#b1858c" stroke="#b1858c" d="m226.322 350.32 57.3 43.1-101-22.1z"/><path fill="#cb9a91" stroke="#cb9a91" d="m281.922 372.52-2.9-55.6-52.7 33.4z"/><path fill="#a8898e" stroke="#a8898e" d="m283.622 393.42-1.7-20.9-55.6-22.2z"/><path fill="#a98389" stroke="#a98389" d="m279.022 316.92 8.6-5.7 12.5 20.8z"/><path fill="#b0838b" stroke="#b0838b" d="m315.622 357.82-34.5-.9 19-24.9z"/><path fill="#b18789" stroke="#b18789" d="m279.022 316.92 21.1 15.1-19 24.9z"/><path fill="#a9878a" stroke="#a9878a" d="m324.122 379.12-42.2-6.6 1.7 20.9z"/><path fill="#be8d94" stroke="#be8d94" d="m281.122 356.92 43 22.2-42.2-6.6z"/><path fill="#a38490" stroke="#a38490" d="m315.622 357.82 8.5 21.3-43-22.2z"/><path fill="#395580" stroke="#395580" d="m306.422 280.72-9.9-31 49.3 37.1z"/><path fill="#3c5983" stroke="#3c5983" d="m378.922 308.32-33.1-21.5 58.7-8.6z"/><path fill="#3d537d" stroke="#3d537d" d="m296.522 249.72 49.3 37.1 58.7-8.6z"/><path fill="#586686" stroke="#586686" d="m245.622 199.02 50.9 50.7 74.2-10.7z"/><path fill="#0b3c79" stroke="#0b3c79" d="m406.122 242.82-1.6 35.4-33.8-39.2z"/><path fill="#143f7b" stroke="#143f7b" d="m406.422 220.32-35.7 18.7 35.4 3.8z"/><path fill="#0b3471" stroke="#0b3471" d="m394.122 169.52 12.3 50.8-35.7 18.7z"/><path fill="#0f3b71" stroke="#0f3b71" d="m378.622 215.52-61.9-63-34.6 22.6z"/><path fill="#495884" stroke="#495884" d="m245.622 199.02 36.5-23.9 88.6 63.9z"/><path fill="#274977" stroke="#274977" d="m378.622 215.52-7.9 23.5-88.6-63.9z"/><path fill="#05336e" stroke="#05336e" d="m316.722 152.52 43-25.7 18.9 88.7z"/><path fill="#0d3570" stroke="#0d3570" d="m394.122 169.52-34.4-42.7 18.9 88.7z"/><path fill="#07316e" stroke="#07316e" d="m359.722 126.82-36.1-36.8-6.9 62.5z"/><path fill="#0a356f" stroke="#0a356f" d="m293.322 67.32 23.4 85.2 6.9-62.5z"/><path fill="#133973" stroke="#133973" d="m316.722 152.52-49.6-21.5-70.6 13.3z"/><path fill="#0e3975" stroke="#0e3975" d="m211.522 120.72-21.2-26.9-28.5 17.7z"/><path fill="#032f6f" stroke="#032f6f" d="m267.122 131.02 26.2-63.7 23.4 85.2z"/><path fill="#012d6c" stroke="#012d6c" d="m211.522 120.72 81.8-53.4-26.2 63.7z"/><path fill="#2c4b85" stroke="#2c4b85" d="m4.122 178.82 12.2-25-13.5-1.3z"/><path fill="#335695" stroke="#335695" d="m-8.778 230.02 12.9-51.2-8.5 4z"/><path fill="#0e3d73" stroke="#0e3d73" d="m120.822 78.02-41.7 9.5-1.1 13.6z"/><path fill="#183e77" stroke="#183e77" d="m61.122 90.02 18-2.5-1.1 13.6z"/><path fill="#14457d" stroke="#14457d" d="m16.322 121.32 29-41-5.5 44.5z"/><path fill="#355489" stroke="#355489" d="m61.122 90.02-15.8-9.7-5.5 44.5z"/><path fill="#274479" stroke="#274479" d="m85.622 281.82-10-21.4 19.2 16.3z"/><path fill="#183f75" stroke="#183f75" d="m94.822 276.72 17.6-8.8-36.8-7.5z"/><path fill="#485d87" stroke="#485d87" d="m55.922 291.92-5.2-1.8 22.5-3.6z"/><path fill="#506899" stroke="#506899" d="M30.922 290.12h19.8l5.2 1.8z"/><path fill="#575476" stroke="#575476" d="m75.622 260.42-19.7 1.2 29.7 20.2z"/><path fill="#595a80" stroke="#595a80" d="m73.222 286.52 8.4-2.6-7.8-10.1z"/><path fill="#615981" stroke="#615981" d="m55.922 261.62 17.9 12.2-.6 12.7z"/><path fill="#445c93" stroke="#445c93" d="m85.622 281.82-4 2.1-7.8-10.1z"/><path fill="#424e77" stroke="#424e77" d="m50.722 290.12-5.8-28.5h11z"/><path fill="#0e3871" stroke="#0e3871" d="m85.222 243.02 21.9-10.6 5.3 35.5z"/><path fill="#103971" stroke="#103971" d="m144.722 260.42-37.6-28 5.3 35.5z"/><path fill="#174078" stroke="#174078" d="m128.422 226.72 16.3 33.7-37.6-28z"/><path fill="#1e4076" stroke="#1e4076" d="m155.522 225.42-27.1 1.3 16.3 33.7z"/><path fill="#174174" stroke="#174174" d="m171.822 258.42-16.3-33-10.8 35z"/><path fill="#2e5179" stroke="#2e5179" d="m185.722 229.12-13.9 29.3-16.3-33z"/><path fill="#3f507e" stroke="#3f507e" d="m171.822 258.42 13.9-29.3 4.9 29.4z"/><path fill="#3d517b" stroke="#3d517b" d="m190.622 258.52 21.4-22.2 9.9 23.5z"/><path fill="#4a5a86" stroke="#4a5a86" d="m221.922 259.82 11.8 6.7-4.9-21.9z"/><path fill="#676d8f" stroke="#676d8f" d="m247.722 262.62 4 8.5-18-4.6z"/><path fill="#ad8c8c" stroke="#ad8c8c" d="m274.422 276.92 4.7-44.5-31.4 30.2z"/><path fill="#7f7b8d" stroke="#7f7b8d" d="m251.722 271.12-4-8.5 26.7 14.3z"/><path fill="#a9878e" stroke="#a9878e" d="m245.622 199.02-16.8 45.6 50.3-12.2z"/><path fill="#b2888b" stroke="#b2888b" d="m247.722 262.62-18.9-18 50.3-12.2z"/><path fill="#174273" stroke="#174273" d="m44.922 261.62-16.8-7 22.6 35.5z"/><path fill="#153a72" stroke="#153a72" d="m30.922 290.12 3.1-26.1 16.7 26.1z"/><path fill="#0f3777" stroke="#0f3777" d="M30.922 290.12h-40l43.1-26.1z"/><path fill="#5b648b" stroke="#5b648b" d="m1.822 253.52 26.3 1.1 5.9 9.4z"/><path fill="#63799c" stroke="#63799c" d="m-10.678 258.02 12.5-4.5-3.7 12.6z"/><path fill="#5f88a0" stroke="#5f88a0" d="m-18.678 273.42 8-15.4 8.8 8.1z"/><path fill="#59779e" stroke="#59779e" d="m-21.778 282.42-.5 11.5 13.2-3.8z"/><path fill="#4d6593" stroke="#4d6593" d="m-18.678 273.42 12.1 8.4-15.2.6z"/><path fill="#415684" stroke="#415684" d="m-1.878 266.12-4.7 15.7-12.1-8.4z"/><path fill="#315581" stroke="#315581" d="m-9.078 290.12 2.5-8.3-15.2.6z"/><path fill="#f3d8ac" stroke="#f3d8ac" d="m-8.778 230.02.9 27 9.7-3.5z"/><path fill="#eac9a1" stroke="#eac9a1" d="m28.122 254.62-36.9-24.6 10.6 23.5z"/><path fill="#e3b1a0" stroke="#e3b1a0" d="m49.122 234.32-37 9.7 16 10.6z"/><path fill="#5e637e" stroke="#5e637e" d="m44.922 261.62-9.7-13.8 20.7 13.8z"/><path fill="#af8189" stroke="#af8189" d="m49.122 234.32 6.8 27.3-20.7-13.8z"/><path fill="#5b5876" stroke="#5b5876" d="m75.622 260.42 2.4-20.7 7.2 3.3z"/><path fill="#655c80" stroke="#655c80" d="m55.922 261.62 22.1-21.9-2.4 20.7z"/><path fill="#c79691" stroke="#c79691" d="m49.122 234.32 28.9 5.4-22.1 21.9z"/><path fill="#886377" stroke="#886377" d="m107.122 232.42-29.1 7.3 7.2 3.3z"/><path fill="#d09c97" stroke="#d09c97" d="m49.122 234.32 61.3-8.3-32.4 13.7z"/><path fill="#eebda0" stroke="#eebda0" d="m155.522 216.22 9.8-28.4-54.5 38.1z"/><path fill="#937f90" stroke="#937f90" d="m128.422 226.72-18-.7-32.4 13.7z"/><path fill="#767a8d" stroke="#767a8d" d="M155.522 216.22v9.2l-23.9-5.4z"/><path fill="#a899a7" stroke="#a899a7" d="m110.422 226.02 21.2-6 23.9 5.4z"/><path fill="#8d7b93" stroke="#8d7b93" d="m128.422 226.72-17.6-.8 44.7-.5z"/><path fill="#7c7688" stroke="#7c7688" d="m155.522 216.22 14.6 1.6-14.6 7.6z"/><path fill="#797591" stroke="#797591" d="m185.722 229.12-15.6-11.3-14.6 7.6z"/><path fill="#9f888d" stroke="#9f888d" d="m188.322 224.92-18.2-7.1 15.6 11.3z"/><path fill="#767587" stroke="#767587" d="m212.022 236.32-23.7-11.4-2.6 4.2z"/><path fill="#c5908f" stroke="#c5908f" d="m245.622 199.02-33.6 37.3 16.8 8.3z"/><path fill="#cd9f99" stroke="#cd9f99" d="m208.422 157.62-20.1 67.3 57.3-25.9z"/><path fill="#c59996" stroke="#c59996" d="m212.022 236.32-23.7-11.4 57.3-25.9z"/><path fill="#e9afa2" stroke="#e9afa2" d="m196.522 144.32-85.7 81.6 97.6-68.3z"/><path fill="#d1a594" stroke="#d1a594" d="m188.322 224.92-23-37.1 43.1-30.2z"/><path fill="#e6b294" stroke="#e6b294" d="m170.122 217.82-4.8-30-9.8 28.4z"/><path fill="#eab49e" stroke="#eab49e" d="m188.322 224.92-18.2-7.1-4.8-30z"/><path fill="#d7a598" stroke="#d7a598" d="m196.522 144.32-74.2-2.5 28.4 46z"/><path fill="#f5c9ab" stroke="#f5c9ab" d="m49.122 234.32 36.7-55.5 25 47.1z"/><path fill="#f6ccab" stroke="#f6ccab" d="m150.722 187.82-64.9-9 25 47.1z"/><path fill="#f1b5a0" stroke="#f1b5a0" d="m87.722 152.52 34.6-10.7 28.4 46z"/><path fill="#fabba8" stroke="#fabba8" d="m85.822 178.82 1.9-26.3 63 35.3z"/><path fill="#f3d0aa" stroke="#f3d0aa" d="m122.322 141.82 7.8-42 31.7 11.7z"/><path fill="#e7b59d" stroke="#e7b59d" d="m196.522 144.32-74.2-2.5 39.5-30.3z"/><path fill="#f5d9ac" stroke="#f5d9ac" d="m87.722 152.52-47.9-27.7 38.2-23.7z"/><path fill="#f5cdae" stroke="#f5cdae" d="m130.122 99.82-7.8 42-44.3-40.7z"/><path fill="#f5d9ae" stroke="#f5d9ae" d="m87.722 152.52 34.6-10.7-44.3-40.7z"/><path fill="#f7d6b5" stroke="#f7d6b5" d="m4.122 178.82 78.8-3.7-66.6-21.3z"/><path fill="#f5d9ac" stroke="#f5d9ac" d="m39.822 124.82 12.7 40.6 35.2-12.9z"/><path fill="#f5d9aa" stroke="#f5d9aa" d="m82.922 175.12-30.4-9.7 35.2-12.9z"/><path fill="#f5d9ac" stroke="#f5d9ac" d="m16.322 153.82 23.5-29 12.7 40.6z"/><path fill="#f6d4ab" stroke="#f6d4ab" d="m49.122 234.32-45-55.5 62.4 29.2z"/><path fill="#f3d0a7" stroke="#f3d0a7" d="m85.822 178.82-43.9 17.7 24.6 11.5z"/><path fill="#f3c4a8" stroke="#f3c4a8" d="m82.922 175.12-3.2 6.1 6.1-2.4z"/><path fill="#f4daab" stroke="#f4daab" d="m41.922 196.52.9-19.5-38.7 1.8z"/><path fill="#f8d2ae" stroke="#f8d2ae" d="m79.722 181.22-37.8 15.3.9-19.5z"/><path fill="#f3cbad" stroke="#f3cbad" d="m82.922 175.12-40.1 1.9 36.9 4.2z"/><path fill="#f5d9ac" stroke="#f5d9ac" d="m4.122 178.82-12.9 51.2 57.9 4.3zm8 65.2-20.9-14 57.9 4.3z"/><path fill="#1c4a82" stroke="#1c4a82" d="m74.322 62.82-29 17.5 15.8 9.7z"/><path fill="#1c3f7e" stroke="#1c3f7e" d="m16.322 86.32 3.7 29.7 25.3-35.7z"/><path fill="#336086" stroke="#336086" d="m-4.378 182.82-14.3-9.8 22.8 5.8z"/><path fill="#355eac" stroke="#355eac" d="m3.822 174.32-21.7-20.5 20.9 3.8z"/><path fill="#57727d" stroke="#57727d" d="m-6.378 204.42-5.6-4.6 6.1-.8z"/><path fill="#4d717e" stroke="#4d717e" d="m-5.878 196.52-12.8-6.8 13.3 3.4z"/><path fill="#4973b0" stroke="#4973b0" d="m2.822 152.52-17.8-9 19.1 2.3z"/><path fill="#21477e" stroke="#21477e" d="m16.322 121.32-12.2 24.5 12.2 8z"/><path fill="#2b4d84" stroke="#2b4d84" d="m2.822 152.52 1.3-6.7 12.2 8z"/><path fill="#0c3266" stroke="#0c3266" d="m4.822 144.32-12.1-13.1 18 1.3z"/><path fill="#1f417e" stroke="#1f417e" d="m74.322 62.82 46.5 15.2-41.7 9.5z"/><path fill="#153d76" stroke="#153d76" d="m164.522 96.32-21.7-33.5-12.7 37z"/><path fill="#153d7b" stroke="#153d7b" d="m120.822 78.02 22-15.2-12.7 37z"/><path fill="#143c7a" stroke="#143c7a" d="m190.322 93.82-11.8-23.5-14 26z"/><path fill="#143c76" stroke="#143c76" d="m142.822 62.82 35.7 7.5-14 26z"/><path fill="#123d77" stroke="#123d77" d="m263.022 48.82-2.4 39.8 32.7-21.3z"/><path fill="#012d72" stroke="#012d72" d="m211.522 120.72-21.2-26.9 43.9 12.1z"/><path fill="#073472" stroke="#073472" d="m178.522 70.32 22 11-10.2 12.5z"/><path fill="#0d3671" stroke="#0d3671" d="m190.322 93.82 10.2-12.5 15 5z"/><path fill="#032c70" stroke="#032c70" d="m260.622 88.62-22.1-19.9-23 17.6z"/><path fill="#012d6e" stroke="#012d6e" d="m234.222 105.92 26.4-17.3-45.1-2.3z"/><path fill="#07346d" stroke="#07346d" d="m238.522 68.72 24.5-19.9-2.4 39.8z"/><path fill="#204c8c" stroke="#204c8c" d="m245.522 28.82 17.5 20-11.5 9.3z"/><path fill="#0a326e" stroke="#0a326e" d="m238.522 68.72 7-39.9 6 29.3z"/><path fill="#204a7f" stroke="#204a7f" d="m231.522.82 14 28-20 7.2z"/><path fill="#18427b" stroke="#18427b" d="m212.322 9.72 19.2-8.9-6 35.2z"/><path fill="#1c427a" stroke="#1c427a" d="m214.422 76.62 11.1-40.6 13 32.7z"/><path fill="#002e6c" stroke="#002e6c" d="m200.522 81.32-7.7-44.5 21.6 39.8z"/><path fill="#0e3573" stroke="#0e3573" d="m225.522 36.02-32.7.8 21.6 39.8z"/><path fill="#0c346f" stroke="#0c346f" d="m173.522 7.22 52 28.8-32.7.8z"/><path fill="#0c3371" stroke="#0c3371" d="m142.822 62.82 34.6-14 1.1 21.5z"/><path fill="#153a76" stroke="#153a76" d="m197.022 61.22-19.6-12.4 1.1 21.5z"/><path fill="#143a76" stroke="#143a76" d="m200.522 81.32-22-11 18.5-9.1z"/><path fill="#073470" stroke="#073470" d="m177.422 48.82-3.9-41.6 19.3 29.6z"/><path fill="#032e6b" stroke="#032e6b" d="m197.022 61.22-19.6-12.4 15.4-12z"/><path fill="#063371" stroke="#063371" d="m142.822 62.82-12.7-31.1 47.3 17.1z"/><path fill="#103b77" stroke="#103b77" d="m74.322 62.82 55.8-31.1-9.3 46.3z"/><path fill="#04316f" stroke="#04316f" d="m177.422 48.82-3.9-41.6-43.4 24.5z"/><path fill="#022e6d" stroke="#022e6d" d="m110.822 18.42 25-17.6-5.7 30.9z"/><path fill="#143a78" stroke="#143a78" d="m212.322 9.72-38.8-2.5 30.1-26.9z"/><path fill="#004084" stroke="#004084" d="m226.422-10.68-15.5 15.8-4.6-15.8z"/><path fill="#19447d" stroke="#19447d" d="M173.522 7.22v-31.5l-18 28.4z"/><path fill="#365595" stroke="#365595" d="m135.822.82-9-31.8 28.7 35.1z"/><path fill="#09326b" stroke="#09326b" d="m142.022-12.38 15.8-21.6 8.5 21z"/><path fill="#053374" stroke="#053374" d="m155.522 4.12-13.5-16.5 24.3-.6z"/><path fill="#173c5e" stroke="#173c5e" d="m231.522.82 23.6-14.2-20.5 20.6z"/><path fill="#29509b" stroke="#29509b" d="m245.522 28.82 17.5-28-26.4 10.4z"/><path fill="#073470" stroke="#073470" d="m110.822 18.42-36.5 44.4 55.8-31.1z"/><path fill="#174083" stroke="#174083" d="m16.322 86.32 9.8-21.1 19.2 15.1z"/><path fill="#1a4581" stroke="#1a4581" d="m74.322 62.82-26-8.8-3 26.3z"/><path fill="#0f406f" stroke="#0f406f" d="m1.722 131.82-4.1-33.7 18.7 23.2z"/><path fill="#0f3d7a" stroke="#0f3d7a" d="m10.722 132.52 5.6-11.2-14.6 10.5z"/><path fill="#2c4888" stroke="#2c4888" d="m20.022 116.02-19.5-19.8-2.9 1.9z"/><path fill="#3b6092" stroke="#3b6092" d="m16.322 121.32-18.7-23.2 22.4 17.9Z"/><path fill="#154186" stroke="#154186" d="m26.122 65.22 17.5-22.5 1.7 37.6z"/><path fill="#16417d" stroke="#16417d" d="m48.322 54.02-4.7-11.3 1.7 37.6z"/><path fill="#092e68" stroke="#092e68" d="m61.422 58.42 14.4-12.3-1.5 16.7z"/><path fill="#164480" stroke="#164480" d="m43.622 42.72 25-17.2-20.3 28.5z"/><path fill="#11326e" stroke="#11326e" d="m75.822 46.12-2.1-6.3-12.3 18.6z"/><path fill="#668fae" stroke="#668fae" d="m53.322 55.72 20.4-15.9-12.3 18.6z"/><path fill="#183f8a" stroke="#183f8a" d="m68.622 25.52 5.1 14.3-25.4 14.2z"/><path fill="#04349b" stroke="#04349b" d="m53.322 55.72-5-1.7 25.4-14.2z"/><path fill="#002e75" stroke="#002e75" d="m68.622 25.52-28.4-20.4 22.9 8.9z"/><path fill="#033372" stroke="#033372" d="m77.122 16.92-14-2.9 5.5 11.5z"/><path fill="#163272" stroke="#163272" d="m43.622 42.72-7.9-28.3 13.1 24.7z"/><path fill="#24385d" stroke="#24385d" d="m50.822 37.82-6.5-24.4 9.4 22.3z"/><path fill="#023370" stroke="#023370" d="m63.122 14.02-14.3-18.6 22.5 13.5z"/><path fill="#04306e" stroke="#04306e" d="M71.322 15.72v-6.8l-8.2 5.1z"/><path fill="#557ebd" stroke="#557ebd" d="m77.122 16.92-5.8-8v6.8z"/><path fill="#083777" stroke="#083777" d="m110.822 18.42-33.7-1.5-1.3 29.2z"/><path fill="#153a76" stroke="#153a76" d="m74.322 62.82 1.5-16.7 35-27.7z"/><path fill="#043170" stroke="#043170" d="m77.122 16.92-1.3-30.3 35 31.8z"/><path fill="#1c3a7d" stroke="#1c3a7d" d="m71.322 8.92-.7-17.6 6.5 25.6z"/><path fill="#0e387f" stroke="#0e387f" d="m75.822-13.38-5.2 4.7 6.5 25.6z"/><path fill="#305193" stroke="#305193" d="m62.522-1.28 8.8 10.2-.3-8.1z"/><path fill="#4e77ab" stroke="#4e77ab" d="m61.822 3.22.7-4.5 8.8 10.2z"/><path fill="#174686" stroke="#174686" d="m46.022-9.58 15.8 12.8.7-4.5z"/><path fill="#0d386c" stroke="#0d386c" d="m70.622-8.68-24-3 15.9 10.4z"/><path fill="#0c377a" stroke="#0c377a" d="m70.622-8.68-8.1 7.4 8.5 2.1z"/><path fill="#093274" stroke="#093274" d="m122.822 10.02-10.7-25.2 21.9 17.3z"/><path fill="#29407b" stroke="#29407b" d="m75.822-13.38-17.2-7.8h27.7z"/><path fill="#1f4480" stroke="#1f4480" d="m73.222-11.08-14.6-10.1 17.2 7.8z"/><path fill="#1a3d9b" stroke="#1a3d9b" d="m86.322-21.18 24.5 39.6-35-31.8z"/><path fill="#052f6c" stroke="#052f6c" d="m119.422 2.02-24.6-9.4 16 25.8z"/><path fill="#0c357e" stroke="#0c357e" d="m122.822 10.02-3.4-8-8.6 16.4z"/><path fill="#3a6686" stroke="#3a6686" d="m126.822-30.98-.9 18.6 9.9 13.2z"/><path fill="#375e90" stroke="#375e90" d="m125.022-4.98.9-7.4 9.9 13.2z"/><path fill="#0a3775" stroke="#0a3775" d="m134.022 2.12-9-7.1 10.8 5.8z"/><path fill="#2c598a" stroke="#2c598a" d="m125.022-4.98-11.2-20.6 12.1 13.2z"/><path fill="#bf8d7f" stroke="#bf8d7f" d="m155.322 187.82-3.3-3.8h5.8z"/><path fill="#0e3571" stroke="#0e3571" d="m75.622 260.42 9.6-17.4 27.2 24.9z"/><path fill="#424f7c" stroke="#424f7c" d="m212.022 236.32-26.3-7.2 4.9 29.4z"/><path fill="#395180" stroke="#395180" d="m212.022 236.32 9.9 23.5 6.9-15.2z"/><path fill="#6a607f" stroke="#6a607f" d="m228.822 244.62 4.9 21.9 14-3.9z"/><path fill="#7f7383" stroke="#7f7383" d="m73.222 286.52-17.3-24.9-5.2 28.5z"/><path fill="#646b87" stroke="#646b87" d="m44.922 261.62-9.7-13.8-7.1 6.8z"/><path fill="#3b4e7f" stroke="#3b4e7f" d="m30.922 290.12-29.1 3.4-10.9-3.4z"/><path fill="#1c4678" stroke="#1c4678" d="m-9.078 290.12 10.9-36.6 32.2 10.5z"/><path fill="#002447" stroke="#002447" d="m-8.378 364.92 15.1-3.2-3.9 6.1z"/><path fill="#4c5791" stroke="#4c5791" d="m17.322 357.52-3.1 8.9-11.4 1.4z"/><path fill="#f6d9ac" stroke="#f6d9ac" d="m36.822 332.82-17.2 21.7 29.6 13.3z"/><path fill="#26507b" stroke="#26507b" d="m.722 326.22 10.2-5.8-2 15.2z"/><path fill="#214477" stroke="#214477" d="M18.722 320.42h-7.8l5 8.6z"/><path fill="#3e5a88" stroke="#3e5a88" d="m18.722 320.42 14.1-6.3-4.2 8.3z"/><path fill="#e5ae99" stroke="#e5ae99" d="m85.822 178.82-2.9-3.7 4.8-22.6z"/><path fill="#665a7c" stroke="#665a7c" d="m109.222 347.02-4 22.6 15.9-3.1z"/><path fill="#ba7e8a" stroke="#ba7e8a" d="m85.222 386.82 20-17.2 12.7 17.2z"/><path fill="#062a68" stroke="#062a68" d="m190.622 258.52-58.5 9.7 38-2.6z"/><path fill="#1c477e" stroke="#1c477e" d="m153.222 281.82.9 6.7 4-3.9z"/><path fill="#05326d" stroke="#05326d" d="m148.422 274.82 14.3-2.5-4.6 12.3z"/><path fill="#113b77" stroke="#113b77" d="m162.722 272.32-.8 9.5 6.9-6.5z"/><path fill="#0b3874" stroke="#0b3874" d="m143.522 294.42 20.6-.5-13.4 10.1z"/><path fill="#2d497f" stroke="#2d497f" d="m168.822 275.32 3 15.5-10.7 14.1z"/><path fill="#7c7a8e" stroke="#7c7a8e" d="m171.822 290.82 17.8 9.9-19.5 3.3z"/><path fill="#50597c" stroke="#50597c" d="M189.622 289.32v11.4l6.9-5.2z"/><path fill="#284776" stroke="#284776" d="m132.122 268.22 66.3-.3-7 5.5z"/><path fill="#494d77" stroke="#494d77" d="m241.222 293.92-24.7 2.4 17.2-11z"/><path fill="#907785" stroke="#907785" d="m216.522 296.32 71.1 14.9-18.3 12.1z"/><path fill="#575d7e" stroke="#575d7e" d="m327.822 547.62-25-22.1 58.5-59.2z"/><path fill="#c39b97" stroke="#c39b97" d="m47.822 555.32 12.2 15.9-20.6 12.1z"/><path fill="#786785" stroke="#786785" d="m361.322 689.02 25.8-73.5 18 18z"/><path fill="#525b7d" stroke="#525b7d" d="m372.322 460.72-2.9 6.1-2.9-5.4z"/><path fill="#2d354e" stroke="#2d354e" d="m372.122 463.22 1.3-2h2.7z"/><path fill="#74697a" stroke="#74697a" d="m377.822 455.22-1.7 6-2.4-2z"/><path fill="#d9c89f" stroke="#d9c89f" d="m372.922 441.02 1 10.1 3.9 4.1z"/><path fill="#edd4b6" stroke="#edd4b6" d="m372.922 441.02 2.8.2 2.1 8.2z"/><path fill="#c99f97" stroke="#c99f97" d="m353.722 411.22 19.2 29.8-.6 19.7z"/><path fill="#fbd6c9" stroke="#fbd6c9" d="m388.322 438.82.5 15.9-6.3-12.1z"/><path fill="#806b7f" stroke="#806b7f" d="m378.922 434.82-25.2-23.6 26.2 6.2z"/><path fill="#7e6985" stroke="#7e6985" d="m363.122 374.12 1.2 27 15.3 2.7z"/><path fill="#444277" stroke="#444277" d="m368.622 354.72-5.5 19.4 30.6 28.5z"/><path fill="#c1918b" stroke="#c1918b" d="m353.722 349.82 9.4 24.3-9.3 25.1z"/><path fill="#987883" stroke="#987883" d="m368.622 354.72 25.5-3-20.9-12.5z"/><path fill="#725e7b" stroke="#725e7b" d="m418.522 339.22-1.7 14.5h13.5z"/><path fill="#56497d" stroke="#56497d" d="m396.122 331.72 17.2-5.4 3.5 27.4z"/><path fill="#967283" stroke="#967283" d="m413.322 326.32-12.5-19.1-11.5 8z"/><path fill="#897b91" stroke="#897b91" d="m370.722 315.22-12.1-10-14.4 32.5z"/><path fill="#274c78" stroke="#274c78" d="m296.522 249.72 74.2-10.7 33.8 39.2z"/><path fill="#44597d" stroke="#44597d" d="m316.722 152.52-71.1 46.5-49.1-54.7z"/><path fill="#2a4578" stroke="#2a4578" d="m130.122 99.82 31.7 11.7 28.5-17.7z"/><path fill="#143c72" stroke="#143c72" d="m267.122 131.02-105.3-19.5 34.7 32.8z"/><path fill="#012f6d" stroke="#012f6d" d="m234.222 105.92-43.9-12.1 25.2-7.5z"/><path fill="#143d71" stroke="#143d71" d="m238.522 68.72-23 17.6-15-5z"/><path fill="#123c75" stroke="#123c75" d="m130.122 99.82-9.3-21.8-42.8 23.1z"/><path fill="#10407b" stroke="#10407b" d="m39.822 124.82 21.3-34.8 16.9 11.1z"/><path fill="#24497f" stroke="#24497f" d="M16.322 153.82v-32.5l23.5 3.5z"/><path fill="#284e87" stroke="#284e87" d="m61.122 90.02 18-2.5-4.8-24.7z"/><path fill="#a58689" stroke="#a58689" d="m296.522 249.72-22.1 27.2 4.7-44.5z"/><path fill="#a18288" stroke="#a18288" d="m306.422 280.72-32-3.8 22.1-27.2z"/><path fill="#193e7a" stroke="#193e7a" d="m142.822 62.82-12.7-31.1-9.3 46.3z"/><path fill="#002d6b" stroke="#002d6b" d="m130.122 31.72 5.7-30.9 37.7 6.4z"/><path fill="#032e6d" stroke="#032e6d" d="m173.522 7.22 38.8 2.5 13.2 26.3z"/><path fill="#a09994" stroke="#a09994" d="m22.622 461.82-15.5-5.3 34.7-35.4z"/><path fill="#edd3bb" stroke="#edd3bb" d="m37.322 452.42-14.7 9.4 5.5 2.5z"/><path fill="#413c74" stroke="#413c74" d="m24.122 482.32 1.1-10 18.7 8.7z"/><path fill="#233f75" stroke="#233f75" d="m33.622 486.52-9.5-4.2-.8 20z"/><path fill="#80637c" stroke="#80637c" d="m43.922 441.72-4-7.8 13-14z"/><path fill="#264174" stroke="#264174" d="m47.922 409.32-18.5-11.8 12.4 23.6z"/><path fill="#00256c" stroke="#00256c" d="m85.222 386.82-19.9 1.8 20.5 17.3z"/><path fill="#3b4770" stroke="#3b4770" d="m55.222 399.02 30.6 6.9-13.2 11.7z"/><path fill="#816281" stroke="#816281" d="m117.922 405.92-24.5-13.9 24.5-5.2z"/><path fill="#374070" stroke="#374070" d="M117.922 405.92h-32.1l12.8 10.6z"/><path fill="#767787" stroke="#767787" d="m117.922 405.92-22 45.1 64.2-14z"/><path fill="#716883" stroke="#716883" d="m160.122 437.02-14.6 42.8 42.3 1.2z"/><path fill="#b58691" stroke="#b58691" d="m38.722 442.52 33.9-5.5-18.3 14z"/><path fill="#825a7c" stroke="#825a7c" d="m73.322 446.52-19 11.8 31.3-4.1z"/><path fill="#0d3772" stroke="#0d3772" d="m104.522 465.82-7 13 27.5 6.4z"/><path fill="#233e75" stroke="#233e75" d="m143.122 486.52-19.6-11 1.5 9.7z"/><path fill="#684e79" stroke="#684e79" d="m26.022 511.72 32.3-10.2v10.2z"/><path fill="#324373" stroke="#324373" d="m47.822 555.32-10-43.6 29.2 32.6z"/><path fill="#b69893" stroke="#b69893" d="m94.822 544.32-4.7 26.6-30.1.3z"/><path fill="#937888" stroke="#937888" d="m114.222 537.52 32.4 11.8-41 20z"/><path fill="#3e4a78" stroke="#3e4a78" d="m102.722 517.42-7.9 26.9 19.4-6.8z"/><path fill="#957680" stroke="#957680" d="m143.122 486.52-2.1 26.2-24.3 12.8z"/><path fill="#123a75" stroke="#123a75" d="m245.522 28.82-7 39.9-13-32.7zm-168.4-11.9-8.5 8.6 7.2 20.6z"/></svg>