<?xml version="1.0" encoding="UTF-8" standalone="no"?>
<svg
   xmlns:dc="http://purl.org/dc/elements/1.1/"
   xmlns:cc="http://creativecommons.org/ns#"
   xmlns:rdf="http://www.w3.org/1999/02/22-rdf-syntax-ns#"
   xmlns:svg="http://www.w3.org/2000/svg"
   xmlns="http://www.w3.org/2000/svg"
   xmlns:xlink="http://www.w3.org/1999/xlink"
   xmlns:sodipodi="http://sodipodi.sourceforge.net/DTD/sodipodi-0.dtd"
   xmlns:inkscape="http://www.inkscape.org/namespaces/inkscape"
   inkscape:version="1.0.1 (3bc2e813f5, 2020-09-07)"
   sodipodi:docname="Apache_Flex_logo.svg"
   version="1.1"
   viewBox="0 0 282.3 128.7"
   xml:space="preserve"
   id="svg6593"><title
     id="title2">Apache Flex logo</title><metadata
     id="metadata4"><rdf:RDF><cc:Work
         rdf:about=""><dc:title>Apache Flex logo</dc:title></cc:Work></rdf:RDF></metadata><defs
     id="defs135"><linearGradient
       inkscape:collect="always"
       id="linearGradient18489"><stop
         style="stop-color:#f8fbe5;stop-opacity:1"
         offset="0"
         id="stop18485" /><stop
         style="stop-color:#98c721;stop-opacity:1"
         offset="1"
         id="stop18487" /></linearGradient><linearGradient
       inkscape:collect="always"
       id="linearGradient18480"><stop
         style="stop-color:#fde9ec;stop-opacity:1"
         offset="0"
         id="stop18476" /><stop
         style="stop-color:#ee2b27;stop-opacity:1"
         offset="1"
         id="stop18478" /></linearGradient><linearGradient
       inkscape:collect="always"
       id="linearGradient18471"><stop
         style="stop-color:#ffffff;stop-opacity:1"
         offset="0"
         id="stop18467" /><stop
         style="stop-color:#f59114;stop-opacity:1"
         offset="1"
         id="stop18469" /></linearGradient><linearGradient
       inkscape:collect="always"
       id="linearGradient18464"><stop
         style="stop-color:#f4481c;stop-opacity:0.65098041"
         offset="0"
         id="stop18460" /><stop
         style="stop-color:#e2651c;stop-opacity:1"
         offset="1"
         id="stop18462" /></linearGradient><linearGradient
       inkscape:collect="always"
       id="linearGradient18449"><stop
         style="stop-color:#e32125;stop-opacity:1"
         offset="0"
         id="stop18445" /><stop
         style="stop-color:#aa0000;stop-opacity:1"
         offset="1"
         id="stop18447" /></linearGradient><linearGradient
       inkscape:collect="always"
       id="linearGradient18435"><stop
         style="stop-color:#3b82c9;stop-opacity:0.98823529"
         offset="0"
         id="stop18431" /><stop
         style="stop-color:#67c4e2;stop-opacity:1"
         offset="1"
         id="stop18433" /></linearGradient><linearGradient
       inkscape:collect="always"
       id="linearGradient18421"><stop
         style="stop-color:#4698d9;stop-opacity:0.71764708"
         offset="0"
         id="stop18417" /><stop
         style="stop-color:#26275f;stop-opacity:1"
         offset="1"
         id="stop18419" /></linearGradient><linearGradient
       inkscape:collect="always"
       id="linearGradient18405"><stop
         style="stop-color:#4d9033;stop-opacity:1"
         offset="0"
         id="stop18401" /><stop
         style="stop-color:#afd619;stop-opacity:0.78823531"
         offset="1"
         id="stop18403" /></linearGradient><linearGradient
       inkscape:collect="always"
       id="linearGradient18240"><stop
         style="stop-color:#afd61a;stop-opacity:1;"
         offset="0"
         id="stop18236" /><stop
         style="stop-color:#366a27;stop-opacity:0.81960785"
         offset="1"
         id="stop18238" /></linearGradient><linearGradient
       inkscape:collect="always"
       id="linearGradient18234"><stop
         style="stop-color:#f78e18;stop-opacity:1"
         offset="0"
         id="stop18230" /><stop
         style="stop-color:#da551e;stop-opacity:1"
         offset="1"
         id="stop18232" /></linearGradient><linearGradient
       inkscape:collect="always"
       id="linearGradient18205"><stop
         style="stop-color:#ee2d24;stop-opacity:1"
         offset="0"
         id="stop18201" /><stop
         style="stop-color:#3a1414;stop-opacity:0.7019608"
         offset="1"
         id="stop18203" /></linearGradient><linearGradient
       inkscape:collect="always"
       id="linearGradient18188"><stop
         style="stop-color:#294e23;stop-opacity:0.83544304"
         offset="0"
         id="stop18184" /><stop
         style="stop-color:#000000;stop-opacity:0"
         offset="1"
         id="stop18186" /></linearGradient><linearGradient
       inkscape:collect="always"
       id="linearGradient17355"><stop
         style="stop-color:#71bb2e;stop-opacity:0.70980394"
         offset="0"
         id="stop17351" /><stop
         style="stop-color:#294e23;stop-opacity:0.73333335"
         offset="1"
         id="stop17353" /></linearGradient><linearGradient
       inkscape:collect="always"
       id="linearGradient16551"><stop
         style="stop-color:#52b4e8;stop-opacity:0.70980394"
         offset="0"
         id="stop16547" /><stop
         style="stop-color:#293a7f;stop-opacity:0.70980394"
         offset="1"
         id="stop16549" /></linearGradient><linearGradient
       inkscape:collect="always"
       id="linearGradient15747"><stop
         style="stop-color:#d52727;stop-opacity:1"
         offset="0"
         id="stop15743" /><stop
         style="stop-color:#b71e24;stop-opacity:0.7764706"
         offset="1"
         id="stop15745" /></linearGradient><linearGradient
       inkscape:collect="always"
       id="linearGradient15288"><stop
         style="stop-color:#c2ebf6;stop-opacity:1"
         offset="0"
         id="stop15284" /><stop
         style="stop-color:#69c7e0;stop-opacity:1"
         offset="1"
         id="stop15286" /></linearGradient><linearGradient
       inkscape:collect="always"
       id="linearGradient15277"><stop
         style="stop-color:#ee2e29;stop-opacity:1"
         offset="0"
         id="stop15273" /><stop
         style="stop-color:#ae1d23;stop-opacity:1"
         offset="1"
         id="stop15275" /></linearGradient><linearGradient
       inkscape:collect="always"
       id="linearGradient15233"><stop
         style="stop-color:#f79312;stop-opacity:1"
         offset="0"
         id="stop15229" /><stop
         style="stop-color:#be511e;stop-opacity:1"
         offset="1"
         id="stop15231" /></linearGradient><linearGradient
       inkscape:collect="always"
       id="linearGradient15189"><stop
         style="stop-color:#9dca1f;stop-opacity:1"
         offset="0"
         id="stop15185" /><stop
         style="stop-color:#4c8931;stop-opacity:1"
         offset="1"
         id="stop15187" /></linearGradient><linearGradient
       inkscape:collect="always"
       id="linearGradient15153"><stop
         style="stop-color:#ed7410;stop-opacity:0.67058825"
         offset="0"
         id="stop15149" /><stop
         style="stop-color:#af321b;stop-opacity:0.67450982"
         offset="1"
         id="stop15151" /></linearGradient><linearGradient
       inkscape:collect="always"
       id="linearGradient13038"><stop
         style="stop-color:#5abde6;stop-opacity:1;"
         offset="0"
         id="stop13034" /><stop
         style="stop-color:#263571;stop-opacity:1"
         offset="1"
         id="stop13036" /></linearGradient><clipPath
       id="cvfg"><path
         d="m2275 384.4c-40.94 21.68-79.83 63.02-111.4 91.07 31.57-28.03 70.44-69.35 111.4-91.05 0.01-0.012 0.01-0.012 0.03-0.02m-562.2 0.16c28.06 14.95 55.14 39.08 79.56 61.79-24.41-22.71-51.5-46.85-79.56-61.79m3.39 2.969c0.21 0.191 0.43 0.379 0.64 0.57-0.21-0.191-0.43-0.379-0.64-0.57m0.76 0.68c14.27 12.94 26.66 28.26 37.37 43.34 26.84 37.7 48.57 80.72 69.96 121.7-21.38-40.98-43.12-84-69.94-121.7-10.73-15.09-23.12-30.41-37.39-43.35m446.2 87.67c-26.22 23.26-54.36 45.45-86.53 59.86-7.66 3.437-15.52 6.398-23.55 8.828 8.03-2.43 15.89-5.391 23.57-8.828 32.16-14.41 60.29-36.6 86.51-59.86m-299.1 32.27c0.05 0.039 0.1 0.078 0.16 0.109-0.06-0.031-0.11-0.07-0.16-0.109m0.16 0.117c24.29 17.53 50.61 31.88 80.23 39.01 15.36 3.691 32.34 5.551 49.33 5.551 9.54 0 19.09-0.59 28.35-1.762-9.25 1.172-18.78 1.75-28.32 1.75-17.12 0-34.25-1.879-49.73-5.641-29.46-7.16-55.67-21.46-79.86-38.91m188.8 36.32c-0.03 0.011-0.05 0.023-0.07 0.023 0.02 0 0.04-0.012 0.07-0.023m-151.3 137.4c20.3 24.91 43.12 44.81 68.05 52.17 1.65 0.488 3.3 0.922 4.96 1.305-1.66-0.383-3.31-0.817-4.95-1.305-24.94-7.359-47.76-27.26-68.06-52.17"
         inkscape:connector-curvature="0"
         id="path21" /></clipPath><clipPath
       id="cvfe"><path
         d="m2408 598.8c-1.47 1.082-2.94 2.141-4.41 3.18-37.69 26.82-80.72 48.56-121.7 69.96-28.98 15.13-71.07 35.96-107.7 61.56 68.12-46.64 167-85.53 233.8-134.7m-306.9 218.4c-0.02 0.07-0.05 0.145-0.07 0.219-2.3 7.812-3.45 15.84-3.45 24v0.332c0-0.852 0.02-1.703 0.04-2.547 0.2-7.598 1.39-14.92 3.48-22m22.02 87.8c0.59 0.695 1.17 1.387 1.77 2.078-0.6-0.691-1.18-1.383-1.77-2.078m40.21 36.36c0.51 0.449 1.03 0.899 1.56 1.348 3.76 2.738 7.63 5.441 11.6 8.125-4.47-3.086-8.87-6.246-13.16-9.473m204 115.9c33.38 20.01 62.93 41.32 83.44 65.42-0.06-0.12-0.13-0.23-0.19-0.36-13.64-16-30.44-29.73-46.92-41.48-11.68-8.3-23.86-16.11-36.33-23.58"
         inkscape:connector-curvature="0"
         id="path27" /></clipPath><clipPath
       id="cvfam"><path
         d="m2450 560.1c-11.66 13.69-26.22 26.49-42.76 38.65 15.08-11.03 30.14-23.74 42.58-38.36-21.74 40.84-62.94 79.61-90.91 111.1-30.86 34.74-59.71 72.68-71.31 118.5-7.91 31.29-8.03 69.4-0.47 100.8 2.77 11.49 6.68 22.67 11.51 33.46 14.48 32.36 36.87 60.63 60.27 86.97 27.96 31.47 69.13 70.22 90.88 111 0.02 0.03 0.04 0.05 0.05 0.07-21.74-40.83-62.93-79.61-90.91-111.1-30.86-34.74-59.7-72.67-71.29-118.5-4.05-15.95-6.06-33.68-6.06-51.38 0-17.02 1.86-34.02 5.57-49.4 2.78-11.5 6.69-22.67 11.52-33.46 14.49-32.35 36.87-60.63 60.26-86.96 28.04-31.58 69.38-70.45 91.07-111.4m-276.6 173.4c-36.22 24.8-63.75 51.79-73.15 83.68 9.41-31.56 38.88-59.71 73.15-83.68m2.24 217.3c36.08 24.9 77.06 45.2 105.5 60.02 28.31 14.78 57.57 29.71 85.39 46.37-61.39-36.8-135.8-69.17-190.8-106.4"
         inkscape:connector-curvature="0"
         id="path54" /></clipPath><clipPath
       id="cvfak"><path
         d="m2275 384.4c-0.02 8e-3 -0.04 8e-3 -0.05 0.02-70.96 60.43-117.7 199.1-178.3 283.6 0.02-8e-3 0.03-0.028 0.05-0.047 60.52-84.51 107.3-223.2 178.3-283.6m-561.5 0.809c0.89 0.761 1.77 1.531 2.64 2.32-0.87-0.789-1.75-1.559-2.64-2.32m3.28 2.89c0.04 0.039 0.08 0.071 0.12 0.11-0.04-0.039-0.08-0.071-0.12-0.11m75.53 58.25c11.1 10.33 21.65 20.37 31.49 29.12 12.88 11.43 26.18 22.58 40.16 32.68-13.98-10.1-27.28-21.25-40.15-32.68-9.84-8.75-20.39-18.79-31.5-29.12m71.81 61.91v8e-3 -8e-3m188.9 36.31c-0.03 0.012-0.06 0.012-0.08 0.02 0.02-8e-3 0.05-8e-3 0.08-0.02m-0.15 0.043c-3.14 0.949-6.31 1.809-9.5 2.59-6.84 1.66-14 2.949-21.33 3.867 7.09-0.891 14.02-2.129 20.64-3.707 3.43-0.82 6.82-1.73 10.19-2.75m-228.6 8.637c18.15 34.75 44.49 88.33 77.42 128.7-32.93-40.4-59.27-93.98-77.42-128.7m150.4 182.2c6.24 1.441 12.6 2.168 19.04 2.168 2.56 0 5.1-0.113 7.6-0.336-2.47 0.215-4.97 0.328-7.5 0.328h-0.05-0.05c-6.44 0-12.8-0.719-19.04-2.16"
         inkscape:connector-curvature="0"
         id="path60" /></clipPath><clipPath
       id="cvfai"><path
         d="m2097 841.7v0.316c0 8.149 1.15 16.18 3.45 24 4.03 13.64 11.8 26.64 22.09 38.94-15.95-19.09-25.45-39.9-25.54-63.25m27.31 65.33c12.22 14.13 27.72 27.32 44.58 39.48-1.54-1.273-3.07-2.558-4.58-3.851-15.53-11.3-29.15-23.11-40-35.63"
         inkscape:connector-curvature="0"
         id="path66" /></clipPath><clipPath
       id="cvfah"><path
         d="m2097 839.2c-0.02 0.844-0.04 1.695-0.04 2.547 0.09 23.36 9.59 44.16 25.54 63.25 0.59 0.695 1.17 1.387 1.77 2.078 10.85 12.52 24.47 24.33 40 35.63-0.53-0.449-1.05-0.899-1.56-1.348-29.55-22.23-53.94-47.73-62.28-75.96-2.3-7.816-3.45-15.85-3.45-23.99 0-0.738 0-1.477 0.02-2.207"
         inkscape:connector-curvature="0"
         id="path69" /></clipPath><clipPath
       id="cvfaf"><path
         d="m1890 841.7c-0.09 22.24-8.7 42.16-23.3 60.49 9.17-11.48 16.11-23.55 19.84-36.17 2.31-7.816 3.46-15.85 3.46-24v-0.324m-29.63 67.94c-10.46 11.58-23.27 22.53-37.74 33.06-1.5 1.281-3.02 2.555-4.55 3.82 15.83-11.41 30.45-23.73 42.29-36.88"
         inkscape:connector-curvature="0"
         id="path75" /></clipPath><clipPath
       id="cvfad"><path
         d="m1527 1195c-0.06 13.91 3.65 27.55 9.65 40.6 6.17 13.42 16.15 25.92 26.55 36.33 10.4 10.39 22.88 20.36 36.27 26.53 12.96 5.98 26.5 9.68 40.31 9.68 1.48 0 2.96-0.04 4.45-0.13-1.32 0.08-2.64 0.12-3.96 0.13h-0.98c-13.64-0.09-27.02-3.77-39.82-9.68-13.39-6.17-25.87-16.14-36.27-26.53-10.4-10.41-20.38-22.91-26.55-36.33-5.9-12.84-9.59-26.26-9.65-39.95v-0.65"
         inkscape:connector-curvature="0"
         id="path81" /></clipPath><clipPath
       id="cvfac"><path
         d="m1527 1195v0.65c0.06 13.69 3.75 27.11 9.65 39.95 6.17 13.42 16.15 25.92 26.55 36.33 10.4 10.39 22.88 20.36 36.27 26.53 12.8 5.91 26.18 9.59 39.82 9.68h0.98c1.32-0.01 2.64-0.05 3.96-0.13-0.12-0.01-0.24-0.03-0.36-0.05-1.36 0.08-2.72 0.11-4.07 0.11-13.83 0-27.38-3.7-40.33-9.68-13.39-6.18-25.87-16.14-36.26-26.53-10.41-10.41-20.39-22.91-26.56-36.33-5.99-13.01-9.69-26.62-9.65-40.5v-0.03"
         inkscape:connector-curvature="0"
         id="path84" /></clipPath><clipPath
       id="cvfaa"><path
         d="m2459 1207c-1.46 9.51-4.52 18.85-8.67 27.9-6.19 13.42-16.15 25.92-26.56 36.33-10.39 10.39-22.87 20.36-36.27 26.53-12.8 5.91-26.19 9.59-39.83 9.68h-0.98c-1.32-0.01-2.64-0.05-3.96-0.13 1.49 0.09 2.97 0.13 4.44 0.13 13.82 0 27.38-3.7 40.33-9.68 13.4-6.17 25.88-16.14 36.27-26.53 10.41-10.41 20.37-22.91 26.56-36.33 4.15-9.05 7.21-18.39 8.67-27.9"
         inkscape:connector-curvature="0"
         id="path90" /></clipPath><clipPath
       id="cvfz"><path
         d="m2460 1195v0.64c-0.02 4.04-0.35 8.07-0.96 12.06 0.64-4.2 0.98-8.44 0.96-12.7"
         inkscape:connector-curvature="0"
         id="path93" /></clipPath><clipPath
       id="cvfy"><path
         d="m2459 1207c-1.47 9.49-4.52 18.8-8.67 27.83-6.19 13.42-16.15 25.92-26.58 36.33-10.37 10.39-22.85 20.35-36.25 26.53-12.96 5.98-26.51 9.68-40.34 9.68-1.35 0-2.71-0.03-4.07-0.11-0.12 0.02-0.24 0.04-0.36 0.05 1.32 0.08 2.64 0.12 3.96 0.13h0.98c13.64-0.09 27.03-3.77 39.83-9.68 13.4-6.17 25.88-16.14 36.27-26.53 10.41-10.41 20.37-22.91 26.56-36.33 4.15-9.05 7.21-18.39 8.67-27.9"
         inkscape:connector-curvature="0"
         id="path96" /></clipPath><clipPath
       id="cvfw"><path
         d="m1527 487.6v0.648c0-0.011 0-0.019 0.01-0.031-0.01 0.012-0.01 0.02-0.01 0.031v-0.648"
         inkscape:connector-curvature="0"
         id="path102" /></clipPath><clipPath
       id="cvfv"><path
         d="m1621 377.2c-7.43 1.672-14.75 4.27-21.88 7.551-6.08 2.809-11.97 6.398-17.56 10.45 5.59-4.051 11.48-7.629 17.56-10.43 7.13-3.29 14.44-5.891 21.88-7.571m-49.55 26.06c-3 2.609-5.87 5.308-8.6 8.027-1.62 1.621-3.23 3.293-4.81 5.012 1.58-1.711 3.19-3.379 4.81-5 2.73-2.731 5.6-5.43 8.6-8.039m-27.22 30.36c-3.03 4.52-5.72 9.199-7.93 14.01 2.21-4.797 4.9-9.488 7.93-14.01m-7.99 14.14c-0.01 0.019-0.02 0.039-0.03 0.047 0.01-0.02 0.02-0.028 0.03-0.047m-0.07 0.136c0 0.024-0.01 0.043-0.02 0.051 0.01-0.019 0.02-0.027 0.02-0.051m-0.07 0.172c-0.01 0.02-0.03 0.051-0.04 0.071 0.01-0.02 0.03-0.051 0.04-0.071m-0.07 0.129c-0.01 0.031-0.02 0.051-0.03 0.082 0.01-0.031 0.02-0.051 0.03-0.082m-0.05 0.121c-0.04 0.102-0.09 0.2-0.13 0.301 0.04-0.101 0.09-0.199 0.13-0.301m-0.14 0.309c-5.63 12.53-9.13 25.62-9.19 38.95v0.648c0-0.011 0-0.019 0.01-0.031-0.06-13.55 3.46-26.84 9.18-39.57"
         inkscape:connector-curvature="0"
         id="path105" /></clipPath><clipPath
       id="cvft"><path
         d="m2342 375.2c11.99 1.48 23.73 5.203 35.09 10.44 15.46 7.129 29.85 18.62 41.83 30.62 12 12.01 23.52 26.42 30.65 41.91 4.49 9.75 7.87 19.8 9.65 30.04v-0.64 0.64c-1.78-10.24-5.16-20.29-9.65-30.04-7.13-15.49-18.65-29.9-30.65-41.91-11.98-12-26.37-23.49-41.83-30.62-11.36-5.238-23.1-8.961-35.09-10.44"
         inkscape:connector-curvature="0"
         id="path111" /></clipPath><clipPath
       id="cvfs"><path
         d="m2343 375.2c-0.34 8e-3 -0.68 0.027-1.02 0.047h0.01c0.34-0.02 0.67-0.039 1.01-0.047"
         inkscape:connector-curvature="0"
         id="path114" /></clipPath><clipPath
       id="cvfq"><path
         d="m1993 945.2c-8.15 0-16.18 1.156-23.99 3.461-30.17 8.914-57.23 36.17-80.5 68.44 1.43-1.73 2.87-3.44 4.33-5.13 28.93-39.59 61.09-66.6 100.5-66.77h-0.37"
         inkscape:connector-curvature="0"
         id="path120" /></clipPath><clipPath
       id="cvfo"><path
         d="m2097 666.9c-0.27 0.321-0.54 0.653-0.8 0.973-27.71 38.68-58.29 66.03-95.4 69.33 37.45-3.285 68.27-31.08 96.2-70.3"
         inkscape:connector-curvature="0"
         id="path126" /></clipPath><clipPath
       id="cvfn"><path
         d="m2096 667.9c-0.02 0.019-0.03 0.039-0.05 0.047-29.55 41.25-62.37 69.59-102.9 69.61h0.05c2.53 0 5.03-0.113 7.5-0.328 37.11-3.305 67.69-30.65 95.4-69.33"
         inkscape:connector-curvature="0"
         id="path129" /></clipPath><linearGradient
       inkscape:collect="always"
       xlink:href="#linearGradient13038"
       id="linearGradient13040"
       x1="198.7"
       y1="65.989998"
       x2="198.9214"
       y2="27.794634"
       gradientUnits="userSpaceOnUse" /><radialGradient
       inkscape:collect="always"
       xlink:href="#linearGradient15153"
       id="radialGradient15155"
       cx="220.8215"
       cy="61.617386"
       fx="220.8215"
       fy="61.617386"
       r="13.755469"
       gradientTransform="matrix(-0.8784906,-0.20935705,0.30022741,-1.2597949,412.25844,169.77145)"
       gradientUnits="userSpaceOnUse" /><radialGradient
       inkscape:collect="always"
       xlink:href="#linearGradient15189"
       id="radialGradient15191"
       cx="200.22"
       cy="96.949585"
       fx="200.22"
       fy="96.949585"
       r="28.111"
       gradientTransform="matrix(-0.84777392,0.83798029,-0.75212178,-0.760912,442.87919,8.5996896)"
       gradientUnits="userSpaceOnUse" /><radialGradient
       inkscape:collect="always"
       xlink:href="#linearGradient15233"
       id="radialGradient15235"
       cx="218.40147"
       cy="86.09359"
       fx="218.40147"
       fy="86.09359"
       r="17.6505"
       gradientTransform="matrix(1.1181103,1.252514,-1.1873361,1.0599265,73.864577,-280.0089)"
       gradientUnits="userSpaceOnUse" /><radialGradient
       inkscape:collect="always"
       xlink:href="#linearGradient15277"
       id="radialGradient15279"
       cx="180.89999"
       cy="83.610146"
       fx="180.89999"
       fy="83.610146"
       r="17.6585"
       gradientTransform="matrix(-0.84175187,-0.84558182,1.1282128,-1.1231028,238.84286,330.15854)"
       gradientUnits="userSpaceOnUse" /><radialGradient
       inkscape:collect="always"
       xlink:href="#linearGradient15288"
       id="radialGradient15290"
       cx="199.38"
       cy="80.526176"
       fx="199.38"
       fy="80.526176"
       r="10.369"
       gradientTransform="matrix(0.41947553,-0.42351714,0.42431358,0.42026437,81.576621,124.35626)"
       gradientUnits="userSpaceOnUse" /><radialGradient
       inkscape:collect="always"
       xlink:href="#linearGradient15747"
       id="radialGradient15749"
       cx="93.04081"
       cy="-7.2315016"
       fx="93.04081"
       fy="-7.2315016"
       r="19.523168"
       gradientTransform="matrix(-0.67585029,-0.84024635,1.5919922,-1.2805137,239.81704,153.04666)"
       gradientUnits="userSpaceOnUse" /><radialGradient
       inkscape:collect="always"
       xlink:href="#linearGradient16551"
       id="radialGradient16553"
       cx="157.26926"
       cy="45.96283"
       fx="157.26926"
       fy="45.96283"
       r="13.755"
       gradientTransform="matrix(0.07311386,1.172871,-1.0475998,0.06530472,196.15209,-143.33815)"
       gradientUnits="userSpaceOnUse" /><radialGradient
       inkscape:collect="always"
       xlink:href="#linearGradient17355"
       id="radialGradient17357"
       cx="237.40622"
       cy="122.23911"
       fx="237.40622"
       fy="122.23911"
       r="14.074627"
       gradientTransform="matrix(-0.11578993,-1.1928453,1.2360378,-0.11998264,113.80332,420.10004)"
       gradientUnits="userSpaceOnUse" /><linearGradient
       inkscape:collect="always"
       xlink:href="#linearGradient18188"
       id="linearGradient18190"
       x1="224.50252"
       y1="109.85288"
       x2="242.58185"
       y2="129.73041"
       gradientUnits="userSpaceOnUse" /><linearGradient
       inkscape:collect="always"
       xlink:href="#linearGradient18205"
       id="linearGradient18199"
       x1="159.5"
       y1="123.8"
       x2="179.63466"
       y2="102.45248"
       gradientUnits="userSpaceOnUse" /><linearGradient
       inkscape:collect="always"
       xlink:href="#linearGradient18234"
       id="linearGradient18228"
       x1="243.73613"
       y1="82.392906"
       x2="207.80721"
       y2="82.125443"
       gradientUnits="userSpaceOnUse" /><linearGradient
       inkscape:collect="always"
       xlink:href="#linearGradient18240"
       id="linearGradient18242"
       x1="220.55812"
       y1="106.57134"
       x2="244.28319"
       y2="131.53436"
       gradientUnits="userSpaceOnUse" /><linearGradient
       inkscape:collect="always"
       xlink:href="#linearGradient18405"
       id="linearGradient18407"
       x1="199.3"
       y1="93.459999"
       x2="200.07812"
       y2="123.96059"
       gradientUnits="userSpaceOnUse" /><linearGradient
       inkscape:collect="always"
       xlink:href="#linearGradient18421"
       id="linearGradient18415"
       x1="157.19701"
       y1="40.329899"
       x2="174.23126"
       y2="58.019547"
       gradientUnits="userSpaceOnUse" /><linearGradient
       inkscape:collect="always"
       xlink:href="#linearGradient18435"
       id="linearGradient18429"
       x1="199.19556"
       y1="71.76252"
       x2="199.19556"
       y2="46.924305"
       gradientUnits="userSpaceOnUse" /><linearGradient
       inkscape:collect="always"
       xlink:href="#linearGradient18449"
       id="linearGradient18443"
       x1="156.57974"
       y1="127.86914"
       x2="176.37466"
       y2="107.31773"
       gradientUnits="userSpaceOnUse" /><linearGradient
       inkscape:collect="always"
       xlink:href="#linearGradient18464"
       id="linearGradient18458"
       x1="243.19827"
       y1="39.61153"
       x2="218.8644"
       y2="65.080154"
       gradientUnits="userSpaceOnUse" /><linearGradient
       inkscape:collect="always"
       xlink:href="#linearGradient18471"
       id="linearGradient18473"
       x1="209.69901"
       y1="83.914001"
       x2="213.94719"
       y2="83.740334"
       gradientUnits="userSpaceOnUse" /><linearGradient
       inkscape:collect="always"
       xlink:href="#linearGradient18480"
       id="linearGradient18482"
       x1="189.00101"
       y1="84.176003"
       x2="180.89999"
       y2="83.290001"
       gradientUnits="userSpaceOnUse" /><linearGradient
       inkscape:collect="always"
       xlink:href="#linearGradient18489"
       id="linearGradient18491"
       x1="199.26199"
       y1="94.519997"
       x2="199.32164"
       y2="101.26578"
       gradientUnits="userSpaceOnUse" /></defs><sodipodi:namedview
     bordercolor="#666666"
     borderopacity="1"
     fit-margin-bottom="0"
     fit-margin-left="0"
     fit-margin-right="0"
     fit-margin-top="0"
     gridtolerance="10"
     guidetolerance="10"
     inkscape:current-layer="g6591"
     inkscape:cx="168.80187"
     inkscape:cy="51.293304"
     inkscape:document-rotation="0"
     inkscape:pageopacity="0"
     inkscape:pageshadow="2"
     inkscape:window-height="715"
     inkscape:window-maximized="1"
     inkscape:window-width="1366"
     inkscape:window-x="-8"
     inkscape:window-y="-8"
     inkscape:zoom="2.9749916"
     objecttolerance="10"
     pagecolor="#ffffff"
     showgrid="false"
     id="namedview137" /><g
     transform="matrix(1.333 0 0 -1.333 -47.88 176.5)"
     inkscape:groupmode="layer"
     inkscape:label="ink_ext_XXXXXX"
     id="g6591"><path
       d="m 152.766,44.265 c -7.455,14.56 12.64,21.24 16.12,34.99 0.745,2.949 0.755,6.611 0.044,9.569 -3.352,13.88 -23.65,20.55 -16.16,35.17 -1.942,-4.432 -0.916,-8.032 1.792,-11.17 10e-4,-0.002 0.002,-0.003 0.004,-0.005 0.001,-0.002 0.002,-0.003 0.004,-0.005 6.162,-7.133 21.01,-11.88 29.42,-18.59 3.618,-2.886 6.044,-6.134 6.076,-10.09 h 0.001 c -0.032,-3.957 -2.459,-7.207 -6.077,-10.09 -7.04,-5.616 -18.59,-9.859 -25.78,-15.28 l -0.001,-8e-4 c -0.011,-0.0082 -0.02,-0.0152 -0.031,-0.023 -0.003,-0.002 -0.007,-0.0063 -0.01,-0.0082 -0.001,-8e-4 -0.003,-0.002 -0.004,-0.0027 -5.154,-3.896 -8.048,-8.401 -5.392,-14.46 m 0.925,11.77 c 1.366,1.605 3.047,2.98 4.698,4.154 3.771,2.682 8.072,4.856 12.17,6.996 5.618,2.933 16.16,8.009 18.09,14.55 0.231,0.7812 0.346,1.584 0.346,2.4 v 0.0324 0.0324 c 0,0.8149 -0.115,1.618 -0.346,2.4 -0.373,1.262 -1.067,2.47 -1.984,3.617 -0.2,0.2512 -0.412,0.4996 -0.633,0.7449 -1.184,1.315 -2.646,2.546 -4.229,3.688 0.153,-0.1265 0.305,-0.2539 0.455,-0.382 -8.427,6.133 -22.49,10.83 -28.58,17.99 2.17,-4.093 6.302,-7.981 9.107,-11.14 2.34,-2.634 4.576,-5.462 6.025,-8.697 0.485,-1.079 0.875,-2.197 1.153,-3.346 0.37,-1.538 0.556,-3.238 0.556,-4.941 0.001,-1.77 -0.2,-3.542 -0.604,-5.138 -1.159,-4.582 -4.044,-8.376 -7.13,-11.85 -2.799,-3.149 -6.918,-7.026 -9.091,-11.11"
       inkscape:connector-curvature="0"
       id="path45-7"
       style="fill:url(#radialGradient15749);fill-opacity:1;stroke:#ef3821;stroke-width:0.1;stroke-opacity:1"
       clip-path="none" /><path
       d="m 226.5,102.6 c 1.016,0.802 2.021,1.618 3.005,2.461 l 0.032,0.028 0.133,0.132 c 2.526,2.525 2.526,6.62 0,9.144 l -0.121,0.123 c -1.264,1.264 -2.925,1.899 -4.585,1.899 -1.656,0 -3.31,-0.633 -4.565,-1.903 l -0.063,-0.063 -0.062,-0.065 -0.026,-0.029 c -0.833,-0.959 -1.636,-1.94 -2.427,-2.935 0.123,0.237 0.246,0.472 0.367,0.707 2.104,4.024 4.249,8.281 6.887,11.98 1.867,2.621 4.462,5.606 7.703,6.461 0.503,0.132 1.005,0.209 1.504,0.235 1.187,-0.152 2.349,-0.522 3.474,-1.039 1.546,-0.712 2.985,-1.863 4.183,-3.062 1.2,-1.201 2.352,-2.641 3.065,-4.191 0.449,-0.976 0.787,-1.98 0.965,-3.004 0.002,0.426 -0.032,0.85 -0.096,1.27 0.16,-1.036 0.131,-2.093 -0.15,-3.158 -0.856,-3.238 -3.841,-5.836 -6.463,-7.703 -3.701,-2.637 -7.959,-4.782 -11.98,-6.884 -0.257,-0.136 -0.516,-0.27 -0.776,-0.406"
       inkscape:connector-curvature="0"
       id="path42"
       style="stroke-width:0.1;fill-opacity:1;fill:url(#radialGradient17357)" /><path
       d="m 81.29,107 c -0.3066,-0.078 -0.6277,-0.116 -0.9641,-0.116 -0.5957,0 -1.113,0.094 -1.548,0.287 -0.4375,0.188 -0.8106,0.447 -1.116,0.772 -0.3098,0.325 -0.5578,0.695 -0.7492,1.111 -0.1875,0.415 -0.3301,0.852 -0.4278,1.31 -0.0906,0.43 -0.1484,0.898 -0.1648,1.409 -0.0196,0.506 0.0094,1.012 0.0894,1.519 0.0813,0.503 0.218,0.989 0.4094,1.457 0.1914,0.468 0.4504,0.884 0.7832,1.244 0.3281,0.363 0.7332,0.65 1.215,0.866 0.4835,0.213 1.053,0.322 1.718,0.322 0.259,0 0.511,-0.021 0.7551,-0.063 v -2.13 l -0.1211,0.002 c -0.3137,0 -0.5847,-0.07 -0.8203,-0.206 -0.2305,-0.137 -0.4219,-0.318 -0.5762,-0.546 -0.1535,-0.23 -0.2734,-0.495 -0.3625,-0.793 -0.0894,-0.299 -0.1519,-0.614 -0.1836,-0.939 -0.03,-0.321 -0.0371,-0.65 -0.0164,-0.981 0.0243,-0.329 0.0625,-0.637 0.1223,-0.916 0.0437,-0.207 0.1031,-0.4 0.1766,-0.584 0.0703,-0.185 0.1711,-0.349 0.289,-0.493 0.1184,-0.143 0.2649,-0.254 0.4317,-0.341 0.1672,-0.085 0.3672,-0.127 0.5964,-0.127 0.1575,0 0.3118,0.021 0.4641,0.063 z m 11.56,10.06 v -2.12 c -0.168,-0.046 -0.332,-0.116 -0.491,-0.212 -0.3012,-0.181 -0.5664,-0.427 -0.7988,-0.737 -0.2317,-0.311 -0.4231,-0.671 -0.5649,-1.084 -0.1465,-0.411 -0.2156,-0.855 -0.2117,-1.327 l -0.0176,-1.39 c 0.3399,-0.378 0.6907,-0.658 1.048,-0.846 0.3203,-0.17 0.6648,-0.26 1.036,-0.277 v -2.12 l -0.0996,0.018 c -0.2754,0.055 -0.532,0.132 -0.7703,0.23 -0.2434,0.098 -0.4668,0.213 -0.675,0.35 -0.2078,0.132 -0.3945,0.272 -0.5598,0.422 l -0.0078,-4.123 -0.0672,-0.185 c -0.0449,-0.056 -0.1203,-0.101 -0.2304,-0.14 -0.1067,-0.038 -0.2532,-0.066 -0.4317,-0.087 -0.1836,-0.021 -0.4148,-0.028 -0.6902,-0.028 -0.2754,0 -0.5031,0.007 -0.6789,0.028 -0.177,0.021 -0.3172,0.049 -0.4278,0.087 -0.1074,0.039 -0.1828,0.084 -0.2246,0.14 l -0.0625,0.185 0.0899,12.76 c -0.0039,0.143 0.0926,0.244 0.2785,0.307 0.1902,0.06 0.5164,0.091 0.9781,0.091 0.2336,0 0.4231,-0.007 0.5727,-0.024 0.148,-0.018 0.2683,-0.042 0.3633,-0.074 l 0.1968,-0.122 0.0617,-0.178 0.002,-1.485 c 0.0637,0.223 0.1934,0.457 0.3816,0.703 0.1946,0.24 0.4368,0.464 0.7344,0.663 0.2981,0.202 0.634,0.367 1.016,0.496 z m -6.723,-9.603 c 0,-0.143 -0.0957,-0.248 -0.2852,-0.307 -0.1934,-0.063 -0.5156,-0.095 -0.9746,-0.095 -0.2293,0 -0.418,0.007 -0.5711,0.021 -0.1477,0.014 -0.2668,0.039 -0.3652,0.067 -0.095,0.031 -0.1606,0.073 -0.1973,0.122 l -0.0606,0.192 0.0016,1.465 c -0.0633,-0.221 -0.1941,-0.452 -0.3875,-0.693 -0.1973,-0.24 -0.4414,-0.46 -0.7351,-0.66 -0.2954,-0.199 -0.6301,-0.363 -1.008,-0.493 L 81.2873,107 v 2.127 c 0.1649,0.044 0.3281,0.113 0.4883,0.207 0.3059,0.181 0.5742,0.426 0.8066,0.736 0.2325,0.311 0.4192,0.675 0.5567,1.088 0.1418,0.412 0.2129,0.852 0.2199,1.324 l 0.0191,1.383 c -0.3433,0.373 -0.6902,0.657 -1.046,0.842 -0.3235,0.17 -0.6731,0.264 -1.044,0.281 v 2.13 c 0.3379,-0.057 0.6602,-0.154 0.968,-0.29 0.5293,-0.238 1.018,-0.579 1.473,-1.031 l 0.0078,0.811 c 0,0.143 0.093,0.244 0.2864,0.307 0.1941,0.06 0.5156,0.091 0.9707,0.091 0.2254,0 0.4148,-0.007 0.5671,-0.024 0.1524,-0.018 0.2762,-0.042 0.3665,-0.074 0.0957,-0.031 0.1609,-0.07 0.2019,-0.122 l 0.0574,-0.178 z m 6.723,-0.51 v 2.12 l 0.1277,-0.003 c 0.3059,0 0.5707,0.067 0.802,0.203 0.2273,0.136 0.4211,0.321 0.5754,0.548 0.1582,0.228 0.282,0.493 0.3711,0.794 0.0894,0.301 0.148,0.615 0.1812,0.943 0.0305,0.325 0.0325,0.657 0.0129,0.986 -0.0215,0.332 -0.0644,0.642 -0.1269,0.935 -0.0496,0.234 -0.1121,0.444 -0.1953,0.636 -0.0832,0.192 -0.1829,0.354 -0.3067,0.487 -0.1199,0.132 -0.2597,0.234 -0.4199,0.303 -0.1594,0.066 -0.3469,0.102 -0.5566,0.102 -0.1582,0 -0.3125,-0.021 -0.4649,-0.061 v 2.12 c 0.3047,0.08 0.6277,0.121 0.9649,0.121 0.5773,0 1.078,-0.091 1.511,-0.273 0.4285,-0.181 0.7976,-0.426 1.109,-0.74 0.3074,-0.315 0.5613,-0.683 0.7625,-1.108 0.1965,-0.423 0.3476,-0.877 0.4492,-1.36 0.0945,-0.444 0.1504,-0.922 0.1711,-1.432 0.0176,-0.514 -0.0129,-1.02 -0.0918,-1.527 -0.0774,-0.503 -0.2141,-0.991 -0.4055,-1.456 -0.1914,-0.469 -0.4558,-0.881 -0.7859,-1.234 -0.3293,-0.356 -0.7356,-0.64 -1.218,-0.852 -0.4836,-0.21 -1.053,-0.315 -1.711,-0.315 -0.2625,0 -0.5137,0.02 -0.7559,0.063 z m 10.64,10.17 v -2.13 l -0.122,0.002 c -0.312,0 -0.584,-0.07 -0.82,-0.206 -0.23,-0.137 -0.421,-0.318 -0.575,-0.546 -0.155,-0.23 -0.274,-0.495 -0.364,-0.793 -0.088,-0.299 -0.152,-0.614 -0.182,-0.939 -0.031,-0.321 -0.038,-0.65 -0.017,-0.981 0.024,-0.329 0.063,-0.637 0.122,-0.916 0.044,-0.207 0.103,-0.4 0.177,-0.584 0.07,-0.185 0.17,-0.349 0.289,-0.493 0.118,-0.143 0.265,-0.254 0.432,-0.341 0.167,-0.085 0.367,-0.127 0.596,-0.127 0.158,0 0.311,0.021 0.464,0.063 v -2.127 c -0.306,-0.078 -0.628,-0.116 -0.964,-0.116 -0.596,0 -1.114,0.094 -1.548,0.287 -0.438,0.188 -0.81,0.447 -1.116,0.772 -0.3105,0.325 -0.5578,0.695 -0.7488,1.111 -0.1875,0.415 -0.3313,0.852 -0.4277,1.31 -0.0911,0.43 -0.1496,0.898 -0.1653,1.409 -0.0207,0.506 0.0098,1.012 0.0899,1.519 0.08,0.503 0.2175,0.989 0.409,1.457 0.1906,0.468 0.4503,0.884 0.7835,1.244 0.328,0.363 0.733,0.65 1.215,0.866 0.483,0.213 1.051,0.322 1.717,0.322 0.259,0 0.51,-0.021 0.755,-0.063 z m 24.43,-9.651 -0.068,-0.181 c -0.047,-0.049 -0.121,-0.095 -0.234,-0.126 -0.107,-0.035 -0.25,-0.059 -0.43,-0.077 -0.18,-0.017 -0.411,-0.028 -0.694,-0.028 -0.268,0 -0.492,0.011 -0.672,0.028 -0.179,0.018 -0.322,0.042 -0.425,0.077 -0.106,0.031 -0.18,0.077 -0.221,0.126 l -0.07,0.181 0.037,5.476 c 0.001,0.142 -0.011,0.304 -0.027,0.484 -0.015,0.183 -0.038,0.344 -0.069,0.487 -0.031,0.15 -0.076,0.29 -0.137,0.416 -0.061,0.125 -0.137,0.234 -0.235,0.328 -0.092,0.091 -0.206,0.164 -0.336,0.213 -0.13,0.053 -0.276,0.077 -0.44,0.077 -0.306,0 -0.608,-0.088 -0.904,-0.266 -0.295,-0.178 -0.556,-0.419 -0.786,-0.726 -0.228,-0.307 -0.417,-0.664 -0.558,-1.076 -0.147,-0.41 -0.219,-0.842 -0.217,-1.3 l -0.033,-4.113 -0.068,-0.181 c -0.047,-0.049 -0.122,-0.095 -0.234,-0.126 -0.107,-0.035 -0.251,-0.059 -0.435,-0.077 -0.182,-0.017 -0.41,-0.028 -0.678,-0.028 -0.275,0 -0.503,0.011 -0.682,0.028 -0.18,0.018 -0.322,0.042 -0.434,0.077 -0.105,0.031 -0.18,0.077 -0.221,0.126 l -0.062,0.181 0.088,13.46 0.06,0.185 c 0.042,0.057 0.116,0.102 0.227,0.136 0.114,0.039 0.258,0.067 0.437,0.087 0.179,0.023 0.406,0.033 0.681,0.033 0.28,0 0.507,-0.01 0.687,-0.033 0.177,-0.02 0.32,-0.048 0.425,-0.087 0.106,-0.034 0.177,-0.079 0.219,-0.136 l 0.063,-0.185 -0.009,-3.703 c -0.006,-0.151 -0.01,-0.311 -0.02,-0.483 -0.009,-0.171 -0.023,-0.338 -0.044,-0.506 -0.019,-0.168 -0.041,-0.329 -0.065,-0.485 -0.02,-0.159 -0.045,-0.298 -0.072,-0.42 0.096,0.216 0.243,0.437 0.442,0.653 0.201,0.221 0.44,0.415 0.719,0.595 0.279,0.177 0.593,0.32 0.939,0.436 0.347,0.112 0.714,0.168 1.1,0.168 0.51,0 0.951,-0.067 1.33,-0.196 0.38,-0.129 0.705,-0.311 0.98,-0.542 0.27,-0.23 0.495,-0.51 0.661,-0.827 0.171,-0.322 0.297,-0.675 0.378,-1.056 0.051,-0.245 0.088,-0.488 0.109,-0.733 0.021,-0.242 0.034,-0.483 0.03,-0.72 z m -10.41,8.526 c 0.033,-0.157 0.048,-0.336 0.052,-0.532 0,-0.198 -0.014,-0.387 -0.045,-0.562 -0.028,-0.178 -0.079,-0.327 -0.157,-0.447 -0.075,-0.12 -0.173,-0.178 -0.292,-0.178 -0.115,0 -0.23,0.041 -0.351,0.122 -0.124,0.081 -0.269,0.176 -0.445,0.276 -0.174,0.102 -0.389,0.196 -0.637,0.283 -0.252,0.084 -0.558,0.125 -0.926,0.125 -0.386,0 -0.718,-0.076 -0.989,-0.233 -0.273,-0.158 -0.497,-0.361 -0.67,-0.609 -0.177,-0.25 -0.304,-0.533 -0.385,-0.851 -0.083,-0.315 -0.139,-0.637 -0.167,-0.961 -0.03,-0.325 -0.032,-0.637 -0.008,-0.933 0.021,-0.297 0.056,-0.552 0.103,-0.773 0.117,-0.551 0.336,-0.97 0.665,-1.257 0.325,-0.287 0.773,-0.431 1.338,-0.431 0.421,0 0.765,0.049 1.043,0.147 0.28,0.102 0.514,0.21 0.698,0.329 0.189,0.119 0.35,0.227 0.483,0.321 0.131,0.099 0.259,0.143 0.389,0.143 l 0.181,-0.09 c 0.048,-0.064 0.081,-0.15 0.106,-0.266 0.025,-0.116 0.04,-0.261 0.05,-0.437 0.007,-0.171 0.003,-0.349 -0.006,-0.527 -0.012,-0.174 -0.034,-0.342 -0.062,-0.496 -0.033,-0.154 -0.088,-0.273 -0.172,-0.364 -0.08,-0.086 -0.216,-0.188 -0.41,-0.3 -0.195,-0.112 -0.42,-0.213 -0.686,-0.301 -0.266,-0.09 -0.558,-0.16 -0.879,-0.217 -0.321,-0.054 -0.659,-0.079 -1.019,-0.079 -1.277,0 -2.294,0.293 -3.055,0.883 -0.761,0.591 -1.263,1.461 -1.509,2.617 -0.088,0.417 -0.142,0.873 -0.161,1.371 -0.021,0.499 0.015,0.998 0.099,1.498 0.088,0.504 0.237,0.988 0.446,1.46 0.21,0.472 0.5,0.887 0.875,1.247 0.369,0.364 0.824,0.654 1.372,0.871 0.541,0.22 1.198,0.328 1.967,0.328 0.299,0 0.593,-0.02 0.885,-0.063 0.296,-0.038 0.566,-0.094 0.823,-0.167 0.252,-0.071 0.48,-0.154 0.685,-0.252 0.203,-0.094 0.359,-0.181 0.464,-0.258 0.105,-0.081 0.18,-0.151 0.217,-0.213 z m -14.02,-8.993 v 2.127 c 0.165,0.044 0.328,0.113 0.489,0.207 0.305,0.181 0.574,0.426 0.807,0.736 0.231,0.311 0.418,0.675 0.556,1.088 0.142,0.412 0.213,0.852 0.22,1.324 l 0.019,1.383 c -0.344,0.373 -0.69,0.657 -1.047,0.842 -0.323,0.17 -0.673,0.264 -1.044,0.281 v 2.13 c 0.338,-0.057 0.661,-0.154 0.967,-0.29 0.529,-0.238 1.019,-0.579 1.475,-1.031 l 0.007,0.811 c 0,0.143 0.092,0.244 0.286,0.307 0.194,0.06 0.516,0.091 0.97,0.091 0.227,0 0.415,-0.007 0.568,-0.024 0.153,-0.018 0.276,-0.042 0.367,-0.074 0.095,-0.031 0.16,-0.07 0.202,-0.122 l 0.058,-0.178 -0.06,-9.151 c 0,-0.143 -0.096,-0.248 -0.286,-0.307 -0.193,-0.063 -0.516,-0.095 -0.975,-0.095 -0.229,0 -0.417,0.007 -0.569,0.021 -0.148,0.014 -0.268,0.039 -0.366,0.067 -0.095,0.031 -0.161,0.073 -0.198,0.122 l -0.06,0.192 0.002,1.465 c -0.063,-0.221 -0.195,-0.452 -0.388,-0.693 -0.198,-0.24 -0.441,-0.46 -0.735,-0.66 -0.295,-0.199 -0.63,-0.363 -1.009,-0.493 z m 30.46,10.18 v -1.847 c -0.243,-0.025 -0.46,-0.08 -0.65,-0.167 -0.269,-0.123 -0.495,-0.289 -0.674,-0.497 -0.504,-0.58 -0.539,-1.154 -0.614,-1.918 0.437,0 1.206,-0.039 1.938,0 v -2 c -0.646,-0.019 -1.243,0.017 -1.99,0.028 -0.012,-1.025 0.904,-1.493 1.99,-1.639 v -2.249 c -0.576,0.018 -1.097,0.083 -1.567,0.197 -0.561,0.136 -1.053,0.346 -1.472,0.625 -0.418,0.28 -0.761,0.636 -1.034,1.069 -0.271,0.434 -0.468,0.948 -0.595,1.541 -0.096,0.458 -0.155,0.946 -0.173,1.467 -0.017,0.525 0.023,1.039 0.126,1.549 0.102,0.506 0.266,0.992 0.497,1.456 0.229,0.465 0.54,0.874 0.932,1.223 0.392,0.353 0.87,0.637 1.438,0.846 0.526,0.197 1.14,0.301 1.848,0.316 z m 0,-6.429 v 2 c 0.51,0.029 1.001,0.093 1.355,0.236 0.564,0.229 0.66,0.829 0.537,1.41 -0.058,0.272 -0.226,0.5 -0.497,0.681 -0.276,0.182 -0.635,0.269 -1.081,0.269 -0.109,0 -0.213,-0.005 -0.314,-0.014 v 1.847 l 0.179,0.002 c 0.681,0 1.281,-0.074 1.802,-0.22 0.52,-0.147 0.964,-0.343 1.329,-0.584 0.364,-0.241 0.657,-0.521 0.875,-0.828 0.219,-0.311 0.364,-0.633 0.433,-0.957 0.459,-2.157 -0.676,-3.206 -2.809,-3.628 -0.71,-0.14 -1.276,-0.196 -1.809,-0.214 z m 0,-3.86 v 2.249 c 0.941,-0.127 2.009,-0.012 2.717,0.192 0.279,0.08 0.512,0.149 0.689,0.213 0.18,0.065 0.315,0.098 0.408,0.098 l 0.202,-0.07 c 0.047,-0.05 0.083,-0.127 0.105,-0.227 0.087,-0.411 0.126,-0.979 0.025,-1.353 -0.145,-0.529 -0.895,-0.757 -1.434,-0.874 -0.322,-0.07 -0.688,-0.125 -1.096,-0.167 -0.408,-0.045 -0.831,-0.067 -1.264,-0.067 -0.119,0 -0.236,0.002 -0.352,0.006"
       style="fill:#606a84;stroke-width:0.1"
       inkscape:connector-curvature="0"
       id="path139" /><path
       d="m 90.62,99.98 c 1.225,0.06 1.638,0.036 2.863,0.007 7.285,-0.1734 13.41,-5.681 13.16,-11.04 -0.303,-6.635 -4.265,-10.2 -10.57,-10.2 h -11.59 v -1.184 c 0.6219,-3.292 2.574,-5.488 6.427,-6.111 3.389,-0.3718 6.779,-0.0144 10.17,0.7368 0.657,0.1765 1.079,-0.1954 1.316,-1.001 v -3.108 c -0.005,-0.9743 -0.31,-1.502 -0.739,-1.845 -3.152,-2.301 -7.496,-2.572 -11.29,-2.336 -4.859,0.2961 -8.95,2.088 -11.99,5.921 -0.7707,0.916 -1.385,1.912 -1.867,2.962 -1.654,3.591 -1.735,9.293 -1.216,13.25 1.014,7.744 6.401,13.51 15.33,13.95 z M 84.485,85.15 h 10.06 c 3.828,0 4.938,7.223 -0.4214,7.48 h -3.161 c -3.855,-0.3871 -6.751,-3.056 -6.479,-7.48 z m -22.91,19.57 V 75.11 c 0.1238,-5.522 1.826,-9.002 4.952,-10.63 1.682,-0.877 3.904,-0.6528 5.531,-0.375 0.6324,0.3211 1.148,0.8461 0.8953,1.368 -1.072,2.157 -1.825,5.117 -2.054,9.378 v 28.5 c 0,1.378 -1.461,3.019 -6.48,2.986 -1.427,-0.008 -2.593,-0.459 -2.845,-1.617 z M 55.503,98.933 H 52.922 C 47.881,98.7936 45.178,96.546 45.178,92.98 v -6.85 h 9.956 c 0.6758,-0.0867 0.8508,-0.5164 0.8422,-1.052 v -3.082 c -0.0758,-1.872 -1.843,-3.45 -3.529,-3.45 h -7.217 v -9.202 c 0,-2.769 0.8032,-6.885 2.054,-9.399 0.2536,-0.5242 -0.2632,-1.048 -0.8953,-1.37 -1.627,-0.2769 -3.851,-0.5008 -5.532,0.3762 -3.125,1.63 -4.828,5.109 -4.951,10.63 v 22.98 c 0,7.964 5.992,13.86 15.49,13.86 h 5.69 c 1.054,-0.08 1.591,-0.563 1.58,-1.583 v -2.896 c 0,-1.45 -1.711,-3.003 -3.16,-3.003 z m 52.29,1.16 c -1.255,-0.1391 -1.299,-1.204 -0.685,-2.319 2.774,-4.321 5.548,-8.639 8.322,-12.96 0.764,-1.321 0.775,-2.491 0.042,-3.47 -3.547,-5.302 -6.924,-10.35 -10.47,-15.65 -0.368,-0.4391 -0.383,-1.527 0.79,-1.527 h 5.954 c 0.938,0 1.984,0.3723 2.581,1.16 2.264,3.618 4.531,7.234 6.795,10.85 0.471,0.6972 1.702,0.7121 2.161,0 1.913,-3.216 3.827,-6.427 5.741,-9.642 0.747,-1.127 1.676,-2.317 2.95,-2.317 h 6.584 c 0.988,0 1.107,1.162 0.474,2.003 -3.353,5.125 -6.708,10.25 -10.06,15.38 -0.542,0.8516 -0.586,1.933 0,2.95 3.091,5.338 6.18,10.68 9.271,16.01 0.36,0.746 -0.123,1.705 -0.895,1.687 h -5.532 c -1.378,0.026 -2.782,-0.764 -3.423,-1.896 -1.564,-3.286 -3.127,-6.57 -4.687,-9.852 -0.722,-1.395 -1.889,-1.424 -2.795,0 -1.56,2.86 -3.125,5.723 -4.688,8.587 -0.325,0.5891 -0.861,0.9638 -1.528,1.054 -2.301,-0.017 -4.6,-0.037 -6.9,-0.053"
       style="fill:#1b2642;fill-rule:evenodd;stroke-width:0.1"
       inkscape:connector-curvature="0"
       id="path141" /><path
       d="m 234.8,36.53 c -4.34,-0.0012 -7.808,3.128 -10.92,7.596 -0.002,0.0031 -0.005,0.0062 -0.007,0.0101 -0.002,0.002 -0.004,0.0051 -0.006,0.0071 -5.021,7.224 -9.108,17.94 -14.43,24.6 l 10e-4,8e-4 c 4.955,-5.183 7.408,-9.729 11.62,-14.08 l 0.007,-0.0058 0.038,-0.0399 0.059,-0.0589 c 1.055,-1.056 2.438,-1.584 3.822,-1.584 1.383,0 2.766,0.5277 3.822,1.584 l 0.06,0.0609 0.063,0.0598 c 2.11,2.112 2.11,5.534 0,7.645 l -0.061,0.059 -0.039,0.0386 -0.008,0.0071 c -4.349,4.203 -8.892,6.658 -14.08,11.61 l 10e-4,4e-4 c 7.445,-5.94 19.93,-10.34 26.98,-16.23 0.002,-0.0019 0.006,-0.005 0.009,-0.007 0.001,-0.0019 0.001,-0.0012 0.003,-0.0031 4.393,-3.674 6.659,-7.925 4.245,-13.49 -0.671,-1.38 -1.682,-2.755 -2.869,-3.942 -1.186,-1.186 -2.557,-2.194 -3.933,-2.867 -1.555,-0.675 -3.01,-0.9859 -4.376,-0.9859 m -0.459,0.991 c 0.119,-0.0063 0.238,-0.0082 0.357,-0.0082 1.382,0 2.738,0.3699 4.034,0.968 1.338,0.616 2.586,1.613 3.625,2.653 1.042,1.041 2.039,2.291 2.657,3.633 0.868,1.887 1.255,3.901 0.717,5.939 -0.855,3.24 -3.84,5.837 -6.463,7.705 -3.701,2.637 -7.958,4.782 -11.98,6.884 -0.144,0.0762 -0.287,0.1512 -0.432,0.2262 0.915,-0.7422 1.811,-1.505 2.684,-2.302 l 0.027,-0.0238 0.108,-0.1078 c 2.555,-2.51 2.531,-6.628 0.008,-9.152 l -0.123,-0.1207 c -1.263,-1.264 -2.925,-1.9 -4.584,-1.9 -1.656,0 -3.31,0.6328 -4.566,1.904 l -0.069,0.0699 c -0.658,0.5711 -1.279,1.174 -1.874,1.805 2.019,-3.873 4.093,-7.929 6.619,-11.47 1.867,-2.623 4.466,-5.607 7.704,-6.462 0.487,-0.1281 0.972,-0.2039 1.454,-0.2332 h -0.001 c 0.034,-0.002 0.068,-0.0039 0.102,-0.0047"
       inkscape:connector-curvature="0"
       id="path6"
       style="stroke-width:0.1;fill-opacity:1;fill:url(#linearGradient18458)" /><path
       d="m 234.7,37.51 c -0.119,0 -0.238,0.0019 -0.357,0.0082 0.115,-0.0051 0.229,-0.0082 0.344,-0.0082 1.381,0 2.736,0.3699 4.031,0.966 1.34,0.618 2.588,1.616 3.627,2.654 1.041,1.042 2.037,2.291 2.656,3.634 0.59,1.283 0.957,2.627 0.963,3.996 v 0.064 c -0.178,-1.024 -0.516,-2.029 -0.965,-3.004 -0.713,-1.549 -1.865,-2.99 -3.065,-4.191 -1.198,-1.2 -2.637,-2.349 -4.183,-3.062 -1.136,-0.5238 -2.31,-0.8961 -3.509,-1.044 -0.482,0.0293 -0.967,0.1051 -1.454,0.2332 -3.238,0.8551 -5.837,3.839 -7.704,6.462 -2.526,3.543 -4.6,7.599 -6.619,11.47 0.595,-0.6309 1.216,-1.234 1.874,-1.805 l 0.069,-0.0699 c 1.256,-1.271 2.91,-1.904 4.566,-1.904 1.659,0 3.321,0.6359 4.584,1.9 l 0.123,0.1207 c 2.523,2.524 2.547,6.642 -0.008,9.152 l -0.108,0.1078 -0.027,0.0238 c -0.873,0.7973 -1.769,1.56 -2.684,2.302 0.145,-0.075 0.288,-0.15 0.432,-0.2262 4.026,-2.102 8.283,-4.247 11.98,-6.884 2.623,-1.868 5.608,-4.465 6.463,-7.705 0.538,-2.038 0.151,-4.052 -0.717,-5.939 -0.618,-1.342 -1.615,-2.592 -2.657,-3.633 -1.039,-1.04 -2.287,-2.037 -3.625,-2.653 -1.296,-0.5981 -2.652,-0.968 -4.034,-0.968"
       inkscape:connector-curvature="0"
       id="path9"
       style="stroke-width:0.1;fill:url(#radialGradient15155);fill-opacity:1" /><path
       d="m 214.7,94.23 h -10e-4 c 5.186,4.957 9.731,7.41 14.08,11.62 l 0.008,0.005 0.039,0.039 0.061,0.059 c 2.11,2.112 2.11,5.534 0,7.645 l -0.063,0.06 -0.06,0.061 c -1.056,1.056 -2.439,1.584 -3.823,1.584 -1.383,0 -2.766,-0.528 -3.821,-1.584 l -0.097,-0.097 -0.007,-0.009 c -4.204,-4.348 -6.66,-8.893 -11.62,-14.08 l -10e-4,8e-4 c 6.139,7.695 10.64,20.78 16.82,27.67 0.002,0.001 0.004,0.004 0.005,0.005 0.002,0.003 0.004,0.005 0.007,0.007 2.494,2.772 5.261,4.535 8.521,4.535 1.366,0 2.821,-0.31 4.376,-0.985 1.378,-0.673 2.747,-1.682 3.933,-2.868 1.187,-1.186 2.198,-2.561 2.869,-3.939 1.865,-4.297 0.937,-7.812 -1.606,-10.88 -0.001,-0.002 -0.002,-0.002 -0.003,-0.004 l -0.001,-10e-4 c -6.028,-7.272 -21.12,-12.05 -29.62,-18.84 m 10.21,22.14 c 1.66,0 3.321,-0.635 4.585,-1.899 l 0.121,-0.123 c 2.526,-2.524 2.526,-6.619 0,-9.144 l -0.133,-0.132 -0.032,-0.028 c -0.984,-0.843 -1.989,-1.659 -3.005,-2.461 0.26,0.136 0.519,0.27 0.776,0.406 4.025,2.102 8.283,4.247 11.98,6.884 2.622,1.867 5.607,4.465 6.463,7.703 0.281,1.065 0.31,2.122 0.15,3.158 -0.146,0.951 -0.452,1.885 -0.867,2.79 -0.619,1.342 -1.615,2.592 -2.656,3.633 -1.039,1.039 -2.287,2.036 -3.627,2.653 -1.295,0.598 -2.651,0.968 -4.033,0.968 -0.147,0 -0.295,-0.004 -0.444,-0.013 0.012,-0.001 0.024,-0.003 0.036,-0.005 -0.499,-0.026 -1.001,-0.103 -1.504,-0.235 -3.241,-0.855 -5.836,-3.84 -7.703,-6.461 -2.638,-3.701 -4.783,-7.958 -6.887,-11.98 -0.121,-0.235 -0.244,-0.47 -0.367,-0.707 0.791,0.995 1.594,1.976 2.427,2.935 l 0.026,0.029 0.062,0.065 0.063,0.063 c 1.255,1.27 2.909,1.903 4.565,1.903"
       inkscape:connector-curvature="0"
       id="path12"
       style="stroke-width:0.1;stroke:url(#linearGradient18190);stroke-opacity:0.73333335;fill:url(#linearGradient18242);fill-opacity:1" /><path
       d="m 199.3,93.46 c -3.959,0.032 -7.207,2.459 -10.09,6.078 l 0.001,0.0012 c -1.401,1.755 -2.716,3.791 -3.985,5.968 -6.541,11.23 -11.86,26.25 -21.37,26.25 -1.208,0 -2.483,-0.242 -3.837,-0.765 -0.001,-0.001 -0.003,-0.001 -0.005,-0.002 -0.002,-10e-4 -0.005,-0.002 -0.007,-0.003 -0.175,-0.067 -0.353,-0.141 -0.53,-0.217 -0.002,-10e-4 -0.003,-0.002 -0.005,-0.003 -0.01,-0.005 -0.02,-0.009 -0.031,-0.013 2.249,1.151 4.308,1.645 6.236,1.645 10.6,0 17.18,-14.95 28.91,-17.8 1.458,-0.352 3.087,-0.529 4.717,-0.529 1.618,0 3.236,0.174 4.685,0.523 11.75,2.83 18.33,17.81 28.94,17.81 1.927,0 3.989,-0.495 6.236,-1.646 -1.571,0.688 -3.036,1.003 -4.415,1.003 -3.259,0 -6.027,-1.765 -8.52,-4.537 -0.003,-0.002 -0.005,-0.004 -0.007,-0.007 -0.002,-0.002 -0.003,-0.004 -0.005,-0.005 -6.187,-6.888 -10.69,-19.97 -16.82,-27.67 -2.886,-3.618 -6.136,-6.045 -10.09,-6.077 m -0.038,1.061 h 0.038 c 0.814,0 1.617,0.1168 2.397,0.3461 6.539,1.93 11.62,12.47 14.55,18.09 2.139,4.099 4.314,8.4 6.995,12.17 1.175,1.652 2.552,3.333 4.155,4.699 -4.084,-2.175 -7.959,-6.292 -11.11,-9.091 -3.528,-3.135 -7.381,-6.056 -12.05,-7.179 -1.536,-0.371 -3.236,-0.556 -4.935,-0.556 -1.71,0 -3.419,0.188 -4.966,0.562 -1.14,0.277 -2.25,0.667 -3.321,1.146 -3.237,1.449 -6.065,3.687 -8.7,6.027 -3.156,2.805 -7.044,6.939 -11.14,9.108 7.179,-6.109 11.88,-20.22 18.04,-28.64 -0.146,0.169 -0.29,0.34 -0.433,0.513 2.327,-3.227 5.033,-5.953 8.05,-6.844 0.781,-0.2305 1.584,-0.3461 2.399,-0.3461 h 0.037"
       inkscape:connector-curvature="0"
       id="path15"
       style="stroke-width:0.1;fill:url(#linearGradient18407);fill-opacity:1" /><path
       d="m 233,35.88 c -10.62,0 -17.21,15.01 -28.98,17.82 -1.439,0.343 -3.045,0.5148 -4.651,0.5148 -1.631,0 -3.263,-0.1769 -4.722,-0.5308 -11.73,-2.851 -18.31,-17.8 -28.91,-17.8 -1.928,-0.0012 -3.987,0.4938 -6.236,1.645 0.011,-0.0043 0.021,-0.009 0.031,-0.0133 0.002,-7e-4 0.003,-0.0019 0.005,-0.0027 0.183,-0.0789 0.364,-0.1539 0.544,-0.223 1.353,-0.5231 2.628,-0.7641 3.835,-0.7641 11.17,0 16.56,20.71 24.93,31.67 0.141,0.1844 0.282,0.3656 0.425,0.5441 v 4e-4 c 2.887,3.619 6.136,6.047 10.1,6.079 3.956,-0.032 7.206,-2.46 10.09,-6.077 5.319,-6.667 9.406,-17.38 14.43,-24.6 0.002,-0.002 0.005,-0.0051 0.006,-0.0071 0.002,-0.0039 0.005,-0.007 0.007,-0.0101 3.11,-4.47 6.577,-7.597 10.92,-7.597 1.379,0 2.844,0.3148 4.415,1.003 -2.248,-1.151 -4.309,-1.646 -6.236,-1.646 m -5.502,2.555 c -7.098,6.039 -11.77,19.9 -17.83,28.36 0.026,-0.032 0.053,-0.0652 0.08,-0.0973 -2.793,3.923 -5.875,6.702 -9.62,7.03 -0.25,0.0223 -0.504,0.0336 -0.76,0.0336 -0.644,0 -1.28,-0.0727 -1.904,-0.2168 -0.166,-0.0383 -0.331,-0.0817 -0.496,-0.1305 -2.493,-0.7359 -4.775,-2.726 -6.805,-5.217 -3.293,-4.04 -5.927,-9.398 -7.742,-12.87 -2.139,-4.098 -4.312,-8.4 -6.996,-12.17 -1.071,-1.508 -2.31,-3.04 -3.737,-4.334 -0.004,-0.0039 -0.008,-0.0071 -0.012,-0.011 -0.021,-0.0191 -0.043,-0.0379 -0.064,-0.057 -0.087,-0.0789 -0.175,-0.1559 -0.264,-0.232 -0.025,-0.0219 -0.05,-0.043 -0.075,-0.0649 2.806,1.494 5.515,3.908 7.956,6.179 1.111,1.033 2.166,2.037 3.15,2.912 1.287,1.143 2.617,2.258 4.015,3.268 0.005,0.0039 0.01,0.0078 0.016,0.0109 v 8e-4 c 2.419,1.745 5.04,3.175 7.986,3.891 1.548,0.3762 3.261,0.5641 4.973,0.5641 0.954,0 1.907,-0.0578 2.832,-0.175 0.733,-0.0918 1.449,-0.2207 2.133,-0.3867 0.319,-0.0781 0.636,-0.1641 0.95,-0.259 0.002,0 0.004,-0.0012 0.007,-0.0023 0.002,-8e-4 0.005,-8e-4 0.008,-0.002 0.803,-0.243 1.589,-0.5391 2.355,-0.8828 3.217,-1.441 6.031,-3.66 8.653,-5.986 0.015,-0.0141 0.031,-0.0282 0.046,-0.0411 3.156,-2.805 7.045,-6.939 11.14,-9.107 -0.002,8e-4 -0.002,8e-4 -0.003,0.002 0.001,-0.0012 0.003,-0.0012 0.005,-0.002"
       inkscape:connector-curvature="0"
       id="path18"
       style="stroke-width:0.1;fill-opacity:1;fill:url(#linearGradient18429)" /><path
       d="m 246,44.27 c 2.447,5.586 0.179,9.852 -4.226,13.54 -0.002,0.0019 -0.002,0.0012 -0.003,0.0031 -0.003,0.002 -0.007,0.0051 -0.009,0.007 -7.043,5.883 -19.53,10.29 -26.98,16.23 -3.617,2.886 -6.045,6.136 -6.077,10.09 0.033,3.957 2.459,7.204 6.077,10.09 8.506,6.786 23.6,11.57 29.62,18.84 l 0.001,0.001 c 0.001,0.002 0.002,0.002 0.003,0.004 2.553,3.082 3.479,6.611 1.587,10.93 7.488,-14.62 -12.81,-21.29 -16.16,-35.17 -0.713,-2.958 -0.701,-6.62 0.045,-9.569 3.479,-13.75 23.57,-20.43 16.12,-34.99 m -0.907,11.74 c -2.169,4.094 -6.303,7.981 -9.107,11.14 -2.339,2.633 -4.577,5.461 -6.026,8.696 -0.483,1.079 -0.874,2.196 -1.152,3.346 -0.371,1.538 -0.557,3.238 -0.557,4.94 0,1.77 0.201,3.542 0.606,5.138 1.159,4.582 4.043,8.375 7.129,11.85 2.798,3.149 6.917,7.027 9.091,11.11 -10e-4,-0.002 -0.003,-0.004 -0.005,-0.007 0.006,0.013 0.013,0.024 0.019,0.036 -2.051,-2.41 -5.006,-4.541 -8.344,-6.542 -2.782,-1.666 -5.708,-3.159 -8.539,-4.637 -2.84,-1.482 -6.938,-3.512 -10.55,-6.002 -0.397,-0.2684 -0.784,-0.5387 -1.16,-0.8125 0.151,0.1293 0.304,0.2578 0.458,0.3851 -1.686,-1.216 -3.236,-2.536 -4.458,-3.948 -0.06,-0.0691 -0.118,-0.1383 -0.177,-0.2078 -1.029,-1.23 -1.806,-2.53 -2.209,-3.894 -0.23,-0.7816 -0.345,-1.585 -0.345,-2.4 v -0.0316 -0.0332 c 0,-0.8153 0.115,-1.618 0.345,-2.4 0.002,-0.0074 0.005,-0.0149 0.007,-0.0219 0.94,-3.188 3.693,-5.888 7.315,-8.368 3.66,-2.56 7.869,-4.643 10.77,-6.156 4.099,-2.14 8.402,-4.314 12.17,-6.996 0.147,-0.1039 0.294,-0.2098 0.441,-0.318 1.654,-1.216 3.11,-2.496 4.276,-3.865"
       inkscape:connector-curvature="0"
       id="path24"
       style="stroke-width:0.1;fill:url(#linearGradient18228);fill-opacity:1"
       clip-path="none" /><path
       d="m 163.9,36.53 c -1.205,0 -2.48,0.2418 -3.831,0.7629 -0.18,0.0691 -0.361,0.1441 -0.544,0.223 -0.002,8e-4 -0.003,0.002 -0.005,0.0027 -1.376,0.6723 -2.745,1.679 -3.929,2.864 -1.187,1.187 -2.197,2.562 -2.869,3.942 -2.62,6.037 0.271,10.53 5.411,14.41 10e-4,7e-4 0.003,0.0019 0.004,0.0027 0.004,0.0031 0.006,0.0051 0.01,0.0082 0.011,0.0078 0.02,0.0148 0.031,0.023 l 0.001,8e-4 c 7.19,5.417 18.74,9.66 25.78,15.28 v -4e-4 c -5.184,-4.956 -9.73,-7.411 -14.08,-11.61 l -0.009,-0.0071 -0.039,-0.0386 -0.059,-0.059 c -2.111,-2.111 -2.111,-5.533 0,-7.645 l 0.061,-0.0598 0.061,-0.0609 c 1.055,-1.056 2.438,-1.584 3.822,-1.584 1.383,0 2.767,0.5277 3.822,1.584 l 0.059,0.0589 0.037,0.0399 0.009,0.0058 c 4.205,4.349 6.658,8.895 11.62,14.08 v -0.0028 c -0.143,-0.1785 -0.284,-0.3597 -0.425,-0.5441 -8.374,-10.96 -13.76,-31.67 -24.93,-31.67 m -1.743,1.194 c 0.608,-0.1371 1.224,-0.2109 1.845,-0.2109 0.633,0 1.271,0.0769 1.912,0.2461 3.239,0.8551 5.835,3.839 7.704,6.462 2.525,3.543 4.6,7.599 6.618,11.47 -0.593,-0.6309 -1.215,-1.234 -1.873,-1.805 l -0.069,-0.0699 c -1.256,-1.271 -2.91,-1.904 -4.566,-1.904 -1.66,0 -3.321,0.6359 -4.584,1.9 l -0.122,0.1207 c -2.525,2.524 -2.548,6.642 0.006,9.152 l 0.11,0.1078 0.025,0.0238 c 0.872,0.7973 1.771,1.56 2.684,2.302 -0.143,-0.075 -0.287,-0.15 -0.431,-0.2262 -4.026,-2.102 -8.284,-4.247 -11.98,-6.884 -2.623,-1.868 -5.61,-4.465 -6.463,-7.705 -0.167,-0.6301 -0.245,-1.259 -0.247,-1.882 -0.001,0.0012 -0.001,0.002 -0.001,0.0031 v -0.0648 c 0.006,-1.333 0.356,-2.642 0.919,-3.895 l 0.001,-8e-4 c 0.004,-0.0101 0.009,-0.0199 0.013,-0.0301 0.001,-0.0011 0.001,-0.0031 0.002,-0.0039 0.001,-0.0031 0.002,-0.0051 0.003,-0.0082 0.001,-0.0019 0.002,-0.0039 0.003,-0.0058 0.001,-0.002 0.003,-0.0051 0.004,-0.0071 0.001,-0.0039 0.003,-0.0082 0.005,-0.0121 0.001,-8e-4 0.002,-0.0027 0.002,-0.0051 0.002,-0.0027 0.003,-0.0058 0.004,-0.0089 0.001,-8e-4 0.002,-0.0028 0.003,-0.0047 0.002,-0.0043 0.004,-0.009 0.006,-0.0133 0.221,-0.4809 0.49,-0.9488 0.793,-1.401 0.412,-0.6133 0.885,-1.195 1.381,-1.732 0.158,-0.1719 0.319,-0.3391 0.481,-0.5012 0.273,-0.2719 0.56,-0.5418 0.86,-0.8027 0.323,-0.2821 0.661,-0.5532 1.011,-0.8063 0.559,-0.4051 1.148,-0.764 1.756,-1.045 0.713,-0.3281 1.445,-0.5879 2.188,-0.7551"
       inkscape:connector-curvature="0"
       id="path30"
       style="stroke-width:0.1;fill-opacity:1;fill:url(#linearGradient18415)" /><path
       d="m 164,37.51 c -0.621,0 -1.237,0.0738 -1.845,0.2109 0.607,-0.1359 1.222,-0.2109 1.842,-0.2109 0.148,0 0.297,0.0039 0.446,0.0129 -1.199,0.148 -2.374,0.5203 -3.509,1.044 -1.546,0.7129 -2.985,1.862 -4.183,3.062 -1.201,1.201 -2.351,2.642 -3.066,4.191 -0.447,0.9739 -0.785,1.978 -0.964,3.001 0.002,0.6231 0.08,1.252 0.247,1.882 0.853,3.24 3.84,5.837 6.463,7.705 3.699,2.637 7.957,4.782 11.98,6.884 0.144,0.0762 0.288,0.1512 0.431,0.2262 -0.913,-0.7422 -1.812,-1.505 -2.684,-2.302 l -0.025,-0.0238 -0.11,-0.1078 c -2.554,-2.51 -2.531,-6.628 -0.006,-9.152 l 0.122,-0.1207 c 1.263,-1.264 2.924,-1.9 4.584,-1.9 1.656,0 3.31,0.6328 4.566,1.904 l 0.069,0.0699 c 0.658,0.5711 1.28,1.174 1.873,1.805 -2.018,-3.873 -4.093,-7.929 -6.618,-11.47 -1.869,-2.623 -4.465,-5.607 -7.704,-6.462 -0.641,-0.1692 -1.279,-0.2461 -1.912,-0.2461 m -5.789,2.011 c -0.35,0.2531 -0.688,0.5242 -1.011,0.8063 0.323,-0.2821 0.661,-0.5532 1.011,-0.8063 m -2.352,2.11 c -0.496,0.5371 -0.969,1.119 -1.381,1.732 0.412,-0.6133 0.885,-1.195 1.381,-1.732 m -2.174,3.133 c -0.002,0.0043 -0.004,0.009 -0.006,0.0133 0.002,-0.0043 0.004,-0.009 0.006,-0.0133 m -0.009,0.018 c -0.001,0.0031 -0.002,0.0062 -0.004,0.0089 0.002,-0.0027 0.003,-0.0058 0.004,-0.0089 m -0.006,0.014 c -0.002,0.0039 -0.004,0.0082 -0.005,0.0121 0.001,-0.0039 0.003,-0.0082 0.005,-0.0121 m -0.009,0.0192 c -10e-4,0.0019 -0.002,0.0039 -0.003,0.0058 0.001,-0.0019 0.002,-0.0039 0.003,-0.0058 m -0.006,0.014 c -10e-4,8e-4 -10e-4,0.0028 -0.002,0.0039 0.001,-0.0011 0.001,-0.0031 0.002,-0.0039 m -0.015,0.034 -0.001,8e-4 c 0,0 0,-8e-4 0.001,-8e-4"
       inkscape:connector-curvature="0"
       id="path33"
       style="stroke-width:0.1;fill-opacity:1;fill:url(#radialGradient16553)" /><path
       d="m 183.9,94.23 c -8.409,6.71 -23.25,11.46 -29.42,18.59 -10e-4,0.002 -0.003,0.004 -0.004,0.005 -0.002,0.002 -0.003,0.003 -0.004,0.005 -2.697,3.128 -3.725,6.714 -1.811,11.12 0.672,1.378 1.682,2.753 2.87,3.939 1.183,1.185 2.552,2.193 3.928,2.865 0.002,0.001 0.003,0.002 0.005,0.003 0.177,0.076 0.355,0.15 0.53,0.217 0.002,0.001 0.004,0.002 0.007,0.003 0.002,0.001 0.004,0.001 0.005,0.002 1.352,0.522 2.627,0.763 3.833,0.763 9.512,0 14.83,-15.02 21.38,-26.25 1.269,-2.177 2.584,-4.213 3.985,-5.968 l -0.002,-0.0024 c -4.957,5.184 -7.412,9.729 -11.62,14.08 l -0.008,0.009 -0.037,0.038 -0.059,0.059 c -1.054,1.056 -2.438,1.584 -3.821,1.584 -1.384,0 -2.768,-0.528 -3.823,-1.584 l -0.061,-0.061 -0.061,-0.06 c -2.111,-2.111 -2.111,-5.533 0,-7.645 l 0.098,-0.098 0.009,-0.005 c 4.347,-4.207 8.893,-6.66 14.08,-11.62 m -11.76,8.35 c -1.015,0.802 -2.02,1.618 -3.004,2.461 l -0.033,0.028 -0.132,0.132 c -2.527,2.525 -2.527,6.62 0,9.144 l 0.122,0.123 c 1.263,1.264 2.924,1.899 4.584,1.899 1.656,0 3.31,-0.633 4.566,-1.903 l 0.061,-0.063 0.064,-0.065 0.024,-0.029 c 0.834,-0.959 1.638,-1.94 2.429,-2.935 -0.124,0.237 -0.246,0.472 -0.369,0.707 -2.103,4.024 -4.248,8.281 -6.885,11.98 -1.869,2.621 -4.464,5.606 -7.704,6.461 -0.504,0.133 -1.006,0.209 -1.505,0.235 0.012,0.002 0.024,0.004 0.036,0.005 -0.149,0.009 -0.297,0.013 -0.445,0.013 -1.381,0 -2.735,-0.37 -4.031,-0.968 -1.339,-0.617 -2.587,-1.614 -3.627,-2.653 -1.04,-1.041 -2.038,-2.291 -2.655,-3.633 -0.6,-1.305 -0.971,-2.669 -0.965,-4.06 v 0.003 c 0.002,-0.626 0.08,-1.257 0.248,-1.891 0.853,-3.238 3.84,-5.836 6.463,-7.703 3.699,-2.637 7.957,-4.782 11.98,-6.884 0.257,-0.136 0.516,-0.27 0.775,-0.406"
       inkscape:connector-curvature="0"
       id="path36"
       style="stroke-width:0.1;fill-opacity:1;fill:url(#linearGradient18443)" /><path
       d="m 172.2,102.6 c -0.259,0.136 -0.518,0.27 -0.775,0.406 -4.026,2.102 -8.284,4.247 -11.98,6.884 -2.623,1.867 -5.61,4.465 -6.463,7.703 -0.168,0.634 -0.246,1.265 -0.248,1.891 0.18,1.023 0.518,2.026 0.965,3.001 0.715,1.55 1.865,2.99 3.066,4.191 1.198,1.199 2.637,2.35 4.183,3.062 1.124,0.517 2.287,0.887 3.473,1.039 0.499,-0.026 1.001,-0.102 1.505,-0.235 3.24,-0.855 5.835,-3.84 7.704,-6.461 2.637,-3.701 4.782,-7.958 6.885,-11.98 0.123,-0.235 0.245,-0.47 0.369,-0.707 -0.791,0.995 -1.595,1.976 -2.429,2.935 l -0.024,0.029 -0.064,0.065 -0.061,0.063 c -1.256,1.27 -2.91,1.903 -4.566,1.903 -1.66,0 -3.321,-0.635 -4.584,-1.899 l -0.122,-0.123 c -2.527,-2.524 -2.527,-6.619 0,-9.144 l 0.132,-0.132 0.033,-0.028 c 0.984,-0.843 1.989,-1.659 3.004,-2.461"
       inkscape:connector-curvature="0"
       id="path39"
       style="stroke-width:0.1;fill-opacity:1;fill:url(#linearGradient18199)" /><path
       d="m 153.7,56.04 c 2.173,4.084 6.292,7.961 9.091,11.11 3.086,3.474 5.971,7.268 7.13,11.85 0.404,1.595 0.605,3.367 0.604,5.138 0,1.702 -0.186,3.402 -0.556,4.941 -0.278,1.149 -0.668,2.267 -1.153,3.346 -1.449,3.236 -3.685,6.063 -6.025,8.697 -2.805,3.156 -6.937,7.044 -9.107,11.14 6.096,-7.161 20.16,-11.86 28.58,-17.99 2.602,-2.226 4.695,-4.74 5.454,-7.496 0.23,-0.8375 0.346,-1.697 0.346,-2.57 0,-4.044 -2.46,-7.373 -6.128,-10.37 4.171,2.968 7.05,6.263 7.065,10.34 v -0.0324 c 0,-0.8153 -0.115,-1.618 -0.346,-2.4 -1.931,-6.537 -12.47,-11.61 -18.09,-14.55 -4.098,-2.14 -8.399,-4.314 -12.17,-6.996 -1.651,-1.174 -3.332,-2.549 -4.698,-4.154 m 32.98,34.18 c -0.201,0.2516 -0.412,0.4996 -0.633,0.7449 0.221,-0.2453 0.433,-0.4937 0.633,-0.7449"
       inkscape:connector-curvature="0"
       id="path48"
       style="stroke-width:0.1;fill-opacity:1;fill:url(#radialGradient15279)" /><path
       d="m 199.3,94.52 h -0.038 c 4.07,0.0172 7.365,2.894 10.33,7.063 -2.996,-3.668 -6.326,-6.127 -10.37,-6.127 -0.874,0 -1.734,0.1153 -2.571,0.3465 -2.734,0.7531 -5.231,2.821 -7.445,5.395 -6.155,8.42 -10.86,22.54 -18.04,28.64 4.095,-2.169 7.983,-6.303 11.14,-9.108 2.635,-2.34 5.463,-4.578 8.7,-6.027 1.071,-0.479 2.181,-0.869 3.321,-1.146 1.547,-0.374 3.256,-0.562 4.966,-0.562 1.699,0 3.399,0.185 4.935,0.556 4.672,1.123 8.525,4.044 12.05,7.179 3.148,2.799 7.023,6.916 11.11,9.091 -1.603,-1.366 -2.98,-3.047 -4.155,-4.699 -2.681,-3.77 -4.856,-8.071 -6.995,-12.17 -2.932,-5.617 -8.008,-16.16 -14.55,-18.09 -0.78,-0.2293 -1.583,-0.3461 -2.397,-0.3461"
       inkscape:connector-curvature="0"
       id="path51"
       style="stroke-width:0.1;fill-opacity:1;fill:url(#radialGradient15191)" /><path
       d="m 245,56.04 c -1.244,1.462 -2.75,2.733 -4.258,3.836 -6.681,4.917 -16.57,8.806 -23.38,13.47 -3.427,2.397 -6.374,5.211 -7.315,8.368 -0.209,0.7082 -0.328,1.44 -0.348,2.2 0.132,-3.956 2.975,-7.177 7.058,-10.08 -3.668,2.997 -6.127,6.326 -6.127,10.37 0,0.873 0.115,1.732 0.346,2.57 0.743,2.699 2.767,5.166 5.294,7.358 0.429,0.3227 0.869,0.6387 1.316,0.9473 5.51,3.722 12.95,6.959 19.08,10.64 1.247,0.747 2.465,1.528 3.633,2.358 1.648,1.175 3.328,2.548 4.692,4.148 -2.175,-4.079 -6.292,-7.954 -9.088,-11.1 -2.34,-2.634 -4.579,-5.462 -6.027,-8.697 -0.483,-1.079 -0.874,-2.197 -1.151,-3.346 -0.756,-3.138 -0.744,-6.949 0.047,-10.08 1.16,-4.582 4.045,-8.376 7.131,-11.85 2.797,-3.149 6.917,-7.026 9.091,-11.11"
       inkscape:connector-curvature="0"
       id="path57"
       style="stroke-width:0.1;fill-opacity:1;fill:url(#radialGradient15235)" /><path
       d="m 227.5,38.44 c -4.092,2.17 -7.979,6.302 -11.14,9.105 -0.015,0.0129 -0.031,0.027 -0.046,0.0411 -2.622,2.326 -5.435,4.545 -8.651,5.986 -0.768,0.3437 -1.554,0.6398 -2.357,0.8828 -0.003,0.0012 -0.006,0.0012 -0.008,0.002 -0.003,0.0011 -0.005,0.0023 -0.007,0.0023 -0.337,0.102 -0.676,0.193 -1.019,0.275 -0.662,0.1578 -1.355,0.2816 -2.064,0.3707 -0.926,0.1172 -1.881,0.1762 -2.835,0.1762 -1.699,0 -3.397,-0.186 -4.933,-0.5551 -2.962,-0.7129 -5.594,-2.148 -8.023,-3.901 v -8e-4 c -0.006,-0.0031 -0.011,-0.007 -0.016,-0.0109 -1.398,-1.01 -2.728,-2.125 -4.016,-3.268 -0.984,-0.875 -2.039,-1.879 -3.149,-2.912 -2.442,-2.271 -5.15,-4.684 -7.956,-6.179 0.025,0.0219 0.05,0.043 0.075,0.0649 0.089,0.0761 0.177,0.1531 0.264,0.232 0.021,0.0191 0.043,0.0379 0.064,0.057 0.004,0.0039 0.008,0.0071 0.012,0.011 1.427,1.294 2.666,2.826 3.739,4.335 2.682,3.769 4.856,8.071 6.994,12.17 1.815,3.475 4.449,8.833 7.742,12.87 2.03,2.491 4.312,4.481 6.806,5.217 0.164,0.0488 0.329,0.0922 0.495,0.1305 0.624,0.1441 1.26,0.216 1.904,0.216 h 0.005 c -0.812,-8e-4 -1.613,-0.116 -2.394,-0.3465 -3.017,-0.891 -5.723,-3.616 -8.05,-6.844 2.319,2.81 4.963,5.105 7.878,5.908 0.837,0.2308 1.696,0.3461 2.57,0.3461 4.006,0 7.31,-2.413 10.29,-6.025 6.053,-8.449 10.73,-22.31 17.83,-28.36"
       inkscape:connector-curvature="0"
       id="path63"
       style="stroke-width:0.1;fill:url(#linearGradient13040);fill-opacity:1" /><path
       d="m 216.8,73.83 c -4.083,2.905 -6.926,6.126 -7.058,10.08 -0.002,0.073 -0.002,0.1469 -0.002,0.2207 0,0.8145 0.115,1.618 0.345,2.399 0.834,2.823 3.273,5.374 6.228,7.596 -2.527,-2.192 -4.551,-4.659 -5.294,-7.358 -0.231,-0.8375 -0.346,-1.697 -0.346,-2.57 0,-4.044 2.459,-7.373 6.127,-10.37"
       inkscape:connector-curvature="0"
       id="path72"
       style="stroke-width:0.1;fill-opacity:1;fill:url(#linearGradient18473)" /><path
       d="m 181.9,73.83 c 3.668,2.997 6.128,6.326 6.128,10.37 0,0.873 -0.116,1.732 -0.346,2.57 -0.759,2.756 -2.852,5.27 -5.454,7.496 1.447,-1.053 2.728,-2.148 3.774,-3.306 0.221,-0.2453 0.432,-0.4933 0.633,-0.7449 1.46,-1.834 2.321,-3.825 2.33,-6.049 -0.015,-4.073 -2.894,-7.368 -7.065,-10.34"
       inkscape:connector-curvature="0"
       id="path78"
       style="stroke-width:0.1;fill-opacity:1;fill:url(#linearGradient18482)" /><path
       d="m 246,119.5 c -0.178,1.024 -0.516,2.028 -0.965,3.004 -0.713,1.55 -1.865,2.99 -3.065,4.191 -1.198,1.199 -2.637,2.35 -4.183,3.062 -1.125,0.517 -2.287,0.887 -3.474,1.039 0.136,0.008 0.272,0.011 0.407,0.011 1.383,0 2.738,-0.37 4.034,-0.968 1.34,-0.618 2.588,-1.614 3.625,-2.653 1.043,-1.041 2.039,-2.291 2.658,-3.633 0.415,-0.903 0.72,-1.834 0.867,-2.783 0.061,-0.399 0.094,-0.802 0.096,-1.206 V 119.5"
       inkscape:connector-curvature="0"
       id="path99"
       style="stroke-width:0.1;fill:#ffffff;opacity:0.85000001" /><path
       d="m 164,37.51 c -0.62,0 -1.235,0.075 -1.842,0.2109 -0.744,0.168 -1.475,0.4281 -2.188,0.7571 -0.608,0.28 -1.197,0.6378 -1.756,1.043 -0.35,0.2531 -0.688,0.5242 -1.011,0.8063 -0.3,0.2609 -0.587,0.5308 -0.86,0.8039 -0.162,0.1621 -0.323,0.3289 -0.481,0.5 -0.496,0.5371 -0.969,1.119 -1.381,1.732 -0.303,0.452 -0.572,0.9211 -0.793,1.401 -0.002,0.0043 -0.004,0.009 -0.006,0.0133 -10e-4,0.0019 -0.002,0.0027 -0.003,0.0047 -0.001,0.0031 -0.002,0.0062 -0.004,0.0089 0,0.0024 -0.001,0.0032 -0.002,0.0051 -0.002,0.0039 -0.004,0.0082 -0.005,0.0121 -0.001,0.002 -0.003,0.0051 -0.004,0.0071 -10e-4,0.0019 -0.002,0.0039 -0.003,0.0058 -0.001,0.0031 -0.002,0.0051 -0.003,0.0082 -10e-4,8e-4 -10e-4,0.0028 -0.002,0.0039 -0.004,0.0102 -0.009,0.02 -0.013,0.0301 -0.001,0 -0.001,8e-4 -0.001,8e-4 -0.572,1.273 -0.924,2.602 -0.918,3.957 0.179,-1.023 0.517,-2.027 0.964,-3.001 0.715,-1.549 1.865,-2.99 3.066,-4.191 1.198,-1.2 2.637,-2.349 4.183,-3.062 1.135,-0.5238 2.31,-0.8961 3.509,-1.044 -0.149,-0.009 -0.298,-0.0129 -0.446,-0.0129"
       inkscape:connector-curvature="0"
       id="path108"
       style="stroke-width:0.1;fill:#e6e6e6;opacity:0.94" /><path
       d="m 199.3,94.52 c -3.944,0.0176 -7.16,2.718 -10.05,6.677 2.214,-2.574 4.711,-4.642 7.445,-5.395 0.837,-0.2312 1.697,-0.3465 2.571,-0.3465 4.043,0 7.373,2.46 10.37,6.127 -2.967,-4.169 -6.262,-7.046 -10.33,-7.063"
       inkscape:connector-curvature="0"
       id="path123"
       style="stroke-width:0.1;fill-opacity:1;fill:url(#linearGradient18491)" /><path
       d="m 188.9,66.57 c 2.327,3.228 5.033,5.953 8.05,6.844 0.781,0.2305 1.582,0.3457 2.394,0.3465 4.053,-0.0023 7.335,-2.837 10.29,-6.961 -2.976,3.612 -6.28,6.025 -10.29,6.025 -0.874,0 -1.733,-0.1153 -2.57,-0.3461 -2.915,-0.8028 -5.559,-3.098 -7.878,-5.908"
       inkscape:connector-curvature="0"
       id="path132"
       style="stroke-width:0.1;fill-opacity:1;fill:url(#radialGradient15290)" /><path
       d="m 234.7,37.51 c -0.115,0 -0.229,0.0031 -0.344,0.0082 -0.034,8e-4 -0.067,0.0027 -0.101,0.0047 1.199,0.148 2.373,0.5203 3.509,1.044 1.546,0.7129 2.985,1.862 4.183,3.062 1.2,1.201 2.352,2.642 3.065,4.191 0.449,0.975 0.787,1.98 0.965,3.004 v -0.064 c -0.006,-1.369 -0.373,-2.713 -0.963,-3.996 -0.619,-1.343 -1.615,-2.592 -2.656,-3.634 -1.039,-1.038 -2.287,-2.036 -3.627,-2.654 -1.295,-0.5961 -2.65,-0.966 -4.031,-0.966"
       inkscape:connector-curvature="0"
       id="path117"
       style="stroke-width:0.1;fill:#ececec;opacity:0.45" /><path
       d="m 152.7,119.5 c -0.004,1.388 0.366,2.749 0.965,4.05 0.617,1.342 1.615,2.592 2.656,3.633 1.039,1.039 2.287,2.035 3.626,2.653 1.295,0.598 2.65,0.968 4.033,0.968 0.135,0 0.271,-0.003 0.407,-0.011 -1.186,-0.152 -2.349,-0.522 -3.473,-1.039 -1.546,-0.712 -2.985,-1.863 -4.183,-3.062 -1.201,-1.201 -2.351,-2.641 -3.066,-4.191 -0.447,-0.975 -0.785,-1.978 -0.965,-3.001"
       inkscape:connector-curvature="0"
       id="path87"
       style="stroke-width:0.1;fill:#fac3ca;fill-opacity:1;opacity:0.06" /></g></svg>
