<?xml version="1.0" encoding="UTF-8"?>
<!-- Generator: visioncortex VTracer 0.6.12 -->
<svg version="1.1" xmlns="http://www.w3.org/2000/svg" viewBox="0 0 95 89" width="95" height="89">
<path d="M0 0 C2.438 1.563 2.438 1.563 4 4 C4.232 9.812 1.688 13.552 -1.367 18.355 C-3.877 22.421 -5.931 26.698 -8 31 C-7.166 30.215 -6.332 29.43 -5.473 28.621 C14.278 10.13 14.278 10.13 22 9 C25.173 9.219 28.085 9.706 31 11 C33 14 33 14 33.062 17.312 C31.629 22.287 29.306 24.244 25 27 C20.924 28.742 16.751 30.007 12.5 31.25 C11.398 31.588 10.296 31.925 9.16 32.273 C3.791 33.911 -1.597 35.479 -7 37 C-6.592 37.035 -6.592 37.035 -4.525 37.212 C-0.806 37.54 2.909 37.895 6.625 38.25 C7.91 38.36 9.195 38.469 10.52 38.582 C11.142 38.643 11.142 38.643 14.289 38.953 C14.86 39.005 14.86 39.005 17.749 39.271 C21.565 40.127 23.93 41.608 27 44 C28.612 47.223 28.45 50.505 28 54 C25.75 58.875 22.874 61.239 18.086 63.375 C13.601 64.719 10.129 63.553 6.062 61.562 C5.722 61.305 5.722 61.305 4 60 C4 59.34 4 58.68 4 58 C4.66 58 5.32 58 6 58 C6 57.34 6 56.68 6 56 C5.34 56 4.68 56 4 56 C4 55.34 4 54.68 4 54 C3.34 54 2.68 54 2 54 C0.414 52.137 0.414 52.137 -1.375 49.688 C-3.67 46.548 -5.776 44.194 -9 42 C-9.165 42.33 -9.165 42.33 -10 44 C-10.66 43.34 -11.32 42.68 -12 42 C-11.964 42.544 -11.964 42.544 -11.781 45.297 C-11.534 49.128 -11.316 52.96 -11.116 56.794 C-11.015 58.715 -10.905 60.635 -10.793 62.555 C-10.521 70.484 -11.736 74.456 -17.188 80.375 C-21.032 82.596 -24.621 82.809 -29 83 C-30.206 80.668 -31.165 78.504 -32 76 C-32.66 75.67 -33.32 75.34 -34 75 C-33.633 68.375 -30.981 63.903 -27.562 58.312 C-26.563 56.642 -25.564 54.972 -24.566 53.301 C-24.122 52.57 -23.678 51.84 -23.221 51.087 C-22.055 49.095 -21.007 47.076 -20 45 C-20.727 45.69 -21.454 46.379 -22.203 47.09 C-42.141 65.797 -42.141 65.797 -49.562 66.188 C-50.697 66.126 -51.831 66.064 -53 66 C-53.33 65.34 -53.66 64.68 -54 64 C-53.67 63.01 -53.34 62.02 -53 61 C-53.99 60.67 -54.98 60.34 -56 60 C-56 54.121 -56 54.121 -53.645 51.48 C-47.37 46.624 -40.513 44.458 -33 42.125 C-31.748 41.723 -30.497 41.321 -29.207 40.906 C-26.142 39.924 -23.073 38.955 -20 38 C-23.326 36.891 -25.754 36.935 -29.25 37 C-38.694 37.053 -38.694 37.053 -43 36 C-43.66 35.01 -44.32 34.02 -45 33 C-44.34 32.01 -43.68 31.02 -43 30 C-44.32 30.33 -45.64 30.66 -47 31 C-46.496 26.588 -44.987 24.25 -42 21 C-38.876 18.918 -36.916 18.393 -33.18 18.496 C-25.918 20.175 -20.638 28.641 -16 34 C-16.051 33.269 -16.102 32.538 -16.155 31.784 C-16.376 28.461 -16.563 25.137 -16.75 21.812 C-16.831 20.662 -16.912 19.512 -16.996 18.326 C-17.054 17.214 -17.112 16.103 -17.172 14.957 C-17.203 14.446 -17.203 14.446 -17.362 11.863 C-16.826 7.623 -14.563 5.245 -11.289 2.637 C-7.364 0.398 -4.496 -0.799 0 0 Z M-15 17 C-14 20 -14 20 -14 20 Z M-14 26 C-13 29 -13 29 -13 29 Z " fill="#F3B11A" transform="translate(59,3)"/>
<path d="M0 0 C2 3 2 3 2.062 6.312 C0.642 11.244 -1.817 13.176 -6 16 C-9.067 17.46 -12.185 18.474 -15.438 19.438 C-16.245 19.705 -17.053 19.972 -17.885 20.248 C-23.364 21.939 -27.37 22.092 -33 21 C-33 20.34 -33 19.68 -33 19 C-33.66 18.67 -34.32 18.34 -35 18 C-14.391 -6.916 -14.391 -6.916 0 0 Z " fill="#FD9A0C" transform="translate(90,14)"/>
<path d="M0 0 C1 3 1 3 0 6 C-2.288 8.089 -4.597 10.049 -7 12 C-7.868 12.719 -8.735 13.439 -9.629 14.18 C-26.893 28.442 -26.893 28.442 -35 28 C-35.33 27.34 -35.66 26.68 -36 26 C-35.67 25.01 -35.34 24.02 -35 23 C-35.99 22.67 -36.98 22.34 -38 22 C-38 16.1 -38 16.1 -35.601 13.461 C-29.641 8.883 -23.404 6.799 -16.25 4.688 C-15.127 4.341 -14.004 3.995 -12.848 3.639 C-8.586 2.333 -4.334 1.044 0 0 Z " fill="#EFB92E" transform="translate(41,41)"/>
<path d="M0 0 C3.266 -0.434 3.266 -0.434 7.25 -0.438 C8.555 -0.457 9.859 -0.476 11.203 -0.496 C15.51 0.067 17.658 1.281 21 4 C22.612 7.223 22.45 10.505 22 14 C19.704 18.976 16.815 21.13 11.973 23.32 C9.564 24.15 7.526 24.316 5 24 C5 23.01 5 22.02 5 21 C5.66 21 6.32 21 7 21 C7 20.01 7 19.02 7 18 C6.072 17.794 5.144 17.587 4.188 17.375 C1 16 1 16 -0.938 13.062 C-2 10 -2 10 -1 7 C-0.34 7.165 -0.34 7.165 3 8 C3 7.34 3 6.68 3 6 C2.34 6 1.68 6 1 6 C1 5.34 1 4.68 1 4 C0.01 3.67 -0.98 3.34 -2 3 C-1.34 2.01 -0.68 1.02 0 0 Z " fill="#FD7E0B" transform="translate(65,43)"/>
<path d="M0 0 C0.66 0 1.32 0 2 0 C3.785 5.354 4.045 11.796 2.281 17.203 C0.232 21.004 -2.262 23.876 -6 26 C-8.76 26.314 -11.207 26.189 -14 26 C-14.633 17.809 -14.262 10.7 -9 4 C-8.01 4 -7.02 4 -6 4 C-6 3.34 -6 2.68 -6 2 C-5.598 1.928 -5.598 1.928 -3.562 1.562 C-1 1 -1 1 0 0 Z " fill="#FC7A11" transform="translate(45,59)"/>
<path d="M0 0 C2.438 1.562 2.438 1.562 4 4 C4.262 10.544 0.833 15.866 -3 21 C-4.32 22.018 -5.651 23.022 -7 24 C-7.75 26.188 -7.75 26.188 -8 28 C-8.66 28 -9.32 28 -10 28 C-11.326 22.033 -11.088 16.074 -11 10 C-12.32 9.67 -13.64 9.34 -15 9 C-14.665 5.87 -13.999 4.999 -11.625 2.812 C-7.724 0.119 -4.684 -0.478 0 0 Z " fill="#EA7011" transform="translate(59,3)"/>
<path d="M0 0 C2.016 0.617 4.018 1.283 6 2 C5.988 2.82 5.977 3.64 5.965 4.484 C5.956 5.562 5.947 6.64 5.938 7.75 C5.926 8.817 5.914 9.885 5.902 10.984 C6 14 6 14 6.566 16.266 C7 18 7 18 6 20 C6.66 20 7.32 20 8 20 C8.103 19.196 8.206 18.391 8.312 17.562 C8.426 17.14 8.426 17.14 9 15 C9.99 14.67 10.98 14.34 12 14 C11.691 14.763 11.381 15.526 11.062 16.312 C10.321 18.188 9.638 20.087 9 22 C9.289 21.814 9.289 21.814 10.75 20.875 C13 20 13 20 15.25 20.875 C15.828 21.246 16.405 21.617 17 22 C16.34 22.33 15.68 22.66 15 23 C16.32 23.99 17.64 24.98 19 26 C17.043 26.67 15.084 27.336 13.125 28 C12.034 28.371 10.944 28.742 9.82 29.125 C7 30 7 30 5 30 C4.732 29.216 4.464 28.433 4.188 27.625 C3 25 3 25 0 23 C-0.448 20.769 -0.448 20.769 -0.547 18.027 C-0.587 17.046 -0.627 16.064 -0.668 15.053 C-0.695 14.025 -0.722 12.997 -0.75 11.938 C-0.793 10.906 -0.835 9.874 -0.879 8.811 C-1.075 3.28 -1.075 3.28 -1 1 C-0.67 0.67 -0.34 0.34 0 0 Z M1 9 C2 12 2 12 2 12 Z M2 18 C3 21 3 21 3 21 Z " fill="#EF9B2C" transform="translate(43,11)"/>
<path d="M0 0 C6.93 0.33 13.86 0.66 21 1 C21 1.33 21 1.66 21 2 C20.608 2.062 20.608 2.062 18.625 2.375 C16 3 16 3 14 5 C14.66 5.33 15.32 5.66 16 6 C16 6.66 16 7.32 16 8 C16.66 8 17.32 8 18 8 C18 8.66 18 9.32 18 10 C16.68 10 15.36 10 14 10 C14.881 15.461 14.881 15.461 16 18 C19.125 19.5 19.125 19.5 22 20 C22 20.99 22 21.98 22 23 C21.34 23 20.68 23 20 23 C20 23.66 20 24.32 20 25 C15.25 23.125 15.25 23.125 13 22 C13 21.34 13 20.68 13 20 C13.66 20 14.32 20 15 20 C15 19.34 15 18.68 15 18 C14.34 18 13.68 18 13 18 C13 17.34 13 16.68 13 16 C12.34 16 11.68 16 11 16 C9.414 14.137 9.414 14.137 7.625 11.688 C5.33 8.548 3.224 6.194 0 4 C-0.33 4.66 -0.66 5.32 -1 6 C-1.99 4.68 -2.98 3.36 -4 2 C-2.68 2 -1.36 2 0 2 C0 1.34 0 0.68 0 0 Z " fill="#FAB419" transform="translate(50,41)"/>
<path d="M0 0 C0 0.66 0 1.32 0 2 C1.32 2.33 2.64 2.66 4 3 C0.169 6.494 -4.411 7.714 -9.25 9.25 C-10.071 9.531 -10.892 9.812 -11.738 10.102 C-17.299 11.882 -21.265 12.136 -27 11 C-26.785 9.129 -26.785 9.129 -26 7 C-23.996 5.84 -23.996 5.84 -21.438 4.938 C-20.531 4.611 -19.625 4.285 -18.691 3.949 C-17.803 3.636 -16.915 3.323 -16 3 C-15.287 2.697 -14.574 2.394 -13.84 2.082 C-9.026 0.044 -5.222 -0.28 0 0 Z " fill="#FBB011" transform="translate(84,24)"/>
<path d="M0 0 C0.33 0 0.66 0 1 0 C0.582 8.637 -2.386 14.674 -6.812 22 C-8.296 25.748 -8.189 28.838 -8.008 32.828 C-8 35 -8 35 -9 37 C-7.35 37 -5.7 37 -4 37 C-4 37.33 -4 37.66 -4 38 C-6.875 38.25 -6.875 38.25 -10 38 C-11.312 36.188 -11.312 36.188 -12 34 C-12.165 33.505 -12.165 33.505 -13 31 C-13.66 30.67 -14.32 30.34 -15 30 C-14.626 23.397 -12.012 18.901 -8.625 13.312 C-8.13 12.471 -7.635 11.63 -7.125 10.764 C-4.914 7.036 -2.726 3.381 0 0 Z " fill="#FCB947" transform="translate(40,48)"/>
<path d="M0 0 C0 0.99 0 1.98 0 3 C-0.66 3 -1.32 3 -2 3 C-2 3.66 -2 4.32 -2 5 C-3.333 5.667 -4.667 6.333 -6 7 C-6.33 7.495 -6.33 7.495 -8 10 C-8.66 10 -9.32 10 -10 10 C-10 10.99 -10 11.98 -10 13 C-11.485 13.495 -11.485 13.495 -19 16 C-19.144 15.433 -19.144 15.433 -19.875 12.562 C-20.246 11.387 -20.617 10.211 -21 9 C-21.66 8.67 -22.32 8.34 -23 8 C-22.34 6.35 -21.68 4.7 -21 3 C-20.34 3.33 -19.68 3.66 -19 4 C-16.505 3.419 -14.08 2.781 -11.625 2.062 C-7.649 0.909 -4.193 0 0 0 Z " fill="#F9C20A" transform="translate(30,49)"/>
<path d="M0 0 C5.28 0.33 10.56 0.66 16 1 C16.33 2.98 16.66 4.96 17 7 C13.848 10.703 13.848 10.703 11 12 C7.125 11.812 7.125 11.812 4 11 C4 11.66 4 12.32 4 13 C3.34 13 2.68 13 2 13 C0.312 10.188 0.312 10.188 -1 7 C-0.67 6.01 -0.34 5.02 0 4 C0.66 4.165 0.66 4.165 4 5 C4 4.34 4 3.68 4 3 C3.34 3 2.68 3 2 3 C2 2.34 2 1.68 2 1 C1.34 0.67 0.68 0.34 0 0 Z " fill="#FC8F0C" transform="translate(64,46)"/>
<path d="M0 0 C0.681 -0.005 1.361 -0.01 2.062 -0.016 C4 0.25 4 0.25 7 2.25 C8.188 5.875 8.188 5.875 9 9.25 C4.725 10.319 0.379 10.93 -4 10.25 C-7 8.25 -7 8.25 -9 6.25 C-7.08 1.819 -4.903 -0.037 0 0 Z " fill="#ED6D17" transform="translate(24,21.75)"/>
<path d="M0 0 C2.031 0.086 2.031 0.086 4.5 0.375 C5.315 0.465 6.129 0.555 6.969 0.648 C9 1 9 1 10 2 C10.193 9.193 8.614 13.558 4 19 C3.34 18.67 2.68 18.34 2 18 C1.805 15.277 1.805 15.277 1.875 11.938 C1.893 10.833 1.911 9.728 1.93 8.59 C1.941 8.163 1.941 8.163 2 6 C0.68 5.67 -0.64 5.34 -2 5 C-1.125 1.125 -1.125 1.125 0 0 Z " fill="#FA7510" transform="translate(46,7)"/>
<path d="M0 0 C2.624 3.061 3 3.732 3 8 C3.99 8.098 4.98 8.196 6 8.297 C13.355 9.103 19.579 10.069 26 14 C25.67 14.165 25.67 14.165 24 15 C23.01 14.67 22.02 14.34 21 14 C18.917 13.955 16.833 13.961 14.75 14 C5.306 14.053 5.306 14.053 1 13 C0.34 12.01 -0.32 11.02 -1 10 C-0.34 9.01 0.32 8.02 1 7 C-0.32 7.33 -1.64 7.66 -3 8 C-2.453 4.625 -1.945 2.918 0 0 Z " fill="#FCBB6F" transform="translate(15,26)"/>
<path d="M0 0 C4.005 2.975 7.088 5.974 10 10 C9.67 10.99 9.34 11.98 9 13 C5.708 12.526 2.416 12.045 -0.875 11.562 C-1.812 11.428 -2.749 11.293 -3.715 11.154 C-4.611 11.022 -5.507 10.89 -6.43 10.754 C-7.257 10.633 -8.085 10.513 -8.937 10.389 C-11 10 -11 10 -13 9 C-13 8.01 -13 7.02 -13 6 C-12.325 6.012 -11.649 6.023 -10.953 6.035 C-10.061 6.044 -9.169 6.053 -8.25 6.062 C-7.368 6.074 -6.487 6.086 -5.578 6.098 C-3.218 6.008 -1.255 5.669 1 5 C0.67 3.35 0.34 1.7 0 0 Z " fill="#FB9222" transform="translate(31,25)"/>
<path d="M0 0 C3.266 -0.434 3.266 -0.434 7.25 -0.438 C8.555 -0.457 9.859 -0.476 11.203 -0.496 C15.51 0.067 17.658 1.281 21 4 C22.607 7.215 22.057 10.436 22 14 C21.67 14 21.34 14 21 14 C20.67 12.02 20.34 10.04 20 8 C19.01 8.33 18.02 8.66 17 9 C16.34 7.35 15.68 5.7 15 4 C14.051 4.206 13.102 4.413 12.125 4.625 C7.241 5.357 2.738 4.154 -2 3 C-1.34 2.01 -0.68 1.02 0 0 Z " fill="#EB9D0C" transform="translate(65,43)"/>
<path d="M0 0 C2.64 0 5.28 0 8 0 C8 0.33 8 0.66 8 1 C6.35 1.33 4.7 1.66 3 2 C4.241 3.632 5.493 5.255 6.75 6.875 C7.446 7.78 8.142 8.685 8.859 9.617 C10.894 11.882 12.298 12.763 15 14 C15.124 14.66 15.248 15.32 15.375 16 C15.581 16.66 15.787 17.32 16 18 C19.062 19.25 19.062 19.25 22 20 C22 20.99 22 21.98 22 23 C21.34 23 20.68 23 20 23 C20 23.66 20 24.32 20 25 C15.25 23.125 15.25 23.125 13 22 C13 21.34 13 20.68 13 20 C13.66 20 14.32 20 15 20 C15 19.34 15 18.68 15 18 C14.34 18 13.68 18 13 18 C13 17.34 13 16.68 13 16 C12.34 16 11.68 16 11 16 C9.414 14.137 9.414 14.137 7.625 11.688 C5.33 8.548 3.224 6.194 0 4 C-0.33 4.66 -0.66 5.32 -1 6 C-1.99 4.68 -2.98 3.36 -4 2 C-2.68 2 -1.36 2 0 2 C0 1.34 0 0.68 0 0 Z " fill="#FBCA83" transform="translate(50,41)"/>
<path d="M0 0 C0.66 1.65 1.32 3.3 2 5 C-2.62 5 -7.24 5 -12 5 C-12 5.66 -12 6.32 -12 7 C-15 8 -15 8 -18 7 C-17.789 5.145 -17.789 5.145 -17 3 C-11.711 -0.374 -5.987 -2.12 0 0 Z " fill="#F07A0B" transform="translate(88,13)"/>
<path d="M0 0 C2 3 2 3 2 5 C2.33 5.598 2.66 6.196 3 6.812 C4.169 9.37 4 11.222 4 14 C4.66 14.66 5.32 15.32 6 16 C2.562 16.125 2.562 16.125 -1 16 C-1.33 15.34 -1.66 14.68 -2 14 C-1.67 13.01 -1.34 12.02 -1 11 C-1.99 10.67 -2.98 10.34 -4 10 C-3.385 3.477 -3.385 3.477 -1.438 1.062 C-1.2 0.887 -1.2 0.887 0 0 Z " fill="#FBCE5D" transform="translate(7,53)"/>
<path d="M0 0 C1.32 0.33 2.64 0.66 4 1 C1.272 3.217 -1.09 4.561 -4.441 5.605 C-5.272 5.867 -6.103 6.128 -6.959 6.396 C-7.389 6.527 -7.389 6.527 -9.562 7.188 C-10.426 7.46 -11.289 7.733 -12.178 8.014 C-18.585 10 -18.585 10 -22 10 C-22 9.34 -22 8.68 -22 8 C-20 7 -18 6 -16 5 C-15.34 4.01 -14.68 3.02 -14 2 C-13.34 2.33 -12.68 2.66 -12 3 C-11.464 2.856 -10.927 2.711 -10.375 2.562 C-6.893 1.738 -3.575 1.94 0 2 C0 1.34 0 0.68 0 0 Z " fill="#F4C327" transform="translate(84,26)"/>
<path d="M0 0 C0.479 4.881 0.743 7.959 -2.188 12.062 C-5.189 14.13 -6.45 14.507 -10 14 C-9.512 9.605 -8.17 7.978 -5 5 C-4.318 3.674 -3.648 2.342 -3 1 C-1 0 -1 0 0 0 Z " fill="#EB7619" transform="translate(86,50)"/>
<path d="M0 0 C1.562 1.063 1.562 1.063 3 3 C2.667 9.333 2.667 9.333 0 12 C-2.625 12.125 -2.625 12.125 -5 12 C-5 11.34 -5 10.68 -5 10 C-7.31 10.33 -9.62 10.66 -12 11 C-12.33 10.34 -12.66 9.68 -13 9 C-11.711 8.637 -10.418 8.285 -9.125 7.938 C-8.406 7.74 -7.686 7.543 -6.945 7.34 C-5 7 -5 7 -3 8 C-3.33 6.68 -3.66 5.36 -4 4 C-3.34 3.711 -2.68 3.422 -2 3.125 C-1.34 2.754 -0.68 2.383 0 2 C0 1.34 0 0.68 0 0 Z " fill="#F4AB0C" transform="translate(89,14)"/>
<path d="M0 0 C0.66 0.33 0.66 0.33 4 2 C5.342 8.935 5.107 15.956 5 23 C3.68 22.67 2.36 22.34 1 22 C0.67 14.74 0.34 7.48 0 0 Z M2 8 C3 11 3 11 3 11 Z M3 17 C4 20 4 20 4 20 Z " fill="#FCD1A7" transform="translate(42,12)"/>
<path d="M0 0 C0.33 0.66 0.66 1.32 1 2 C1.99 2.33 2.98 2.66 4 3 C3.01 3 2.02 3 1 3 C1 3.99 1 4.98 1 6 C0.01 6 -0.98 6 -2 6 C-2 6.66 -2 7.32 -2 8 C-5.824 11.642 -8.805 13.639 -14 15 C-11.897 11.187 -9.541 8.297 -6.438 5.25 C-5.652 4.471 -4.867 3.693 -4.059 2.891 C-2 1 -2 1 0 0 Z " fill="#F79723" transform="translate(69,18)"/>
<path d="M0 0 C0.33 0 0.66 0 1 0 C1.445 7.523 1.703 12.899 -3 19 C-6.962 22.962 -6.962 22.962 -10.66 23.098 C-11.432 23.065 -12.204 23.033 -13 23 C-12.091 21.724 -11.172 20.454 -10.25 19.188 C-9.74 18.48 -9.229 17.772 -8.703 17.043 C-6.975 14.97 -5.215 13.526 -3 12 C-3 12.66 -3 13.32 -3 14 C-2.34 14 -1.68 14 -1 14 C-0.67 9.38 -0.34 4.76 0 0 Z " fill="#E97D2B" transform="translate(47,62)"/>
<path d="M0 0 C0.423 0.144 0.423 0.144 2.562 0.875 C1.903 1.535 1.242 2.195 0.562 2.875 C1.883 3.865 3.203 4.855 4.562 5.875 C2.605 6.545 0.647 7.211 -1.312 7.875 C-2.403 8.246 -3.494 8.617 -4.617 9 C-7.438 9.875 -7.438 9.875 -9.438 9.875 C-10.129 8.082 -10.129 8.082 -10.438 5.875 C-7.716 2.006 -4.731 -0.172 0 0 Z " fill="#F2B535" transform="translate(57.4375,31.125)"/>
<path d="M0 0 C1.32 0 2.64 0 4 0 C4.219 3.217 4.268 5.434 2.875 8.375 C1 10 1 10 -2.188 10.25 C-3.116 10.168 -4.044 10.085 -5 10 C-4.34 7.36 -3.68 4.72 -3 2 C-2.01 2 -1.02 2 0 2 C0 1.34 0 0.68 0 0 Z " fill="#FC850C" transform="translate(39,61)"/>
<path d="M0 0 C1.5 1.25 1.5 1.25 3 3 C3 4.32 3 5.64 3 7 C2.67 7.165 2.67 7.165 1 8 C0.67 8.495 0.67 8.495 -1 11 C-1 10.34 -1 9.68 -1 9 C-2.32 9 -3.64 9 -5 9 C-5 9.66 -5 10.32 -5 11 C-5.66 10.67 -6.32 10.34 -7 10 C-6.01 7.36 -5.02 4.72 -4 2 C-3.01 2 -2.02 2 -1 2 C-0.67 1.34 -0.34 0.68 0 0 Z " fill="#F19A10" transform="translate(44,52)"/>
<path d="M0 0 C4.005 2.975 7.088 5.974 10 10 C9.67 10.99 9.34 11.98 9 13 C7.35 12.67 5.7 12.34 4 12 C4 11.34 4 10.68 4 10 C3.34 10 2.68 10 2 10 C0.684 6.38 0 3.904 0 0 Z " fill="#EB851B" transform="translate(31,25)"/>
<path d="M0 0 C0.124 0.619 0.247 1.237 0.375 1.875 C1 4 1 4 3 6 C4.925 9.749 5.157 11.95 4 16 C5.65 16 7.3 16 9 16 C9 16.33 9 16.66 9 17 C6.125 17.25 6.125 17.25 3 17 C1.688 15.188 1.688 15.188 1 13 C0.67 12.01 0.34 11.02 0 10 C-0.66 9.67 -1.32 9.34 -2 9 C-1.125 2.25 -1.125 2.25 0 0 Z " fill="#FBC298" transform="translate(27,69)"/>
<path d="M0 0 C1.438 0.142 2.875 0.289 4.312 0.438 C5.113 0.519 5.914 0.6 6.738 0.684 C9 1 9 1 12 2 C11.67 2.99 11.34 3.98 11 5 C6.925 6.489 3.335 7.263 -1 7 C-0.67 6.01 -0.34 5.02 0 4 C0.66 4.165 0.66 4.165 4 5 C4 4.34 4 3.68 4 3 C3.34 3 2.68 3 2 3 C2 2.34 2 1.68 2 1 C1.34 0.67 0.68 0.34 0 0 Z " fill="#FCA40A" transform="translate(64,46)"/>
<path d="M0 0 C0.808 0.111 1.616 0.222 2.449 0.336 C2.757 0.384 2.757 0.384 4.312 0.625 C4.312 1.615 4.312 2.605 4.312 3.625 C3.312 4.625 3.312 4.625 -0.562 4.875 C-4.391 4.848 -4.391 4.848 -6.688 3.125 C-7.017 2.63 -7.348 2.135 -7.688 1.625 C-4.334 -0.611 -3.78 -0.548 0 0 Z " fill="#FD740C" transform="translate(24.6875,27.375)"/>
<path d="M0 0 C0.66 0 1.32 0 2 0 C2.105 5.786 1.993 11.293 1 17 C0.34 17 -0.32 17 -1 17 C-1.223 14.918 -1.428 12.834 -1.625 10.75 C-1.741 9.59 -1.857 8.43 -1.977 7.234 C-1.999 4.074 -1.844 2.534 0 0 Z " fill="#E87209" transform="translate(45,59)"/>
<path d="M0 0 C0.66 0 1.32 0 2 0 C3.25 1.688 3.25 1.688 4 4 C3.188 6.375 3.188 6.375 2 9 C1.624 10.992 1.28 12.992 1 15 C0.711 14.381 0.422 13.763 0.125 13.125 C-1 11 -1 11 -3 9 C-2.263 5.825 -1.46 2.921 0 0 Z " fill="#FC9841" transform="translate(30,64)"/>
<path d="M0 0 C3.394 0.291 5.031 1.023 7.812 3.062 C10.775 7.041 10.412 9.143 10 14 C9.67 14 9.34 14 9 14 C8.67 12.02 8.34 10.04 8 8 C7.01 8.33 6.02 8.66 5 9 C2 3.25 2 3.25 2 1 C1.34 0.67 0.68 0.34 0 0 Z " fill="#EA9535" transform="translate(77,43)"/>
<path d="M0 0 C0.99 0.165 0.99 0.165 6 1 C6 1.66 6 2.32 6 3 C7.98 3.66 9.96 4.32 12 5 C8.994 8.006 6.176 7.596 2 8 C2 7.01 2 6.02 2 5 C2.66 5 3.32 5 4 5 C4 4.01 4 3.02 4 2 C2 0.812 2 0.812 0 0 Z " fill="#F88B34" transform="translate(68,59)"/>
<path d="M0 0 C2.438 1.562 2.438 1.562 4 4 C3.75 7.75 3.75 7.75 3 11 C2.67 11 2.34 11 2 11 C1.67 8.36 1.34 5.72 1 3 C-6.75 3.875 -6.75 3.875 -9 5 C-9.66 4.34 -10.32 3.68 -11 3 C-7.212 0.326 -4.645 -0.692 0 0 Z " fill="#EB8747" transform="translate(59,3)"/>
<path d="M0 0 C2.64 0 5.28 0 8 0 C8 1.32 8 2.64 8 4 C7.218 4.049 6.435 4.098 5.629 4.148 C4.617 4.223 3.605 4.298 2.562 4.375 C1.553 4.445 0.544 4.514 -0.496 4.586 C-0.909 4.654 -0.909 4.654 -3 5 C-3.33 5.66 -3.66 6.32 -4 7 C-4.33 6.34 -4.66 5.68 -5 5 C-3.625 3.5 -3.625 3.5 -2 2 C-1.34 2 -0.68 2 0 2 C0 1.34 0 0.68 0 0 Z " fill="#FABC0B" transform="translate(76,24)"/>
<path d="M0 0 C6.27 0 12.54 0 19 0 C19 0.33 19 0.66 19 1 C17.35 1.33 15.7 1.66 14 2 C14 2.33 14 2.66 14 3 C4.59 3.369 4.59 3.369 0 1 C0 0.67 0 0.34 0 0 Z " fill="#EAB221" transform="translate(52,42)"/>
<path d="M0 0 C1.562 1.062 1.562 1.062 3 3 C2.875 6.562 2.875 6.562 2 10 C1.01 10.66 0.02 11.32 -1 12 C-1 9 -1 9 0 8 C-0.99 7.67 -1.98 7.34 -3 7 C-3.33 6.01 -3.66 5.02 -4 4 C-3.34 3.711 -2.68 3.422 -2 3.125 C-1.34 2.754 -0.68 2.383 0 2 C0 1.34 0 0.68 0 0 Z " fill="#EAA22B" transform="translate(89,14)"/>
<path d="M0 0 C-3.497 2.331 -5.87 2.44 -10 3 C-10.547 3.186 -10.547 3.186 -13.312 4.125 C-16 5 -16 5 -18 4 C-11.217 -0.043 -8.018 -1.388 0 0 Z " fill="#EA863B" transform="translate(88,13)"/>
<path d="M0 0 C1.98 0.66 3.96 1.32 6 2 C5.67 7.28 5.34 12.56 5 18 C4.67 18 4.34 18 4 18 C2.964 12.95 2.897 8.126 3 3 C2.01 3.33 1.02 3.66 0 4 C0 2.68 0 1.36 0 0 Z " fill="#FD9342" transform="translate(43,11)"/>
<path d="" fill="#FCE7CC" transform="translate(0,0)"/>
</svg>
