<svg xmlns="http://www.w3.org/2000/svg" version="1.1" xmlns:xlink="http://www.w3.org/1999/xlink" width="1000" height="1000"><style>
    #light-icon {
      display: inline;
    }
    #dark-icon {
      display: none;
    }

    @media (prefers-color-scheme: dark) {
      #light-icon {
        display: none;
      }
      #dark-icon {
        display: inline;
      }
    }
  </style><g id="light-icon"><svg xmlns="http://www.w3.org/2000/svg" version="1.1" xmlns:xlink="http://www.w3.org/1999/xlink" width="1000" height="1000"><g clip-path="url(#SvgjsClipPath1228)"><rect width="1000" height="1000" fill="#f3f3f4"></rect><g transform="matrix(1.1219746754287547,0,0,1.1219746754287547,150,191.2914729924667)"><svg xmlns="http://www.w3.org/2000/svg" xml:space="preserve" width="623.9" height="550.295" viewBox="0 0 623.904 550.298"><defs><clipPath id="e" clipPathUnits="userSpaceOnUse"><path d="M357.32 660.97h292.02V432.59H357.32Z"></path></clipPath><clipPath id="f" clipPathUnits="userSpaceOnUse"><path d="M519.05 658.15c-27.149 2.459-54.151 2.773-74.645 2.773-10.913 0-21.83.102-32.756 0-15.448-.146-34.47 0-50.162 0-1.978 0-3.167-.008-4.172-.187.05-60.7 23.68-115.85 62.68-156.72v.098c0 23.169-.291 67.023-.291 84.059 0 6.946-.092 7.028 7.169 7.028 11.545 0 32.851-.021 32.851-.021 14.263 0 29.407-.309 44.228-1.397 45.237-3.325 80.079-41.74 79.35-87.454-.403-25.434-11.221-49.208-29.73-65.533-.322-.287-.653-.566-.984-.849-.142-.119-.29-.238-.436-.366-2.119-1.859-3.343-2.935-3.815-3.996a230 230 0 0 1 37.117-3.003c16.189 0 31.984 1.688 47.223 4.892 10.616 20.89 16.474 44.042 16.652 67.697.588 77.802-57.866 146.43-130.28 152.98"></path></clipPath><clipPath id="b" clipPathUnits="userSpaceOnUse"><path d="M480.26 224.67H617V212H480.26Z"></path></clipPath><clipPath id="c" clipPathUnits="userSpaceOnUse"><path d="M617 224.67c-129 0-136.74-12.67-136.74-12.67H617Z"></path></clipPath><linearGradient id="a" gradientTransform="matrix(292.02 0 0 -292.02 357.32 546.78)" gradientUnits="userSpaceOnUse"><stop offset="0" stop-color="#8cd7dd"></stop><stop offset=".116" stop-color="#8cd7dd"></stop><stop offset="1" stop-color="#fff"></stop></linearGradient><linearGradient id="d" gradientTransform="matrix(136.74 0 0 -136.74 480.26 218.33)" gradientUnits="userSpaceOnUse"><stop offset="0"></stop><stop offset=".884" stop-color="#fff"></stop><stop offset="1" stop-color="#fff"></stop></linearGradient><linearGradient id="g" gradientTransform="matrix(292.02 0 0 -292.02 357.32 546.78)" gradientUnits="userSpaceOnUse" href="#a"></linearGradient><clipPath id="SvgjsClipPath1228"><rect width="1000" height="1000" x="0" y="0" rx="350" ry="350"></rect></clipPath></defs><path fill="#b4bdc0" d="M463.533 78.549c-23.24-1.221-70.57 3.662-77.378 3.662-2.057.411-54.087-1.206-96.45 1.764-11.663.857-96.748 25.17-99.172 110.76 2.397 84.866 86.356 109.826 99.17 110.768 6.904.47 13.812.819 20.721 1.076V181.323q0-17.863 5.09-29.893t13.573-18.955q8.483-6.928 18.664-9.844 10.18-2.916 20.021-2.916 12.216 0 30.202.365 18.324 0 38.684 1.094 20.693 1.093 39.691 3.277v-42.24c0-2.17-5.07-3.255-12.816-3.662m-81.848 91.11q-10.52 0-15.95 6.197-5.09 5.832-5.09 15.674v45.934l99.429 2.916v42.652l-99.429 2.916v21.344c8.504-.002 17.008-.03 25.51-.025 9.076 0 90.194 8.682 90.194 0V169.659z"></path><path fill="#a2aaad" d="M262.965 118.326c-15.414 0-30.742 2.23-45.477 6.614-14.763 16.642-26.093 39.34-26.956 69.795 2.934 107.502 96.637 112.333 119.892 111.844v81.905c-1.53 3.39 1.715-206.689.119-206.689q0-17.862 5.09-29.892t13.572-18.957q.081-.068.162-.133c-20.754-9.539-43.435-14.487-66.402-14.487m117.131 51.846q-9.261.47-14.24 6.155-5.091 5.833-5.092 15.676v45.933l54.29 1.592c-5.227-25.675-17.276-49.582-34.958-69.356m36.995 114.597-56.327 1.652v20.871c8.464-.003 16.928-.029 25.39-.025 9.076 0 9.1-.112 9.1-8.795v8.795h17.522a146 146 0 0 0 4.315-22.498"></path><path fill="#24b3a7" d="M63.93 448.348c-4.762-6.19-12.619-9.643-20.356-9.643-18.929 0-31.429 15.12-31.429 34.285 0 17.738 11.786 32.857 31.429 32.857 9.642 0 17.022-4.287 22.022-11.31l9.643 7.262c-2.5 3.451-12.619 14.761-31.905 14.761-26.784 0-43.332-22.38-43.332-43.57 0-26.188 17.977-44.997 43.928-44.997 11.071 0 22.738 4.166 29.524 13.094zm51.775 9.637h10.714v56.427h-10.714Zm9.881-27.856h15.238l-17.738 17.143h-9.881Zm17.856 27.856h10.714v8.69h.239c2.738-5.952 9.88-10.12 18.57-10.12 10.953 0 20.476 6.55 20.476 21.548v36.309h-10.715v-33.333c0-10.595-6.071-14.524-12.856-14.524-8.929 0-15.714 5.715-15.714 18.81v29.047h-10.714Zm67.026 0h10.713v56.427h-10.714Zm5.356-28.093c4.286 0 7.856 3.57 7.856 7.856s-3.57 7.857-7.856 7.857-7.857-3.57-7.857-7.857c0-4.286 3.572-7.856 7.857-7.856m62.731 43.093c-3.929-4.166-8.095-6.308-14.046-6.308-11.666 0-17.62 9.405-17.62 19.998s7.144 19.167 18.214 19.167c5.952 0 10.118-2.144 13.69-6.31l7.62 7.618c-5.595 6.192-13.214 8.692-21.428 8.692-17.381 0-29.524-12.024-29.524-29.404s11.905-29.761 29.524-29.761c8.214 0 16.07 2.856 21.665 8.928zm47.5 14.288c-10.12 0-22.499 1.787-22.499 10.834 0 6.428 4.761 9.166 12.143 9.166 11.903 0 16.07-8.809 16.07-16.429v-3.571zm-30.236-22.379c5.951-5.595 14.522-8.334 22.379-8.334 16.666 0 23.57 9.048 23.57 18.81v28.808c0 3.929.12 7.261.477 10.237h-9.524c-.237-2.85-.356-5.71-.357-8.57h-.238c-4.762 7.26-11.191 10-19.761 10-10.476 0-19.522-5.952-19.522-16.905 0-14.523 13.927-19.523 31.068-19.523h7.858v-2.38c0-5.834-4.285-11.905-13.451-11.905-8.215 0-12.143 3.452-16.072 6.428zm97.386-34.759h52.974v10.714h-41.546v26.428h38.69v10.713h-38.69v36.428h-11.428Zm92.963 0h15.236l-17.736 17.143h-9.88zm3.096 57.14c-10.12 0-22.5 1.788-22.5 10.834 0 6.428 4.761 9.166 12.141 9.166 11.905 0 16.071-8.808 16.071-16.428v-3.572zm-30.239-22.378c5.953-5.595 14.523-8.334 22.38-8.334 16.666 0 23.571 9.047 23.571 18.809v28.808c0 3.93.12 7.262.476 10.238h-9.523c-.239-2.85-.358-5.71-.358-8.571h-.237c-4.763 7.26-11.19 10-19.763 10-10.474 0-19.522-5.952-19.522-16.904 0-14.524 13.929-19.524 31.071-19.524h7.856v-2.381c0-5.834-4.285-11.904-13.452-11.904-8.213 0-12.141 3.453-16.07 6.429zm101.905 8.088c-3.93-4.166-8.096-6.308-14.047-6.308-11.667 0-17.62 9.405-17.62 19.998s7.143 19.167 18.214 19.167c5.953 0 10.12-2.144 13.69-6.31l7.62 7.618c-5.596 6.192-13.215 8.692-21.428 8.692-17.382 0-29.524-12.024-29.524-29.404s11.906-29.761 29.524-29.761c8.213 0 16.07 2.856 21.666 8.928zm17.863-15h10.712v56.427h-10.713zm5.356-28.093c4.286 0 7.856 3.57 7.856 7.856s-3.57 7.857-7.856 7.857c-4.287 0-7.857-3.57-7.857-7.857 0-4.286 3.57-7.856 7.857-7.856"></path><path fill="#b4bdc0" d="M623.891 535.298H0c19.78 2.5 34.559 8.75 43.574 15h580.33v-15z"></path><g clip-path="url(#b)" opacity=".1" transform="matrix(4.2436 0 0 -1.25 -1994.431 815.298)"><g clip-path="url(#c)"><path fill="url(#d)" d="M617 224.67c-129 0-136.74-12.67-136.74-12.67H617Z"></path></g></g><path fill="#24b3a7" d="M87.23 514.048h11.25v-83.75H87.23Zm520 0h11.25v-83.75h-11.25z"></path><path fill="#01a799" d="M364.108.056c-25.619 0-59.372.391-93.307 3.465l.023.006C180.308 11.7 107.244 97.488 107.95 194.725v.004l-.002.002v.008c-.16 21.822 5.162 186.791 202.3 194.74l.176-82.899a677 677 0 0 1-20.721-1.076c-12.815-.942-96.773-25.903-99.17-110.769 2.424-85.59 87.508-109.903 99.172-110.76 32.095-2.25 64.298-1.76 96.45-1.764 11.924.025 90.194 0 90.194 0v42.24c0-54.222.01-105.704.01-115.607 0-8.68-.054-8.787-8.606-8.787-19.613 0-43.39.18-62.703 0-13.656-.13-27.3 0-40.94 0zm112.24 204.915v102.296h-81.094v-8.795c0 8.683-.024 8.795-9.1 8.795-8.502-.004-17.006.023-25.51.025v82.128q1.755.003 3.464.002c13.641 0 27.287.129 40.943 0 19.313-.181 43.09 0 62.704 0 8.551 0 8.605-.109 8.605-8.787 0-13.614-.009-105.798-.011-175.664"></path><g clip-path="url(#e)" opacity=".15" transform="translate(919.746 826.213)scale(-1.25)"><g clip-path="url(#f)"><path fill="url(#g)" d="m519.05 658.15-163.204 2.086-1.128-65.035c61.419.701 275.174-49.143 194.909-157.917 22.03-3.304 44.396-6.696 66.597-2.644 20.686-2.93 23.765 19.054 28.432 34.226 15.639 59.9-8.81 127.597-59.096 163.675-19.403 14.161-42.491 23.565-66.511 25.61"></path></g></g></svg></g></g></svg></g><g id="dark-icon"><svg xmlns="http://www.w3.org/2000/svg" version="1.1" xmlns:xlink="http://www.w3.org/1999/xlink" width="1000" height="1000"><g><g transform="matrix(1.602820964898221,0,0,1.602820964898221,0,58.98781856066677)"><svg xmlns="http://www.w3.org/2000/svg" xml:space="preserve" width="623.9" height="550.295" viewBox="0 0 623.904 550.298"><defs><clipPath id="e" clipPathUnits="userSpaceOnUse"><path d="M357.32 660.97h292.02V432.59H357.32Z"></path></clipPath><clipPath id="f" clipPathUnits="userSpaceOnUse"><path d="M519.05 658.15c-27.149 2.459-54.151 2.773-74.645 2.773-10.913 0-21.83.102-32.756 0-15.448-.146-34.47 0-50.162 0-1.978 0-3.167-.008-4.172-.187.05-60.7 23.68-115.85 62.68-156.72v.098c0 23.169-.291 67.023-.291 84.059 0 6.946-.092 7.028 7.169 7.028 11.545 0 32.851-.021 32.851-.021 14.263 0 29.407-.309 44.228-1.397 45.237-3.325 80.079-41.74 79.35-87.454-.403-25.434-11.221-49.208-29.73-65.533-.322-.287-.653-.566-.984-.849-.142-.119-.29-.238-.436-.366-2.119-1.859-3.343-2.935-3.815-3.996a230 230 0 0 1 37.117-3.003c16.189 0 31.984 1.688 47.223 4.892 10.616 20.89 16.474 44.042 16.652 67.697.588 77.802-57.866 146.43-130.28 152.98"></path></clipPath><clipPath id="b" clipPathUnits="userSpaceOnUse"><path d="M480.26 224.67H617V212H480.26Z"></path></clipPath><clipPath id="c" clipPathUnits="userSpaceOnUse"><path d="M617 224.67c-129 0-136.74-12.67-136.74-12.67H617Z"></path></clipPath><linearGradient id="a" gradientTransform="matrix(292.02 0 0 -292.02 357.32 546.78)" gradientUnits="userSpaceOnUse"><stop offset="0" stop-color="#8cd7dd"></stop><stop offset=".116" stop-color="#8cd7dd"></stop><stop offset="1" stop-color="#fff"></stop></linearGradient><linearGradient id="d" gradientTransform="matrix(136.74 0 0 -136.74 480.26 218.33)" gradientUnits="userSpaceOnUse"><stop offset="0"></stop><stop offset=".884" stop-color="#fff"></stop><stop offset="1" stop-color="#fff"></stop></linearGradient><linearGradient id="g" gradientTransform="matrix(292.02 0 0 -292.02 357.32 546.78)" gradientUnits="userSpaceOnUse" href="#a"></linearGradient></defs><path fill="#b4bdc0" d="M463.533 78.549c-23.24-1.221-70.57 3.662-77.378 3.662-2.057.411-54.087-1.206-96.45 1.764-11.663.857-96.748 25.17-99.172 110.76 2.397 84.866 86.356 109.826 99.17 110.768 6.904.47 13.812.819 20.721 1.076V181.323q0-17.863 5.09-29.893t13.573-18.955q8.483-6.928 18.664-9.844 10.18-2.916 20.021-2.916 12.216 0 30.202.365 18.324 0 38.684 1.094 20.693 1.093 39.691 3.277v-42.24c0-2.17-5.07-3.255-12.816-3.662m-81.848 91.11q-10.52 0-15.95 6.197-5.09 5.832-5.09 15.674v45.934l99.429 2.916v42.652l-99.429 2.916v21.344c8.504-.002 17.008-.03 25.51-.025 9.076 0 90.194 8.682 90.194 0V169.659z"></path><path fill="#a2aaad" d="M262.965 118.326c-15.414 0-30.742 2.23-45.477 6.614-14.763 16.642-26.093 39.34-26.956 69.795 2.934 107.502 96.637 112.333 119.892 111.844v81.905c-1.53 3.39 1.715-206.689.119-206.689q0-17.862 5.09-29.892t13.572-18.957q.081-.068.162-.133c-20.754-9.539-43.435-14.487-66.402-14.487m117.131 51.846q-9.261.47-14.24 6.155-5.091 5.833-5.092 15.676v45.933l54.29 1.592c-5.227-25.675-17.276-49.582-34.958-69.356m36.995 114.597-56.327 1.652v20.871c8.464-.003 16.928-.029 25.39-.025 9.076 0 9.1-.112 9.1-8.795v8.795h17.522a146 146 0 0 0 4.315-22.498"></path><path fill="#24b3a7" d="M63.93 448.348c-4.762-6.19-12.619-9.643-20.356-9.643-18.929 0-31.429 15.12-31.429 34.285 0 17.738 11.786 32.857 31.429 32.857 9.642 0 17.022-4.287 22.022-11.31l9.643 7.262c-2.5 3.451-12.619 14.761-31.905 14.761-26.784 0-43.332-22.38-43.332-43.57 0-26.188 17.977-44.997 43.928-44.997 11.071 0 22.738 4.166 29.524 13.094zm51.775 9.637h10.714v56.427h-10.714Zm9.881-27.856h15.238l-17.738 17.143h-9.881Zm17.856 27.856h10.714v8.69h.239c2.738-5.952 9.88-10.12 18.57-10.12 10.953 0 20.476 6.55 20.476 21.548v36.309h-10.715v-33.333c0-10.595-6.071-14.524-12.856-14.524-8.929 0-15.714 5.715-15.714 18.81v29.047h-10.714Zm67.026 0h10.713v56.427h-10.714Zm5.356-28.093c4.286 0 7.856 3.57 7.856 7.856s-3.57 7.857-7.856 7.857-7.857-3.57-7.857-7.857c0-4.286 3.572-7.856 7.857-7.856m62.731 43.093c-3.929-4.166-8.095-6.308-14.046-6.308-11.666 0-17.62 9.405-17.62 19.998s7.144 19.167 18.214 19.167c5.952 0 10.118-2.144 13.69-6.31l7.62 7.618c-5.595 6.192-13.214 8.692-21.428 8.692-17.381 0-29.524-12.024-29.524-29.404s11.905-29.761 29.524-29.761c8.214 0 16.07 2.856 21.665 8.928zm47.5 14.288c-10.12 0-22.499 1.787-22.499 10.834 0 6.428 4.761 9.166 12.143 9.166 11.903 0 16.07-8.809 16.07-16.429v-3.571zm-30.236-22.379c5.951-5.595 14.522-8.334 22.379-8.334 16.666 0 23.57 9.048 23.57 18.81v28.808c0 3.929.12 7.261.477 10.237h-9.524c-.237-2.85-.356-5.71-.357-8.57h-.238c-4.762 7.26-11.191 10-19.761 10-10.476 0-19.522-5.952-19.522-16.905 0-14.523 13.927-19.523 31.068-19.523h7.858v-2.38c0-5.834-4.285-11.905-13.451-11.905-8.215 0-12.143 3.452-16.072 6.428zm97.386-34.759h52.974v10.714h-41.546v26.428h38.69v10.713h-38.69v36.428h-11.428Zm92.963 0h15.236l-17.736 17.143h-9.88zm3.096 57.14c-10.12 0-22.5 1.788-22.5 10.834 0 6.428 4.761 9.166 12.141 9.166 11.905 0 16.071-8.808 16.071-16.428v-3.572zm-30.239-22.378c5.953-5.595 14.523-8.334 22.38-8.334 16.666 0 23.571 9.047 23.571 18.809v28.808c0 3.93.12 7.262.476 10.238h-9.523c-.239-2.85-.358-5.71-.358-8.571h-.237c-4.763 7.26-11.19 10-19.763 10-10.474 0-19.522-5.952-19.522-16.904 0-14.524 13.929-19.524 31.071-19.524h7.856v-2.381c0-5.834-4.285-11.904-13.452-11.904-8.213 0-12.141 3.453-16.07 6.429zm101.905 8.088c-3.93-4.166-8.096-6.308-14.047-6.308-11.667 0-17.62 9.405-17.62 19.998s7.143 19.167 18.214 19.167c5.953 0 10.12-2.144 13.69-6.31l7.62 7.618c-5.596 6.192-13.215 8.692-21.428 8.692-17.382 0-29.524-12.024-29.524-29.404s11.906-29.761 29.524-29.761c8.213 0 16.07 2.856 21.666 8.928zm17.863-15h10.712v56.427h-10.713zm5.356-28.093c4.286 0 7.856 3.57 7.856 7.856s-3.57 7.857-7.856 7.857c-4.287 0-7.857-3.57-7.857-7.857 0-4.286 3.57-7.856 7.857-7.856"></path><path fill="#b4bdc0" d="M623.891 535.298H0c19.78 2.5 34.559 8.75 43.574 15h580.33v-15z"></path><g clip-path="url(#b)" opacity=".1" transform="matrix(4.2436 0 0 -1.25 -1994.431 815.298)"><g clip-path="url(#c)"><path fill="url(#d)" d="M617 224.67c-129 0-136.74-12.67-136.74-12.67H617Z"></path></g></g><path fill="#24b3a7" d="M87.23 514.048h11.25v-83.75H87.23Zm520 0h11.25v-83.75h-11.25z"></path><path fill="#01a799" d="M364.108.056c-25.619 0-59.372.391-93.307 3.465l.023.006C180.308 11.7 107.244 97.488 107.95 194.725v.004l-.002.002v.008c-.16 21.822 5.162 186.791 202.3 194.74l.176-82.899a677 677 0 0 1-20.721-1.076c-12.815-.942-96.773-25.903-99.17-110.769 2.424-85.59 87.508-109.903 99.172-110.76 32.095-2.25 64.298-1.76 96.45-1.764 11.924.025 90.194 0 90.194 0v42.24c0-54.222.01-105.704.01-115.607 0-8.68-.054-8.787-8.606-8.787-19.613 0-43.39.18-62.703 0-13.656-.13-27.3 0-40.94 0zm112.24 204.915v102.296h-81.094v-8.795c0 8.683-.024 8.795-9.1 8.795-8.502-.004-17.006.023-25.51.025v82.128q1.755.003 3.464.002c13.641 0 27.287.129 40.943 0 19.313-.181 43.09 0 62.704 0 8.551 0 8.605-.109 8.605-8.787 0-13.614-.009-105.798-.011-175.664"></path><g clip-path="url(#e)" opacity=".15" transform="translate(919.746 826.213)scale(-1.25)"><g clip-path="url(#f)"><path fill="url(#g)" d="m519.05 658.15-163.204 2.086-1.128-65.035c61.419.701 275.174-49.143 194.909-157.917 22.03-3.304 44.396-6.696 66.597-2.644 20.686-2.93 23.765 19.054 28.432 34.226 15.639 59.9-8.81 127.597-59.096 163.675-19.403 14.161-42.491 23.565-66.511 25.61"></path></g></g></svg></g></g></svg></g></svg>